<svg xmlns="http://www.w3.org/2000/svg" width="56" height="56" fill="none"><rect width="56" height="56" fill="#F7F8F7" rx="12"/><path stroke="#2B3B31" stroke-linecap="round" stroke-linejoin="round" stroke-width="1.75" d="M18 29.244v1.931c0 4.059 0 6.088 1.108 7.462a5 5 0 0 0 .754.755C21.235 40.5 23.264 40.5 27.32 40.5c.882 0 1.323 0 1.727-.143.084-.03.166-.063.246-.102.387-.185.698-.497 1.322-1.12l5.92-5.924c.723-.723 1.084-1.085 1.275-1.544.19-.46.19-.971.19-1.994v-4.18c0-4.717 0-7.075-1.465-8.54-1.164-1.165-2.892-1.404-5.92-1.453M29.25 39.875v-.626c0-3.537 0-5.306 1.098-6.405 1.099-1.098 2.867-1.098 6.402-1.098h.625"/><path stroke="#2B3B31" stroke-linecap="round" stroke-width="1.75" d="M23 25.216c2.21 0 4-1.832 4-4.091 0-2.26-1.79-4.09-4-4.09m0 8.18c-2.21 0-4-1.83-4-4.09s1.79-4.09 4-4.09m0 8.18v1.535m0-9.716V15.5m-3.636 3.394-1.363-.837M28 24.193l-1.363-.837m-.001-4.462L28 18.057m-10 6.136 1.364-.837"/></svg>