<svg xmlns="http://www.w3.org/2000/svg" width="56" height="56" fill="none"><rect width="56" height="56" fill="#F7F8F7" rx="12"/><path stroke="#2B3B31" stroke-linecap="round" stroke-linejoin="round" stroke-width="1.75" d="M23.625 31.125h8.75m-8.75-6.25H28"/><path stroke="#2B3B31" stroke-linejoin="round" stroke-width="1.75" d="M30.713 39.113c5.229-.347 9.394-4.572 9.737-9.874a24.711 24.711 0 0 0 0-3.15c-.343-5.303-4.508-9.528-9.737-9.875a41.496 41.496 0 0 0-5.426 0c-5.229.347-9.394 4.572-9.737 9.874a24.674 24.674 0 0 0 0 3.15c.125 1.932.98 3.72 1.985 5.23.584 1.057.198 2.377-.41 3.53-.438.83-.657 1.246-.482 1.546.177.3.57.31 1.356.329 1.556.038 2.604-.403 3.437-1.017.472-.348.708-.523.87-.543.163-.02.484.112 1.124.376a6.091 6.091 0 0 0 1.857.424 41.46 41.46 0 0 0 5.426 0Z"/></svg>