<svg xmlns="http://www.w3.org/2000/svg" width="56" height="56" fill="none"><rect width="56" height="56" fill="#F7F8F7" rx="12"/><path stroke="#2B3B31" stroke-linejoin="round" stroke-width="1.75" d="M16.08 24.68c-.31 0-.594-.252-.58-.58.084-1.928.319-3.183.975-4.176a5.825 5.825 0 0 1 1.386-1.468c1.459-1.08 3.516-1.08 7.63-1.08h5.018c4.114 0 6.171 0 7.63 1.08.539.4 1.008.897 1.386 1.468.657.993.89 2.247.974 4.175.015.33-.27.581-.58.581-1.732 0-3.137 1.487-3.137 3.32 0 1.834 1.405 3.32 3.137 3.32.31 0 .595.253.58.582-.083 1.928-.318 3.182-.974 4.175a5.824 5.824 0 0 1-1.386 1.468c-1.459 1.08-3.516 1.08-7.63 1.08h-5.018c-4.114 0-6.171 0-7.63-1.08a5.826 5.826 0 0 1-1.386-1.468c-.657-.993-.89-2.248-.975-4.175-.014-.33.27-.581.58-.581 1.733 0 3.137-1.487 3.137-3.32 0-1.834-1.404-3.32-3.137-3.32Z"/><path stroke="#2B3B31" stroke-linecap="round" stroke-linejoin="round" stroke-width="1.75" d="M24.25 17.375v21.25"/></svg>