<svg xmlns="http://www.w3.org/2000/svg" width="56" height="56" fill="none"><rect width="56" height="56" fill="#F7F8F7" rx="12"/><path stroke="#2B3B31" stroke-linecap="round" stroke-width="1.75" d="M16.75 28c0 2.071 4.477 3.75 10 3.75.423 0 .84-.01 1.25-.029"/><path stroke="#2B3B31" stroke-linecap="round" stroke-width="1.75" d="M36.75 19.25v8.125m-20-8.125v17.5c0 2.071 4.477 3.75 10 3.75.423 0 .84-.01 1.25-.029"/><path stroke="#2B3B31" stroke-width="1.75" d="M26.75 23c5.523 0 10-1.679 10-3.75 0-2.071-4.477-3.75-10-3.75s-10 1.679-10 3.75c0 2.071 4.477 3.75 10 3.75Z"/><path stroke="#2B3B31" stroke-linecap="round" stroke-width="1.75" d="M21.75 23v2.5m0 6.25v2.5"/><path stroke="#2B3B31" stroke-linecap="round" stroke-linejoin="round" stroke-width="1.75" d="m37.983 30.5.625 2.605-1.037-.647a4.368 4.368 0 0 0-2.652-.894c-2.44 0-4.419 2-4.419 4.468s1.978 4.468 4.42 4.468c2.137 0 3.92-1.535 4.33-3.574"/></svg>