<svg xmlns="http://www.w3.org/2000/svg" width="56" height="56" fill="none"><rect width="56" height="56" fill="#F7F8F7" rx="12"/><path stroke="#000" stroke-linecap="round" stroke-linejoin="round" stroke-width="1.75" d="M16.125 36.017V26.99c0-1.661 0-2.492.748-2.698.749-.207 1.63.38 3.391 1.555L36.231 36.49c1.762 1.174 2.643 1.761 2.333 2.26-.31.499-1.556.499-4.047.499H20.974c-2.286 0-3.429 0-4.139-.473-.71-.474-.71-1.236-.71-2.76Zm7.5-9.267a5 5 0 1 0 0-10 5 5 0 0 0 0 10Zm8.75-1.256 7.38 4.23m0 0c.4-.424-.277-1.65-.847-3.315m.846 3.315c-.276.3-1.177.375-3.302.773"/></svg>