<svg xmlns="http://www.w3.org/2000/svg" width="56" height="56" fill="none"><rect width="56" height="56" fill="#F7F8F7" rx="12"/><path stroke="#2B3B31" stroke-linecap="round" stroke-linejoin="round" stroke-width="1.75" d="M18 28v3.18c0 4.057 0 6.085 1.108 7.459.223.277.476.53.754.754 1.373 1.108 3.402 1.108 7.458 1.108.882 0 1.323 0 1.727-.143a2.49 2.49 0 0 0 .246-.102c.387-.185.698-.496 1.322-1.12l5.92-5.92c.723-.723 1.084-1.085 1.275-1.544.19-.46.19-.97.19-1.992V25.5c0-4.713 0-7.07-1.465-8.535-1.323-1.324-3.377-1.45-7.242-1.463m-.043 24.374v-.625c0-3.536 0-5.304 1.098-6.402 1.099-1.098 2.867-1.098 6.402-1.098h.625M28 20.499H18m5-5v10"/></svg>