<svg xmlns="http://www.w3.org/2000/svg" width="56" height="56" fill="none"><rect width="56" height="56" fill="#F7F8F7" rx="12"/><path stroke="#2B3B31" stroke-linecap="round" stroke-linejoin="round" stroke-width="1.75" d="M28 21.75a6.25 6.25 0 1 0 0 12.5 6.25 6.25 0 0 0 0-12.5Zm7.17-.92 4.705-4.705m-4.704 4.704c-.55-.55-.192-2.802-.05-4.079m.05 4.08c.55.549 2.802.19 4.079.05M20.83 35.17l-4.705 4.705m4.704-4.704c-.55-.55-2.802-.192-4.079-.05m4.08.05c.549.55.19 2.802.05 4.079m14.29-4.08 4.705 4.705m-4.704-4.704c.55-.55 2.802-.192 4.079-.05m-4.08.05c-.549.55-.19 2.802-.05 4.079M20.83 20.83l-4.705-4.705m4.704 4.704c.55-.55.192-2.802.05-4.079m-.05 4.08c-.55.549-2.802.19-4.079.05"/></svg>