<svg xmlns="http://www.w3.org/2000/svg" width="56" height="56" fill="none"><rect width="56" height="56" fill="#F7F8F7" rx="12"/><path stroke="#000" stroke-linecap="round" stroke-linejoin="round" stroke-width="1.75" d="M23.336 39.667h-2.333c-2.2 0-3.3 0-3.984-.684-.683-.683-.683-1.783-.683-3.983v-2.333c0-2.2 0-3.3.683-3.984C17.703 28 18.803 28 21.003 28h2.333c2.2 0 3.3 0 3.983.683.684.684.684 1.784.684 3.984V35c0 2.2 0 3.3-.684 3.983-.683.684-1.783.684-3.983.684ZM21 31.5h2.333"/><path stroke="#000" stroke-linejoin="round" stroke-width="1.75" d="M35.003 16.334c-2.578 0-4.667 2.11-4.667 4.714 0 1.488.583 2.646 1.75 3.68.822.728 1.819 1.939 2.417 2.92.286.47.692.47 1 0 .628-.962 1.594-2.192 2.416-2.92 1.167-1.034 1.75-2.192 1.75-3.68 0-2.604-2.09-4.714-4.666-4.714Z"/><path stroke="#000" stroke-linecap="round" stroke-linejoin="round" stroke-width="1.75" d="M35 31.5V35c0 2.2 0 3.3-.547 3.983-.522.653-1.348.682-2.953.684M35.01 21H35"/></svg>