<svg xmlns="http://www.w3.org/2000/svg" width="56" height="56" fill="none"><rect width="56" height="56" fill="#F7F8F7" rx="12"/><path stroke="#000" stroke-linecap="round" stroke-linejoin="round" stroke-width="1.75" d="M26.758 39.25h-1.751c-4.482 0-6.723 0-8.115-1.419C15.5 36.413 15.5 34.13 15.5 29.562c0-4.566 0-6.85 1.392-8.268 1.393-1.419 3.633-1.419 8.115-1.419h4.753c4.482 0 6.723 0 8.115 1.419 1.071 1.091 1.318 2.695 1.375 5.456"/><path stroke="#000" stroke-linecap="round" stroke-linejoin="round" stroke-width="1.75" d="m36.563 36.563-1.688-1.126v-2.812m-5.625 2.25a5.625 5.625 0 1 0 11.25 0 5.625 5.625 0 0 0-11.25 0Zm3.75-15-.124-.386c-.619-1.925-.928-2.888-1.665-3.439-.736-.55-1.715-.55-3.671-.55h-.33c-1.956 0-2.934 0-3.671.55-.737.551-1.046 1.514-1.665 3.439l-.124.386"/></svg>