<svg xmlns="http://www.w3.org/2000/svg" width="56" height="56" fill="none"><rect width="56" height="56" fill="#F7F8F7" rx="12"/><path stroke="#2B3B31" stroke-width="1.75" d="M16.75 18.625c0-1.035.84-1.875 1.875-1.875h2.5c1.035 0 1.875.84 1.875 1.875v2.5C23 22.16 22.16 23 21.125 23h-2.5a1.875 1.875 0 0 1-1.875-1.875v-2.5Zm0 16.25c0-1.035.84-1.875 1.875-1.875h2.5C22.16 33 23 33.84 23 34.875v2.5c0 1.035-.84 1.875-1.875 1.875h-2.5a1.875 1.875 0 0 1-1.875-1.875v-2.5Z"/><path stroke="#2B3B31" stroke-linecap="round" stroke-linejoin="round" stroke-width="1.75" d="M23.002 36.125h16.25m-6.25-16.25h-10m10.404 2.72L22.563 33.44"/><path stroke="#2B3B31" stroke-width="1.75" d="M33 18.625c0-1.035.84-1.875 1.875-1.875h2.5c1.035 0 1.875.84 1.875 1.875v2.5c0 1.035-.84 1.875-1.875 1.875h-2.5A1.875 1.875 0 0 1 33 21.125v-2.5Z"/><path stroke="#2B3B31" stroke-linecap="round" stroke-linejoin="round" stroke-width="1.75" d="m35.5 39.25 1.735-1.183c1.343-.915 2.015-1.373 2.015-1.942s-.672-1.027-2.015-1.942L35.5 33"/></svg>