<svg xmlns="http://www.w3.org/2000/svg" width="56" height="56" fill="none"><rect width="56" height="56" fill="#F7F8F7" rx="12"/><path stroke="#2B3B31" stroke-width="1.75" d="M32.375 28a4.375 4.375 0 1 1-8.75 0 4.375 4.375 0 0 1 8.75 0Z"/><path stroke="#2B3B31" stroke-linecap="round" stroke-width="1.75" d="M39.264 30.621c.652-.176.978-.264 1.107-.432.129-.168.129-.439.129-.98v-2.417c0-.541 0-.812-.129-.98-.129-.168-.455-.256-1.107-.432-2.438-.658-3.964-3.206-3.335-5.628.173-.667.26-1 .177-1.195-.083-.195-.32-.33-.794-.6l-2.156-1.223c-.465-.264-.698-.397-.906-.368-.21.028-.445.263-.916.733-1.824 1.82-4.842 1.82-6.666 0-.471-.47-.707-.705-.916-.733-.208-.029-.441.104-.906.368l-2.156 1.224c-.474.269-.711.404-.794.599-.083.195.004.528.177 1.194.629 2.422-.898 4.971-3.337 5.629-.652.176-.978.264-1.107.432-.129.168-.129.439-.129.98v2.417c0 .541 0 .812.129.98.129.168.455.256 1.107.432 2.438.658 3.964 3.206 3.335 5.628-.173.666-.26 1-.177 1.195.083.195.32.33.794.599l2.156 1.224c.465.264.698.396.906.368.21-.028.445-.263.916-.733 1.825-1.821 4.845-1.821 6.67 0 .471.47.707.705.916.733.208.028.441-.104.906-.368l2.156-1.224c.474-.27.712-.404.794-.6.083-.195-.004-.528-.177-1.194-.63-2.422.895-4.97 3.333-5.628Z"/></svg>