<svg xmlns="http://www.w3.org/2000/svg" width="56" height="56" fill="none"><rect width="56" height="56" fill="#F7F8F7" rx="12"/><path stroke="#000" stroke-linecap="round" stroke-linejoin="round" stroke-width="1.75" d="M28 40.5c6.904 0 12.5-5.596 12.5-12.5S34.904 15.5 28 15.5 15.5 21.096 15.5 28 21.096 40.5 28 40.5Z"/><path stroke="#000" stroke-linecap="round" stroke-linejoin="round" stroke-width="1.75" d="M23 31.75a6.24 6.24 0 0 0 5 2.5 6.24 6.24 0 0 0 5-2.5M31.75 23s-1.25 1.25-1.25 2.5a2.344 2.344 0 0 1 3.75 0m-10-2.5s1.25 1.25 1.25 2.5a2.344 2.344 0 0 0-3.75 0"/></svg>