<svg xmlns="http://www.w3.org/2000/svg" width="56" height="56" fill="none"><rect width="56" height="56" fill="#F7F8F7" rx="12"/><path stroke="#2B3B31" stroke-linecap="round" stroke-linejoin="round" stroke-width="1.5" d="M31.75 25.5a3.75 3.75 0 1 0-7.5 0 3.75 3.75 0 0 0 7.5 0Z"/><path stroke="#2B3B31" stroke-linecap="round" stroke-linejoin="round" stroke-width="1.5" d="M34.25 35.5a6.25 6.25 0 0 0-12.5 0"/><path stroke="#2B3B31" stroke-linecap="square" stroke-linejoin="round" stroke-width="1.5" d="M39.25 29.25v-2.5c0-4.714 0-7.07-1.465-8.535-1.464-1.465-3.821-1.465-8.535-1.465h-2.5c-4.714 0-7.071 0-8.535 1.465-1.465 1.464-1.465 3.821-1.465 8.535v2.5c0 4.715 0 7.072 1.465 8.536 1.464 1.465 3.821 1.465 8.535 1.465h2.5c4.714 0 7.071 0 8.535-1.465 1.465-1.464 1.465-3.822 1.465-8.536Z"/></svg>