<svg xmlns="http://www.w3.org/2000/svg" width="56" height="56" fill="none"><rect width="56" height="56" fill="#F7F8F7" rx="12"/><path stroke="#2B3B31" stroke-linecap="round" stroke-linejoin="round" stroke-width="1.75" d="M33.763 35.075 32.375 40.5l3.125-1.25 3.125 1.25-1.25-5.5m1.875-3.249a3.75 3.75 0 1 1-7.5 0 3.75 3.75 0 0 1 7.5 0Z"/><path stroke="#2B3B31" stroke-linecap="round" stroke-linejoin="round" stroke-width="1.75" d="M38 25.5c0-4.714 0-7.07-1.465-8.535-1.464-1.464-3.821-1.464-8.535-1.464h-1.25c-4.714 0-7.071 0-8.535 1.464-1.465 1.464-1.465 3.821-1.465 8.535v5c0 4.715 0 7.072 1.464 8.536 1.465 1.465 3.822 1.465 8.536 1.465h2.5M22.375 21.75h10m-10 6.25H28"/></svg>