<svg xmlns="http://www.w3.org/2000/svg" width="56" height="56" fill="none"><rect width="56" height="56" fill="#F7F8F7" rx="12"/><path stroke="#2B3B31" stroke-linecap="round" stroke-width="1.75" d="M23.625 33.625A5.049 5.049 0 0 1 28 31.1a5.049 5.049 0 0 1 4.375 2.525M30.5 25.5a2.5 2.5 0 1 1-5 0 2.5 2.5 0 0 1 5 0Z"/><path stroke="#2B3B31" stroke-linecap="round" stroke-linejoin="round" stroke-width="1.75" d="M40.5 30.459V25.54c-3.57 0-5.893-3.878-4.085-6.957l-4.33-2.459c-1.83 3.118-6.338 3.117-8.168 0l-4.33 2.459c1.808 3.079-.516 6.957-4.087 6.957v4.918c3.57 0 5.893 3.878 4.085 6.957l4.33 2.459c1.831-3.119 6.34-3.12 8.172 0l4.33-2.459c-1.808-3.079.512-6.957 4.083-6.957Z"/></svg>