<svg xmlns="http://www.w3.org/2000/svg" width="56" height="56" fill="none"><rect width="56" height="56" fill="#F7F8F7" rx="12"/><path stroke="#000" stroke-linecap="round" stroke-linejoin="round" stroke-width="1.75" d="M33.83 24.515h.01m0-2.337v-2.922m5.828 2.669c0 3.087-2.614 5.59-5.838 5.59-.38 0-.757-.034-1.13-.104-.267-.05-.401-.076-.495-.062-.093.015-.226.085-.491.227a3.79 3.79 0 0 1-2.466.383c.32-.393.538-.866.634-1.372.059-.31-.086-.61-.303-.83a5.446 5.446 0 0 1-1.587-3.832c0-3.088 2.614-5.591 5.838-5.591s5.838 2.503 5.838 5.59ZM22.755 39.666h-3.248c-.377 0-.756-.053-1.102-.202-1.128-.484-1.7-1.124-1.967-1.524a.632.632 0 0 1 .035-.737c1.306-1.735 4.336-2.783 6.282-2.784m.005 5.247h3.248c.377 0 .756-.053 1.102-.202 1.128-.484 1.7-1.124 1.967-1.524a.632.632 0 0 0-.035-.737c-1.306-1.735-4.335-2.783-6.282-2.784m3.242-6.083a3.238 3.238 0 0 1-3.242 3.235 3.238 3.238 0 0 1-3.242-3.235 3.238 3.238 0 0 1 3.242-3.234 3.238 3.238 0 0 1 3.242 3.234Z"/></svg>