<svg xmlns="http://www.w3.org/2000/svg" width="56" height="56" fill="none"><rect width="56" height="56" fill="#F7F8F7" rx="12"/><path stroke="#000" stroke-linecap="round" stroke-linejoin="round" stroke-width="1.75" d="M34.248 21.908A5.006 5.006 0 0 1 40.5 26.75a5 5 0 0 1-6.283 4.834m.03-9.676a5 5 0 0 0-9.885-1.22m9.886 1.22a4.974 4.974 0 0 1-.667 2.342m.636 7.334a3.126 3.126 0 0 0-2.467-3.521m2.467 3.52a3.126 3.126 0 0 1-3.092 2.667H30.5a5 5 0 0 0-5 5m-1.137-18.562a5 5 0 0 0-6.165 6.211m6.165-6.211A5.012 5.012 0 0 1 27.331 23m-9.133 3.9a3.752 3.752 0 0 0 1.052 7.35 3.752 3.752 0 0 0 3.537-2.5m-4.588-4.85c.112.388.271.757.47 1.1"/><path stroke="#000" stroke-linecap="round" stroke-width="1.75" d="M27.794 27.68c-.638.614-1.73.72-2.662.196-.932-.524-1.408-1.511-1.214-2.376"/></svg>