<svg xmlns="http://www.w3.org/2000/svg" width="56" height="56" fill="none"><rect width="56" height="56" fill="#F7F8F7" rx="12"/><path stroke="#2B3B31" stroke-linecap="round" stroke-linejoin="round" stroke-width="1.75" d="M36.75 18h-17.5c-1.165 0-1.747 0-2.207.19a2.5 2.5 0 0 0-1.353 1.353c-.19.46-.19 1.042-.19 2.207 0 1.165 0 1.747.19 2.207a2.5 2.5 0 0 0 1.353 1.353c.46.19 1.042.19 2.207.19h17.5c1.165 0 1.747 0 2.207-.19a2.5 2.5 0 0 0 1.353-1.353c.19-.46.19-1.042.19-2.207 0-1.165 0-1.747-.19-2.207a2.5 2.5 0 0 0-1.353-1.353c-.46-.19-1.042-.19-2.207-.19Zm0 12.5h-17.5c-1.165 0-1.747 0-2.207.19a2.5 2.5 0 0 0-1.353 1.353c-.19.46-.19 1.042-.19 2.207 0 1.165 0 1.747.19 2.207a2.5 2.5 0 0 0 1.353 1.353c.46.19 1.042.19 2.207.19h17.5c1.165 0 1.747 0 2.207-.19a2.5 2.5 0 0 0 1.353-1.353c.19-.46.19-1.042.19-2.207 0-1.165 0-1.747-.19-2.207a2.5 2.5 0 0 0-1.353-1.353c-.46-.19-1.042-.19-2.207-.19ZM20.5 34.25h.012m4.988 0h.012M20.5 21.75h.012m4.988 0h.012"/></svg>