<svg xmlns="http://www.w3.org/2000/svg" width="56" height="56" fill="none"><rect width="56" height="56" fill="#F7F8F7" rx="12"/><path stroke="#000" stroke-linecap="round" stroke-linejoin="round" stroke-width="1.75" d="M28 40.5c6.904 0 12.5-5.596 12.5-12.5S34.904 15.5 28 15.5 15.5 21.096 15.5 28 21.096 40.5 28 40.5Z"/><path stroke="#000" stroke-linecap="round" stroke-linejoin="round" stroke-width="1.75" d="M21.75 24.25c.262.728.968 1.25 1.799 1.25.83 0 1.537-.522 1.799-1.25m5.304 0c.262.728.968 1.25 1.799 1.25.83 0 1.537-.522 1.799-1.25M23 31.75a6.24 6.24 0 0 0 5 2.5 6.24 6.24 0 0 0 5-2.5"/></svg>