<svg xmlns="http://www.w3.org/2000/svg" width="56" height="56" fill="none"><rect width="56" height="56" fill="#F7F8F7" rx="12"/><path stroke="#000" stroke-linecap="round" stroke-width="1.75" d="M21.734 17.626c3.497 3.868 9.263-4.48 12.674-1.45 1.963 1.743 1.343 5.592-1.206 8.1"/><path stroke="#000" stroke-linecap="round" stroke-linejoin="round" stroke-width="1.75" d="M30.24 30.48c.022-.418.14-1.183-.497-1.764m0 0a2.385 2.385 0 0 0-.832-.472c-1.31-.462-2.92 1.084-1.781 2.5.612.76 1.084.994 1.04 1.858-.032.608-.629 1.242-1.415 1.484-.684.21-1.438-.068-1.914-.6-.583-.651-.524-1.264-.529-1.532m5.431-3.238.718-.718m-5.569 5.568-.681.682"/><path stroke="#000" stroke-linecap="round" stroke-width="1.75" d="M35.84 21.29c1.158.223 1.417.954 1.762 2.98.312 1.826.399 4.017.399 4.95a1.65 1.65 0 0 1-.398.926c-2.42 2.535-7.22 7.322-9.643 9.7-.95.85-2.385.868-3.395.089-2.066-1.86-4.051-3.96-5.996-5.858-.782-1.006-.763-2.436.088-3.385 2.563-2.659 7.201-7.21 9.82-9.724a1.66 1.66 0 0 1 .928-.398c.588 0 1.596.08 2.577.136"/></svg>