<svg xmlns="http://www.w3.org/2000/svg" width="56" height="56" fill="none"><rect width="56" height="56" fill="#F7F8F7" rx="12"/><path stroke="#2B3B31" stroke-width="1.75" d="M34.25 40.5a6.25 6.25 0 1 0 0-12.5 6.25 6.25 0 0 0 0 12.5ZM22.375 29.25H21c-2.593 0-3.89 0-4.695-.805-.805-.805-.805-2.102-.805-4.695V21c0-2.592 0-3.889.805-4.694.806-.806 2.102-.806 4.695-.806h2.75c2.593 0 3.89 0 4.695.806.805.805.805 2.102.805 4.694v1.375"/><path stroke="#2B3B31" stroke-width="1.75" d="M28.044 36.75a7.552 7.552 0 1 1 8.706-8.707"/></svg>