<svg xmlns="http://www.w3.org/2000/svg" width="44" height="43" fill="none"><g filter="url(#a)"><path fill="#388F6B" d="m25.616 16.144-.162-7.873a1.311 1.311 0 0 1 2.221-.975l8.036 7.712a1.312 1.312 0 0 1-.883 2.26l-7.873.161a1.312 1.312 0 0 1-1.34-1.285Zm-8.997 9.375-7.873.162a1.312 1.312 0 0 0-.882 2.26l8.035 7.71a1.312 1.312 0 0 0 2.221-.974l-.162-7.873a1.312 1.312 0 0 0-1.339-1.285Zm.126-18.282a1.313 1.313 0 0 0-1.424.313l-7.712 8.036a1.313 1.313 0 0 0 .975 2.221l7.873-.162a1.313 1.313 0 0 0 1.285-1.339l-.162-7.873a1.312 1.312 0 0 0-.835-1.196ZM34.99 25.141l-7.873.162a1.312 1.312 0 0 0-1.285 1.339l.162 7.873a1.312 1.312 0 0 0 2.26.883l7.71-8.036a1.313 1.313 0 0 0-.974-2.221Z"/></g><defs><filter id="a" width="29.09" height="30.088" x="7.242" y="6.93" color-interpolation-filters="sRGB" filterUnits="userSpaceOnUse"><feFlood flood-opacity="0" result="BackgroundImageFix"/><feBlend in="SourceGraphic" in2="BackgroundImageFix" result="shape"/><feColorMatrix in="SourceAlpha" result="hardAlpha" values="0 0 0 0 0 0 0 0 0 0 0 0 0 0 0 0 0 0 127 0"/><feOffset dy="1"/><feGaussianBlur stdDeviation="1"/><feComposite in2="hardAlpha" k2="-1" k3="1" operator="arithmetic"/><feColorMatrix values="0 0 0 0 0 0 0 0 0 0 0 0 0 0 0 0 0 0 0.2 0"/><feBlend in2="shape" result="effect1_innerShadow_400_2185"/></filter></defs></svg>