<svg xmlns="http://www.w3.org/2000/svg" width="56" height="56" fill="none"><rect width="56" height="56" fill="#F7F8F7" rx="12"/><path stroke="#000" stroke-width="1.75" d="M32.375 29.25c4.487 0 8.125-1.12 8.125-2.5s-3.638-2.5-8.125-2.5-8.125 1.12-8.125 2.5 3.638 2.5 8.125 2.5Zm8.125 3.125c0 1.38-3.638 2.5-8.125 2.5s-8.125-1.12-8.125-2.5"/><path stroke="#000" stroke-width="1.75" d="M40.5 26.75v11c0 1.519-3.638 2.75-8.125 2.75s-8.125-1.231-8.125-2.75v-11m-.625-6.25c4.487 0 8.125-1.12 8.125-2.5s-3.638-2.5-8.125-2.5S15.5 16.62 15.5 18s3.638 2.5 8.125 2.5Z"/><path stroke="#000" stroke-linecap="round" stroke-width="1.75" d="M20.5 26.75c-2.365-.288-4.538-1.032-5-2.5m5 8.75c-2.365-.288-4.538-1.032-5-2.5"/><path stroke="#000" stroke-linecap="round" stroke-width="1.75" d="M20.5 39.25c-2.365-.288-4.538-1.032-5-2.5V18m16.25 2.5V18"/></svg>