<svg xmlns="http://www.w3.org/2000/svg" width="56" height="56" fill="none"><rect width="56" height="56" fill="#F7F8F7" rx="12"/><path stroke="#000" stroke-linejoin="round" stroke-width="1.75" d="M16.125 28c0-5.598 0-8.397 1.739-10.136 1.74-1.739 4.538-1.739 10.136-1.739 5.598 0 8.397 0 10.136 1.739 1.739 1.74 1.739 4.538 1.739 10.136 0 5.598 0 8.397-1.739 10.136-1.74 1.739-4.538 1.739-10.136 1.739-5.598 0-8.397 0-10.136-1.739-1.739-1.74-1.739-4.538-1.739-10.136Z"/><path stroke="#000" stroke-linecap="round" stroke-linejoin="round" stroke-width="1.75" d="M26.75 22.375h7.5m-11.25 0a.625.625 0 1 1-1.25 0 .625.625 0 0 1 1.25 0ZM26.75 28h7.5M23 28a.625.625 0 1 1-1.25 0A.625.625 0 0 1 23 28Zm3.75 5.625h7.5m-11.25 0a.625.625 0 1 1-1.25 0 .625.625 0 0 1 1.25 0Z"/></svg>