<svg xmlns="http://www.w3.org/2000/svg" width="56" height="56" fill="none"><rect width="56" height="56" fill="#F7F8F7" rx="12"/><path stroke="#000" stroke-linecap="round" stroke-linejoin="round" stroke-width="1.75" d="M29.875 37.375v-10c0-1.178 0-1.768-.366-2.134-.366-.366-.956-.366-2.134-.366s-1.768 0-2.134.366c-.366.366-.366.956-.366 2.134v10c0 1.178 0 1.768.366 2.134.366.366.956.366 2.134.366s1.768 0 2.134-.366c.366-.366.366-.956.366-2.134Zm8.75-8.75v8.75c0 1.178 0 1.768-.366 2.134-.366.366-.956.366-2.134.366s-1.768 0-2.134-.366c-.366-.366-.366-.956-.366-2.134v-8.75m1.172-4.167v-6.666m1.953 0v-1.667m0 10v-1.667m-1.953-3.333h3.906m0 0c.647 0 1.172.56 1.172 1.25v.833c0 .69-.525 1.25-1.172 1.25h-5.078m5.078-3.333c.647 0 1.172-.56 1.172-1.25v-.833c0-.69-.525-1.25-1.172-1.25h-5.078m-12.5 19.583v-6.25c0-1.178 0-1.768-.366-2.134-.366-.366-.956-.366-2.134-.366s-1.768 0-2.134.366c-.366.366-.366.956-.366 2.134v6.25c0 1.178 0 1.768.366 2.134.366.366.956.366 2.134.366s1.768 0 2.134-.366c.366-.366.366-.956.366-2.134Z"/></svg>