<svg xmlns="http://www.w3.org/2000/svg" width="56" height="56" fill="none"><rect width="56" height="56" fill="#F7F8F7" rx="12"/><path stroke="#2B3B31" stroke-linecap="round" stroke-linejoin="round" stroke-width="1.75" d="M24.25 29.25s1.25 0 2.5 2.5c0 0 3.97-6.25 7.5-7.5"/><path stroke="#2B3B31" stroke-linecap="round" stroke-width="1.75" d="M39.25 26.98v-3.63c0-2.05 0-3.075-.505-3.743-.505-.67-1.647-.994-3.932-1.643a30.732 30.732 0 0 1-4.035-1.466C29.279 15.833 28.53 15.5 28 15.5c-.53 0-1.28.333-2.778.998a30.73 30.73 0 0 1-4.035 1.466c-2.285.65-3.427.974-3.932 1.643-.505.668-.505 1.693-.505 3.743v3.63c0 7.03 6.328 11.25 9.492 12.92.76.4 1.139.6 1.758.6.62 0 .999-.2 1.758-.6 3.164-1.67 9.492-5.89 9.492-12.92Z"/></svg>