<svg xmlns="http://www.w3.org/2000/svg" width="56" height="56" fill="none"><rect width="56" height="56" fill="#F7F8F7" rx="12"/><path stroke="#2B3B31" stroke-linecap="round" stroke-width="1.75" d="m34.822 24.35-.363-.642c-.276-.486-.413-.729-.647-.825-.234-.097-.5-.02-1.029.132l-.9.258a1.44 1.44 0 0 1-1-.127l-.25-.146a1.495 1.495 0 0 1-.581-.726l-.246-.748c-.162-.495-.243-.742-.436-.884-.192-.142-.448-.142-.96-.142h-.822c-.512 0-.768 0-.96.142-.193.142-.274.39-.436.884l-.246.748a1.495 1.495 0 0 1-.581.726l-.248.146a1.446 1.446 0 0 1-1.002.127l-.9-.258c-.529-.153-.794-.23-1.028-.133-.234.097-.371.34-.647.826l-.364.643c-.258.455-.386.683-.361.925.025.243.197.438.543.829l.76.864c.185.24.317.656.317 1.031 0 .375-.132.792-.317 1.032l-.76.864c-.346.39-.518.586-.543.829-.025.242.104.47.361.925l.364.643c.276.486.413.729.647.825.234.097.5.02 1.029-.132l.9-.258a1.44 1.44 0 0 1 1 .127l.25.146c.264.172.467.427.58.726l.246.748c.162.495.243.742.436.884.192.142.448.142.96.142h.822c.512 0 .768 0 .96-.142.193-.142.274-.39.436-.884l.246-.748c.113-.3.316-.553.581-.726l.248-.146a1.447 1.447 0 0 1 1.002-.127l.9.258c.529.153.794.23 1.028.132.234-.096.372-.34.647-.825l.363-.643c.258-.455.387-.683.362-.925-.025-.243-.197-.438-.543-.829l-.76-.864c-.185-.24-.317-.657-.317-1.032s.132-.791.317-1.03l.76-.865c.346-.391.518-.586.543-.829.026-.242-.103-.47-.361-.925Z"/><path stroke="#2B3B31" stroke-width="1.75" d="M28 30.188a2.188 2.188 0 1 0 0-4.375 2.188 2.188 0 0 0 0 4.375Z"/><path stroke="#2B3B31" stroke-linecap="round" stroke-linejoin="round" stroke-width="1.75" d="M36.75 15.5v3.574A12.46 12.46 0 0 0 28 15.5c-6.904 0-12.5 5.597-12.5 12.5 0 1.778.371 3.47 1.04 5m2.71 7.5v-3.573A12.46 12.46 0 0 0 28 40.501c6.904 0 12.5-5.597 12.5-12.5 0-1.778-.371-3.47-1.04-5"/></svg>