<svg xmlns="http://www.w3.org/2000/svg" width="56" height="56" fill="none"><rect width="56" height="56" fill="#F7F8F7" rx="12"/><path stroke="#000" stroke-linecap="round" stroke-linejoin="round" stroke-width="1.75" d="M26.125 15.5V18m3.75-2.5V18M23 21.125h-2.5m2.5 3.75h-2.5m15-3.75H33m2.5 3.75H33M29.667 18h-3.334c-1.571 0-2.357 0-2.845.488S23 19.762 23 21.333v3.334c0 1.571 0 2.357.488 2.845s1.274.488 2.845.488h3.334c1.571 0 2.357 0 2.845-.488S33 26.238 33 24.667v-3.334c0-1.571 0-2.357-.488-2.845S31.238 18 29.667 18Z"/><path stroke="#000" stroke-linejoin="round" stroke-width="1.75" d="M17.522 40.405c.23.095.52.095 1.103.095.582 0 .874 0 1.103-.095.307-.127.55-.37.677-.677.095-.23.095-.52.095-1.103 0-.582 0-.874-.095-1.103a1.25 1.25 0 0 0-.677-.677c-.23-.095-.52-.095-1.103-.095-.582 0-.874 0-1.103.095a1.25 1.25 0 0 0-.677.677c-.095.23-.095.52-.095 1.103 0 .582 0 .874.095 1.103.127.307.37.55.677.677Zm9.375 0c.23.095.52.095 1.103.095.582 0 .874 0 1.103-.095.307-.127.55-.37.677-.677.095-.23.095-.52.095-1.103 0-.582 0-.874-.095-1.103a1.25 1.25 0 0 0-.677-.677c-.23-.095-.52-.095-1.103-.095-.582 0-.874 0-1.103.095a1.25 1.25 0 0 0-.677.677c-.095.23-.095.52-.095 1.103 0 .582 0 .874.095 1.103.127.307.37.55.677.677Z"/><path stroke="#000" stroke-linecap="round" stroke-linejoin="round" stroke-width="1.75" d="M28 36.75V28m-9.375 8.75c0-1.756 0-2.633.421-3.264.183-.273.417-.507.69-.69.63-.421 1.508-.421 3.264-.421h10c1.756 0 2.633 0 3.264.421.273.183.507.417.69.69.421.63.421 1.508.421 3.264"/><path stroke="#000" stroke-linejoin="round" stroke-width="1.75" d="M36.272 40.405c.23.095.52.095 1.103.095.582 0 .874 0 1.103-.095.307-.127.55-.37.677-.677.095-.23.095-.52.095-1.103 0-.582 0-.874-.095-1.103a1.25 1.25 0 0 0-.677-.677c-.23-.095-.52-.095-1.103-.095-.582 0-.874 0-1.103.095a1.25 1.25 0 0 0-.677.677c-.095.23-.095.52-.095 1.103 0 .582 0 .874.095 1.103.127.307.37.55.677.677Z"/></svg>