<svg xmlns="http://www.w3.org/2000/svg" width="56" height="56" fill="none"><rect width="56" height="56" fill="#F7F8F7" rx="12"/><path stroke="#2B3B31" stroke-width="1.75" d="M21.75 34.875a3.125 3.125 0 1 1-6.25 0 3.125 3.125 0 0 1 6.25 0Zm12.5 0a3.125 3.125 0 1 1-6.25 0 3.125 3.125 0 0 1 6.25 0Z"/><path stroke="#2B3B31" stroke-linecap="round" stroke-linejoin="round" stroke-width="1.75" d="M38 18v13.763c0 1.166 0 1.75.19 2.209.406.98 1.297 1.476 2.31 1.528M18 24.25h2.183c1.08 0 1.62 0 2.114.138.5.14.967.382 1.369.711.397.325.707.767 1.328 1.651.62.884.931 1.326 1.328 1.65.402.33.868.572 1.369.712.494.138 1.034.138 2.114.138h1.945m3.75 0H38"/><path stroke="#2B3B31" stroke-linecap="round" stroke-linejoin="round" stroke-width="1.75" d="M18 31.75V20.5a2.5 2.5 0 0 1 2.5-2.5h3.619a3.75 3.75 0 0 1 2.432.896l4.32 3.681a2.5 2.5 0 0 1 .879 1.903v7.27m-10 3.125H28"/></svg>