<svg xmlns="http://www.w3.org/2000/svg" width="56" height="56" fill="none"><rect width="56" height="56" fill="#F7F8F7" rx="12"/><path stroke="#2B3B31" stroke-linecap="round" stroke-width="1.5" d="m39.569 21.918-.617-1.071c-.467-.81-.7-1.215-1.097-1.376-.397-.162-.846-.035-1.744.22l-1.525.43a2.49 2.49 0 0 1-1.698-.212l-.421-.243a2.5 2.5 0 0 1-.986-1.21l-.417-1.246c-.275-.825-.412-1.238-.739-1.474-.326-.236-.76-.236-1.628-.236h-1.394c-.868 0-1.302 0-1.628.236-.327.236-.464.649-.739 1.474l-.417 1.247a2.5 2.5 0 0 1-.985 1.21l-.421.242a2.491 2.491 0 0 1-1.699.212l-1.525-.43c-.898-.255-1.347-.382-1.744-.22-.397.161-.63.566-1.097 1.376l-.617 1.07c-.437.76-.656 1.14-.613 1.543.042.404.335.73.92 1.38l1.29 1.442c.314.398.538 1.093.538 1.718s-.224 1.32-.539 1.72l-1.289 1.44c-.585.651-.878.977-.92 1.38-.043.405.176.784.613 1.543l.617 1.071c.467.81.7 1.215 1.097 1.376.397.162.846.034 1.744-.22l1.525-.43a2.49 2.49 0 0 1 1.699.212l.42.243c.45.287.795.711.986 1.21l.417 1.246c.275.825.412 1.238.739 1.474.326.236.76.236 1.628.236h1.394c.868 0 1.302 0 1.628-.236.327-.236.464-.649.739-1.474l.417-1.247c.191-.498.536-.922.985-1.21l.421-.242a2.49 2.49 0 0 1 1.699-.212l1.525.43c.898.254 1.347.382 1.744.22.397-.161.63-.566 1.097-1.376l.617-1.07c.437-.76.656-1.14.613-1.543-.042-.404-.335-.73-.92-1.381l-1.29-1.44c-.314-.4-.538-1.095-.538-1.72s.224-1.32.539-1.718l1.289-1.441c.585-.651.878-.977.92-1.38.043-.405-.176-.784-.613-1.543Z"/><path stroke="#2B3B31" stroke-linecap="round" stroke-linejoin="round" stroke-width="1.5" d="m30.578 27.375.625-.625c.551-.551.827-.827 1.189-.712.362.114.419.441.533 1.096a5 5 0 0 1-6.8 5.503m-.625-3.968-.68.68c-.543.543-.814.815-1.173.706-.358-.108-.422-.43-.55-1.07a5 5 0 0 1 6.778-5.62"/></svg>