<svg xmlns="http://www.w3.org/2000/svg" fill="none" viewBox="50.225 24.832 25.88125 25.471999999999998" style="max-height: 500px" width="25.88125" height="25.471999999999998">
<path fill="#05B75C" d="M23.049 23.413V14.7758C23.049 12.9079 21.4245 11.2512 19.5508 11.2512C17.6771 11.2512 16.017 12.8722 16.017 14.7758V23.413H11.508V14.7758C11.508 12.8722 9.92196 11.2512 8.00989 11.2512C6.09781 11.2512 4.51172 12.9079 4.51172 14.7758V23.413H0V7.26583H4.50899V8.4288C5.62664 7.33715 6.81826 6.94766 8.00715 6.94766C9.05358 6.94766 10.1 7.15886 11.1081 7.58126C12.045 8.00366 12.9106 8.60435 13.705 9.34492C13.705 9.38058 13.7406 9.38058 13.7762 9.41623L13.8475 9.34492C14.6035 8.60435 15.4719 8.0064 16.4444 7.58126C17.4552 7.15886 18.5016 6.94766 19.5481 6.94766C21.6765 6.94766 23.6955 7.75955 25.2103 9.20503C26.7252 10.7218 27.5552 12.6939 27.5552 14.7758V23.413H23.0462H23.049Z"/>
<path fill="#05B75C" d="M31.6999 21.2955C30.0782 19.6745 29.1742 17.5598 29.1742 15.3381C29.1742 13.1163 30.0754 11.0016 31.6999 9.38058C33.3243 7.7952 35.4884 6.94766 37.7949 6.94766C39.3098 6.94766 40.6795 7.47703 41.8711 8.53303L42.0519 8.67292V7.26309H46.4157V23.4103H42.0519V22.1403L41.8711 22.3159C40.5727 23.5502 39.0934 23.7257 37.7949 23.7257C35.5213 23.7257 33.3572 22.8782 31.6999 21.2928V21.2955ZM33.5407 15.3381C33.5407 17.664 35.4884 19.6032 37.7977 19.6032C40.107 19.6032 42.0546 17.664 42.0546 15.3381C42.0546 13.0121 40.107 11.0729 37.7977 11.0729C35.4884 11.0729 33.5407 13.0478 33.5407 15.3381Z"/>
<path fill="#05B75C" d="M48.4976 23.413V7.26583H53.0422V8.57143C54.3407 7.30149 56.2884 6.87909 57.5868 6.87909H58.6689L57.5868 11.2869H56.902C54.7735 11.2869 53.0422 12.9079 53.0422 14.8471V23.413H48.4976Z"/>
<path fill="#05B75C" d="M80.1208 23.7998C79.0743 23.7998 77.9923 23.5529 76.9815 23.0949C76.0446 22.7081 75.1762 22.0718 74.3846 21.2626C73.1217 19.9241 72.3657 18.1605 72.1849 16.3255C72.1492 16.0073 72.1136 15.6919 72.1136 15.3381C72.1136 14.6331 72.2205 13.8926 72.4013 13.152C72.7245 11.7422 73.4121 10.4366 74.3846 9.44915C75.105 8.67292 75.935 8.07497 76.9815 7.58126C77.9539 7.1232 79.0387 6.912 80.1564 6.912C81.274 6.912 82.3561 7.1232 83.3313 7.58126C84.4134 8.07497 85.279 8.70858 85.9282 9.44915C86.8651 10.4366 87.5883 11.7065 87.9471 13.152C88.1279 13.8213 88.1991 14.5262 88.1991 15.3381V16.1499H76.0802L76.1158 16.3968C76.5843 18.5829 78.2799 20.1682 80.1564 20.1682H80.192C81.2384 20.0969 82.3917 19.4633 83.0765 18.8983L83.4737 18.5801L86.4679 21.12L85.9255 21.5781C85.5283 21.9291 85.0242 22.3543 84.4818 22.6368H84.4462C83.1478 23.3774 81.7397 23.7641 80.1536 23.7998H80.118H80.1208ZM76.587 13.0121L76.4418 13.2946H83.9093L83.7641 13.0121C82.9341 11.4953 81.5644 10.5792 80.1564 10.5792C78.7484 10.5792 77.3431 11.531 76.5843 13.0121H76.587Z"/>
<path fill="#05B75C" d="M91.7301 21.3312L91.6945 21.2955C90.1084 19.7102 89.2044 17.5927 89.2044 15.3381C89.2044 13.0834 90.1056 10.9303 91.6945 9.34492C93.3189 7.79246 95.483 6.912 97.8279 6.912C100.173 6.912 102.372 7.7568 103.923 9.34492C104.285 9.69875 104.572 10.0142 104.824 10.3323L105.257 10.9659L101.723 13.5387L101.219 12.8695C100.354 11.7422 99.0907 11.0373 97.8279 11.0373C95.5542 11.0373 93.6065 13.0121 93.6065 15.3381C93.6065 17.664 95.5542 19.6389 97.8279 19.6389C99.0907 19.6389 100.354 18.9339 101.219 17.7353L101.688 17.1017L105.367 19.6745L104.824 20.3438C104.753 20.4507 104.643 20.555 104.537 20.6619C104.356 20.8731 104.139 21.12 103.923 21.3312C102.337 22.8837 100.17 23.7641 97.8279 23.7641C95.4857 23.7641 93.3545 22.8837 91.7328 21.3312H91.7301Z"/>
<path fill="#05B75C" d="M118.453 23.413V14.7758C118.453 12.8722 116.902 11.3911 114.955 11.3911C113.007 11.3911 111.456 12.9079 111.456 14.7758V23.413H106.947V0H111.456V8.4288C112.574 7.33714 113.766 6.94766 114.955 6.94766C117.119 6.94766 119.138 7.75954 120.655 9.20503C122.17 10.7218 123 12.6939 123 14.7758V23.413H118.453Z"/>
<path fill="#05B75C" d="M53.4175 37.5771H72.0451L71.9868 28.0176L62.645 27.9771L53.4175 37.5771Z"/>
<path fill="#05B75C" d="M62.7313 46.6286L72.0451 37.5771H62.7313V46.6286Z"/>
<path fill="#05B75C" d="M55.3751 40.0457L53.9654 46.6286L59.992 44.9429V40.0457H55.3751Z"/>
<path fill="#05B75C" d="M68.5825 10.1047C65.1774 12.0055 61.8053 13.8871 58.4331 15.7687C58.4304 15.7632 58.4277 15.7577 58.4222 15.7522C58.4551 15.7083 58.4879 15.6672 58.5208 15.6233C59.6275 14.1751 60.7315 12.7241 61.8382 11.2759C62.0792 10.9605 62.2135 10.667 62.1806 10.4229C62.1669 10.3186 62.1094 10.2391 62.0436 10.187C61.4026 9.68229 60.7561 9.18583 60.1096 8.68663C60.085 8.66743 60.0631 8.65098 60.0192 8.61806C63.427 6.71726 66.7964 4.83841 70.2042 2.93761L70.0672 3.11863C68.966 4.56412 67.862 6.00961 66.7608 7.45235C66.517 7.77326 66.3855 8.07223 66.4266 8.31361C66.443 8.42058 66.506 8.49738 66.5745 8.55223C67.2155 9.05418 67.8593 9.54789 68.5058 10.0443C68.5277 10.0608 68.5496 10.0773 68.5879 10.1074L68.5825 10.1047Z"/>
<path fill="#05B75C" d="M66.5199 11.5255L66.5172 11.5282L66.5199 11.5365V11.5255Z"/>
<path fill="#05B75C" d="M66.4953 4.73142V1.41805H62.2027V7.12594C63.6327 6.32777 65.0653 5.52685 66.4953 4.73142Z"/>
<path fill="#05B75C" d="M71.2207 19.7157H68.0814C67.287 19.7157 66.4953 18.9038 66.4953 18.0233V11.5392C65.0626 12.3401 63.6299 13.1383 62.2027 13.9337V18.0919C62.2027 19.6443 62.7807 21.0542 63.8984 22.1458C64.9804 23.2046 66.4597 23.8025 68.0458 23.8025H72.374L71.2207 19.7129V19.7157Z"/>
<path fill="#05B75C" d="M77.7978 30.4457C77.7978 28.6279 79.2695 27.1543 81.085 27.1543H119.71C121.525 27.1543 122.997 28.6279 122.997 30.4457V44.7086C122.997 46.5264 121.525 48 119.71 48H81.085C79.2695 48 77.7978 46.5264 77.7978 44.7086V30.4457Z"/>
<path fill="white" d="M81.2059 38.5559C81.2059 37.2202 81.494 36.0605 82.07 35.077C82.6521 34.0873 83.6557 33.5925 85.0806 33.5925C85.6264 33.5925 86.0933 33.6714 86.4814 33.8293C86.8694 33.9871 87.2211 34.3271 87.5364 34.8493H87.5728C87.5486 34.6064 87.5364 34.3636 87.5364 34.1207V30.4414C87.5364 30.0771 87.7184 29.895 88.0822 29.895H89.5375C89.9013 29.895 90.0832 30.0771 90.0832 30.4414V42.7907C90.0832 43.155 89.9013 43.3371 89.5375 43.3371H88.1004C87.7972 43.3371 87.6335 43.155 87.6092 42.7907L87.5728 42.2625H87.5364C87.2211 42.7846 86.8694 43.1246 86.4814 43.2825C86.0933 43.4404 85.6264 43.5193 85.0806 43.5193C83.6557 43.5193 82.6521 43.0275 82.07 42.0439C81.494 41.0543 81.2059 39.8916 81.2059 38.5559ZM83.8982 38.5559C83.8982 39.5273 84.0225 40.3014 84.2711 40.8782C84.5258 41.4489 85.0625 41.7343 85.8811 41.7343C86.3358 41.7343 86.7239 41.4793 87.0453 40.9693C87.3727 40.4532 87.5364 39.7854 87.5364 38.9657V38.1461C87.5364 37.3264 87.3727 36.6616 87.0453 36.1516C86.7239 35.6355 86.3358 35.3775 85.8811 35.3775C85.0625 35.3775 84.5258 35.6659 84.2711 36.2427C84.0225 36.8134 83.8982 37.5845 83.8982 38.5559Z"/>
<path fill="white" d="M92.0478 38.5559C92.0478 37.0198 92.4298 35.8086 93.1939 34.9221C93.9639 34.0357 95.0493 33.5925 96.4501 33.5925C98.0751 33.5925 99.2818 34.0114 100.07 34.8493C100.858 35.6871 101.252 37.035 101.252 38.8929C101.252 39.2571 101.083 39.4393 100.743 39.4393H94.7401C94.8371 40.4471 95.0857 41.0816 95.4859 41.3427C95.8861 41.6037 96.35 41.7343 96.8775 41.7343C97.3808 41.7343 97.7659 41.6675 98.0327 41.5339C98.2995 41.4004 98.5238 41.2182 98.7057 40.9875C98.9119 40.7204 99.1666 40.6779 99.4698 40.86L100.379 41.4155C100.737 41.6341 100.789 41.8952 100.534 42.1987C100.164 42.642 99.7305 42.9729 99.2333 43.1914C98.7361 43.41 97.9508 43.5193 96.8775 43.5193C95.1373 43.5193 93.8972 43.0761 93.1575 42.1896C92.4177 41.3032 92.0478 40.092 92.0478 38.5559ZM94.7492 37.6179H98.7057C98.7057 36.9621 98.542 36.4279 98.2146 36.015C97.8871 35.5961 97.3657 35.3866 96.6502 35.3866C96.0802 35.3866 95.6284 35.587 95.2949 35.9877C94.9614 36.3823 94.7795 36.9257 94.7492 37.6179Z"/>
<path fill="white" d="M102.608 34.485C102.456 34.0114 102.556 33.7746 102.908 33.7746H104.536C104.821 33.7746 105.003 33.9295 105.082 34.2391L106.492 39.5759C106.57 39.8734 106.634 40.1679 106.683 40.4593C106.737 40.7507 106.77 40.9875 106.783 41.1696H106.837C106.849 40.9875 106.88 40.7507 106.928 40.4593C106.983 40.1679 107.049 39.8734 107.128 39.5759L108.538 34.2391C108.617 33.9295 108.799 33.7746 109.084 33.7746H110.712C111.064 33.7746 111.164 34.0114 111.012 34.485L108.374 42.727C108.247 43.1337 108.026 43.3371 107.71 43.3371H105.909C105.594 43.3371 105.373 43.1337 105.245 42.727L102.608 34.485Z"/>
<path fill="white" d="M112.213 42.6996C111.915 42.4871 111.834 42.2595 111.967 42.0166L112.431 41.1696C112.595 40.8661 112.849 40.8296 113.195 41.0604C113.541 41.2911 113.947 41.4611 114.414 41.5704C114.887 41.6796 115.317 41.7343 115.705 41.7343C115.978 41.7343 116.233 41.707 116.469 41.6523C116.706 41.5977 116.906 41.4914 117.07 41.3336C117.233 41.1757 117.315 40.945 117.315 40.6414C117.315 40.4593 117.267 40.3045 117.17 40.177C117.073 40.0495 116.948 39.9523 116.797 39.8855C116.645 39.8187 116.484 39.7641 116.315 39.7216C116.09 39.667 115.766 39.5759 115.341 39.4484C114.923 39.3209 114.52 39.1721 114.132 39.0021C113.81 38.8625 113.495 38.6682 113.186 38.4193C112.883 38.1643 112.658 37.882 112.513 37.5723C112.373 37.2627 112.304 36.8802 112.304 36.4248C112.304 35.8116 112.479 35.2743 112.831 34.8129C113.189 34.3514 113.65 34.0327 114.214 33.8566C114.778 33.6805 115.481 33.5925 116.324 33.5925C116.894 33.5925 117.449 33.6745 117.988 33.8384C118.528 34.0023 118.913 34.1571 119.143 34.3029C119.507 34.5336 119.598 34.7795 119.416 35.0405L118.861 35.8511C118.692 36.0939 118.419 36.1121 118.043 35.9057C117.758 35.7479 117.476 35.6204 117.197 35.5232C116.924 35.4261 116.618 35.3775 116.278 35.3775C116.048 35.3775 115.827 35.4018 115.614 35.4504C115.402 35.4989 115.22 35.59 115.069 35.7236C114.923 35.8571 114.85 36.0332 114.85 36.2518C114.85 36.4825 114.917 36.6646 115.05 36.7982C115.19 36.9257 115.348 37.0198 115.523 37.0805C115.705 37.1413 115.878 37.1989 116.042 37.2536C116.381 37.3629 116.724 37.4691 117.07 37.5723C117.415 37.6695 117.767 37.7879 118.125 37.9275C118.434 38.0489 118.734 38.222 119.025 38.4466C119.316 38.6712 119.528 38.9566 119.662 39.3027C119.795 39.6488 119.862 40.0434 119.862 40.4866C119.862 41.0755 119.686 41.622 119.334 42.1259C118.983 42.6298 118.519 42.988 117.943 43.2005C117.367 43.413 116.697 43.5193 115.933 43.5193C115.078 43.5193 114.35 43.4586 113.75 43.3371C113.149 43.2157 112.637 43.0032 112.213 42.6996Z"/>
</svg>