<svg width="103" height="141" viewBox="0 0 103 141" fill="none" xmlns="http://www.w3.org/2000/svg">
<g filter="url(#filter0_ddddiii_2127_391)">
<rect x="35.875" width="68" height="68" rx="34" transform="rotate(26.4909 35.875 0)" fill="#2B3B31"/>
<g clip-path="url(#clip0_2127_391)">
<path d="M61.061 50.8118C60.9384 51.0579 60.7238 51.2456 60.4644 51.3335C60.205 51.4214 59.9222 51.4026 59.678 51.2809C59.434 51.1593 59.2485 50.9447 59.1626 50.6847C59.0767 50.4247 59.0973 50.1404 59.22 49.8942L63.3511 41.6051C63.4738 41.359 63.6884 41.1714 63.9477 41.0834C64.2071 40.9954 64.49 41.0144 64.7341 41.136C64.9783 41.2577 65.1636 41.4721 65.2495 41.7322C65.3355 41.9922 65.3148 42.2766 65.1922 42.5226L61.061 50.8118ZM57.8791 56.396C57.6963 56.458 52.8398 57.6273 46.5635 54.4993C40.2873 51.3714 38.3122 46.8165 38.2288 46.6217C38.1763 46.4989 38.1485 46.3667 38.147 46.2328C38.1456 46.0987 38.1704 45.9657 38.2202 45.841C38.2699 45.7165 38.3436 45.6028 38.437 45.5065C38.5303 45.4104 38.6416 45.3334 38.7644 45.2803C39.0156 45.1743 39.2977 45.1721 39.5493 45.274C39.8009 45.3761 40.0014 45.5743 40.1073 45.8252C40.1414 45.8902 41.9538 49.914 47.4694 52.6629C52.9848 55.4117 57.3193 54.4321 57.3611 54.4243C57.6267 54.3601 57.9059 54.4024 58.1395 54.5421C58.3732 54.6818 58.5429 54.9079 58.6124 55.1723C58.6767 55.4322 58.6361 55.7078 58.4994 55.9389C58.3628 56.1702 58.1412 56.3386 57.8829 56.4074L57.8791 56.396ZM44.9029 32.4108C45.0397 32.1708 45.2651 31.9944 45.53 31.9201C45.7948 31.8458 46.0774 31.8797 46.3162 32.0143C46.5368 32.1405 46.7026 32.3446 46.7816 32.5872C46.8606 32.8299 46.8472 33.0939 46.7439 33.3283L42.6204 41.6022C42.4978 41.8482 42.2832 42.0359 42.0238 42.1238C41.7644 42.2119 41.4816 42.1929 41.2375 42.0712C40.9933 41.9496 40.8079 41.7352 40.722 41.475C40.6361 41.215 40.6567 40.9307 40.7794 40.6847L44.9029 32.4108ZM50.4379 32.8719C50.5747 32.6319 50.8001 32.4555 51.0649 32.3812C51.3297 32.3069 51.6124 32.3408 51.8511 32.4754C52.0718 32.6016 52.2376 32.8057 52.3165 33.0483C52.3955 33.291 52.3821 33.555 52.2789 33.7894L46.1643 46.0583C46.0416 46.3044 45.827 46.4921 45.5677 46.58C45.3084 46.668 45.0255 46.649 44.7814 46.5273C44.5373 46.4056 44.3518 46.1912 44.2659 45.9312C44.18 45.6712 44.2006 45.3869 44.3233 45.1407L50.4379 32.8719ZM55.3078 34.7246C55.4304 34.4785 55.645 34.2909 55.9044 34.2029C56.1638 34.115 56.4465 34.1339 56.6907 34.2556C56.9348 34.3772 57.1203 34.5917 57.2062 34.8517C57.2921 35.1118 57.2715 35.3961 57.1488 35.6422L50.4992 48.9846C50.3766 49.2306 50.162 49.4183 49.9026 49.5063C49.6432 49.5943 49.3604 49.5753 49.1163 49.4536C48.8721 49.3319 48.6867 49.1176 48.6008 48.8575C48.5149 48.5974 48.5355 48.3131 48.6581 48.067L55.3078 34.7246ZM59.643 37.4596C59.7656 37.2135 59.9802 37.0258 60.2396 36.9379C60.4989 36.8499 60.7817 36.8688 61.026 36.9905C61.27 37.1122 61.4555 37.3266 61.5414 37.5867C61.6272 37.8467 61.6066 38.131 61.4839 38.3771L55.3694 50.6459C55.2467 50.8921 55.0321 51.0797 54.7729 51.1677C54.5135 51.2557 54.2306 51.2367 53.9866 51.115C53.7423 50.9933 53.5569 50.7789 53.4711 50.5189C53.3851 50.2589 53.4057 49.9746 53.5284 49.7284L59.643 37.4596ZM68.8828 35.7466L48.1294 25.4034C47.6787 25.175 47.187 25.0385 46.6825 25.0016C46.178 24.9647 45.6706 25.0282 45.1893 25.1885C44.7081 25.3488 44.2624 25.6027 43.8778 25.9356C43.4933 26.2686 43.1774 26.6741 42.9482 27.1289L32.6298 47.8327C32.4047 48.2894 32.2711 48.7858 32.2367 49.2934C32.2025 49.8008 32.268 50.3096 32.4298 50.7903C32.5916 51.271 32.8464 51.7145 33.1796 52.095C33.5127 52.4757 33.9178 52.786 34.3715 53.0083L55.1249 63.3515C55.5749 63.5795 56.0658 63.7161 56.5696 63.7531C57.0734 63.7903 57.58 63.7272 58.0609 63.5677C58.5416 63.4083 58.987 63.1554 59.3716 62.8234C59.7561 62.4917 60.0724 62.0873 60.3022 61.6337L70.6244 40.9223C70.8492 40.4661 70.9827 39.9705 71.0173 39.4637C71.0518 38.9569 70.9867 38.4489 70.8257 37.9686C70.6647 37.4884 70.4108 37.0453 70.0788 36.6647C69.7467 36.284 69.3429 35.9734 68.8903 35.7503" fill="white"/>
</g>
</g>
<defs>
<filter id="filter0_ddddiii_2127_391" x="-11.5908" y="-3.42675" width="125.459" height="155.158" filterUnits="userSpaceOnUse" color-interpolation-filters="sRGB">
<feFlood flood-opacity="0" result="BackgroundImageFix"/>
<feColorMatrix in="SourceAlpha" type="matrix" values="0 0 0 0 0 0 0 0 0 0 0 0 0 0 0 0 0 0 127 0" result="hardAlpha"/>
<feOffset dy="2.2845"/>
<feGaussianBlur stdDeviation="2.85562"/>
<feColorMatrix type="matrix" values="0 0 0 0 0.168627 0 0 0 0 0.231373 0 0 0 0 0.192157 0 0 0 0.18 0"/>
<feBlend mode="normal" in2="BackgroundImageFix" result="effect1_dropShadow_2127_391"/>
<feColorMatrix in="SourceAlpha" type="matrix" values="0 0 0 0 0 0 0 0 0 0 0 0 0 0 0 0 0 0 127 0" result="hardAlpha"/>
<feOffset dy="11.4225"/>
<feGaussianBlur stdDeviation="5.71124"/>
<feColorMatrix type="matrix" values="0 0 0 0 0.168627 0 0 0 0 0.231373 0 0 0 0 0.192157 0 0 0 0.16 0"/>
<feBlend mode="normal" in2="effect1_dropShadow_2127_391" result="effect2_dropShadow_2127_391"/>
<feColorMatrix in="SourceAlpha" type="matrix" values="0 0 0 0 0 0 0 0 0 0 0 0 0 0 0 0 0 0 127 0" result="hardAlpha"/>
<feOffset dy="25.1295"/>
<feGaussianBlur stdDeviation="7.42462"/>
<feColorMatrix type="matrix" values="0 0 0 0 0.168627 0 0 0 0 0.231373 0 0 0 0 0.192157 0 0 0 0.09 0"/>
<feBlend mode="normal" in2="effect2_dropShadow_2127_391" result="effect3_dropShadow_2127_391"/>
<feColorMatrix in="SourceAlpha" type="matrix" values="0 0 0 0 0 0 0 0 0 0 0 0 0 0 0 0 0 0 127 0" result="hardAlpha"/>
<feOffset dy="43.4055"/>
<feGaussianBlur stdDeviation="8.56687"/>
<feColorMatrix type="matrix" values="0 0 0 0 0.585862 0 0 0 0 0.585862 0 0 0 0 0.585862 0 0 0 0.03 0"/>
<feBlend mode="normal" in2="effect3_dropShadow_2127_391" result="effect4_dropShadow_2127_391"/>
<feBlend mode="normal" in="SourceGraphic" in2="effect4_dropShadow_2127_391" result="shape"/>
<feColorMatrix in="SourceAlpha" type="matrix" values="0 0 0 0 0 0 0 0 0 0 0 0 0 0 0 0 0 0 127 0" result="hardAlpha"/>
<feMorphology radius="3.64432" operator="erode" in="SourceAlpha" result="effect5_innerShadow_2127_391"/>
<feOffset/>
<feComposite in2="hardAlpha" operator="arithmetic" k2="-1" k3="1"/>
<feColorMatrix type="matrix" values="0 0 0 0 0.261373 0 0 0 0 0.358627 0 0 0 0 0.297843 0 0 0 1 0"/>
<feBlend mode="normal" in2="shape" result="effect5_innerShadow_2127_391"/>
<feColorMatrix in="SourceAlpha" type="matrix" values="0 0 0 0 0 0 0 0 0 0 0 0 0 0 0 0 0 0 127 0" result="hardAlpha"/>
<feMorphology radius="1.14225" operator="erode" in="SourceAlpha" result="effect6_innerShadow_2127_391"/>
<feOffset dy="-5.46648"/>
<feGaussianBlur stdDeviation="1.02231"/>
<feComposite in2="hardAlpha" operator="arithmetic" k2="-1" k3="1"/>
<feColorMatrix type="matrix" values="0 0 0 0 0.168627 0 0 0 0 0.231373 0 0 0 0 0.192157 0 0 0 0.24 0"/>
<feBlend mode="normal" in2="effect5_innerShadow_2127_391" result="effect6_innerShadow_2127_391"/>
<feColorMatrix in="SourceAlpha" type="matrix" values="0 0 0 0 0 0 0 0 0 0 0 0 0 0 0 0 0 0 127 0" result="hardAlpha"/>
<feOffset/>
<feGaussianBlur stdDeviation="1.14225"/>
<feComposite in2="hardAlpha" operator="arithmetic" k2="-1" k3="1"/>
<feColorMatrix type="matrix" values="0 0 0 0 0.168627 0 0 0 0 0.231373 0 0 0 0 0.192157 0 0 0 0.25 0"/>
<feBlend mode="normal" in2="effect6_innerShadow_2127_391" result="effect7_innerShadow_2127_391"/>
</filter>
<clipPath id="clip0_2127_391">
<rect width="31.3846" height="30.8435" fill="white" transform="translate(44.5586 23.6235) rotate(26.4909)"/>
</clipPath>
</defs>
</svg>
