<svg width="468" height="468" viewBox="0 0 468 468" fill="none" xmlns="http://www.w3.org/2000/svg">
<path d="M297.648 220.657C306.61 222.88 333.264 199.366 368.191 87.53C376.148 70.1093 392.623 50.9254 424.109 56.7752" stroke="#BCE6D6" stroke-width="12.9041"/>
<path d="M297.648 227.896C306.61 225.673 333.264 249.188 368.191 361.023C376.148 378.444 392.623 397.628 424.109 391.778" stroke="#BCE6D6" stroke-width="12.9041"/>
<path d="M297.648 225.176H424.969" stroke="#BCE6D6" stroke-width="12.9041"/>
<path d="M297.648 225.334C307.111 223.255 331.414 209.505 352.921 171.137C361.524 158.663 379.891 139.694 421.528 142.963" stroke="#BCE6D6" stroke-width="12.9041"/>
<path d="M297.648 224.316C307.111 226.395 331.414 240.145 352.921 278.513C361.524 290.988 379.891 309.956 421.528 306.687" stroke="#BCE6D6" stroke-width="12.9041"/>
<path d="M370.773 147.321C370.773 139.007 377.514 132.267 385.828 132.267C394.143 132.267 400.883 139.007 400.883 147.321C400.883 155.636 394.143 162.376 385.828 162.376C377.514 162.376 370.773 155.636 370.773 147.321Z" fill="white" fill-opacity="0.4"/>
<rect x="374.539" y="136.03" width="22.5822" height="22.5822" rx="11.2911" fill="white" fill-opacity="0.8"/>
<circle cx="385.832" cy="147.321" r="7.5274" fill="url(#paint0_linear_2132_5966)"/>
<path d="M382.387 306.903C382.387 298.588 389.127 291.848 397.442 291.848C405.756 291.848 412.496 298.588 412.496 306.903C412.496 315.217 405.756 321.958 397.442 321.958C389.127 321.958 382.387 315.217 382.387 306.903Z" fill="white" fill-opacity="0.4"/>
<rect x="386.152" y="295.612" width="22.5822" height="22.5822" rx="11.2911" fill="white" fill-opacity="0.8"/>
<circle cx="397.445" cy="306.903" r="7.5274" fill="url(#paint1_linear_2132_5966)"/>
<rect x="420.672" y="32.9048" width="47.2573" height="46.9423" rx="5.86693" fill="#F4F7F5"/>
<rect x="420.672" y="32.9048" width="47.2573" height="46.9423" rx="5.86693" stroke="#E5E6EC"/>
<path d="M459.599 59.6751L456.202 53.792C455.434 52.4619 453.727 52.004 452.396 52.772C452.057 52.9674 451.763 53.2324 451.534 53.5496C451.162 53.3484 450.751 53.2294 450.329 53.2006V42.783C450.329 40.7911 448.709 39.1704 446.717 39.1704H431.554C429.562 39.1704 427.941 40.791 427.941 42.783V68.1791C427.941 70.171 429.562 71.7917 431.554 71.7917H444.122L445.331 72.49C446.592 73.2176 447.945 73.5815 449.297 73.5814C450.65 73.5814 452.001 73.2175 453.26 72.49L456.697 70.506C458.527 69.4503 459.838 67.7401 460.387 65.6907C460.936 63.6414 460.656 61.505 459.599 59.6751ZM431.554 41.2515H446.717C447.561 41.2515 448.248 41.9385 448.248 42.783V53.8817C447.977 54.1091 447.749 54.3842 447.576 54.6935C447.479 54.656 447.379 54.6237 447.278 54.5967C446.52 54.3932 445.73 54.4967 445.055 54.8872C444.805 55.0309 444.578 55.2107 444.381 55.4208L442.395 51.9798C441.586 50.5819 439.79 50.1007 438.389 50.908C436.991 51.7168 436.51 53.5131 437.317 54.9129L442.296 63.5347L442.219 63.4907C441.295 62.9569 440.228 62.8129 439.215 63.0847C438.226 63.3501 437.383 63.9785 436.822 64.8633H430.023V42.783C430.023 41.9386 430.71 41.2515 431.554 41.2515ZM431.554 69.7106C430.71 69.7106 430.023 69.0235 430.023 68.1791V66.9445H436.606C436.788 67.3799 437.108 67.7435 437.517 67.9791L440.516 69.7106H431.554V69.7106ZM458.376 65.1522C457.971 66.6644 457.005 67.9256 455.657 68.7035L452.219 70.6879C450.363 71.7612 448.231 71.761 446.372 70.6876L438.557 66.1767C438.52 66.155 438.506 66.0998 438.528 66.0616C438.808 65.5751 439.243 65.2318 439.754 65.0949C439.91 65.0528 440.071 65.0314 440.233 65.0312C440.511 65.0312 440.836 65.0954 441.178 65.2928L444.619 67.2808C444.818 67.3954 445.048 67.4413 445.275 67.4114C445.502 67.3815 445.713 67.2775 445.875 67.1156C446.037 66.9536 446.141 66.7427 446.171 66.5156C446.201 66.2885 446.155 66.0579 446.041 65.8595L439.12 53.873C438.885 53.4664 439.025 52.9445 439.43 52.7103C439.836 52.476 440.358 52.6157 440.593 53.0212L446.152 62.6505C446.345 62.9845 446.694 63.1712 447.054 63.1712C447.231 63.1712 447.409 63.1263 447.573 63.0317C448.071 62.7445 448.242 62.1081 447.954 61.6104L445.784 57.851L445.783 57.8505L445.783 57.8501C445.671 57.6552 445.642 57.4264 445.701 57.2059C445.76 56.9854 445.9 56.8024 446.096 56.6894C446.29 56.5769 446.519 56.5476 446.739 56.6067C446.96 56.666 447.144 56.8064 447.256 56.9998L449.428 60.7609C449.621 61.0948 449.97 61.2814 450.33 61.2814C450.507 61.2814 450.686 61.2365 450.849 61.1419C451.347 60.8545 451.518 60.2182 451.23 59.7204L449.394 56.5388C449.392 56.5358 449.39 56.5332 449.388 56.5302C449.169 56.1268 449.309 55.6185 449.71 55.3877C450.115 55.1532 450.636 55.2933 450.872 55.7003L451.379 56.5772L451.379 56.5777L452.702 58.8692C452.895 59.2031 453.244 59.3898 453.604 59.3898C453.786 59.3898 453.965 59.3416 454.123 59.2502C454.621 58.963 454.792 58.3266 454.504 57.8288L453.18 55.5343C453.087 55.3739 453.063 55.1848 453.112 55.002C453.161 54.8188 453.277 54.6667 453.437 54.5742C453.773 54.3801 454.205 54.4958 454.399 54.8324L457.797 60.7158C458.576 62.0643 458.781 63.6398 458.376 65.1521L458.376 65.1522ZM438.051 43.485C438.051 42.9103 438.517 42.4444 439.091 42.4444H439.182C439.756 42.4444 440.222 42.9103 440.222 43.485C440.222 44.0597 439.756 44.5256 439.182 44.5256H439.091C438.517 44.5256 438.051 44.0597 438.051 43.485Z" fill="#B3B5C5"/>
<rect x="420.672" y="120.653" width="47.2573" height="46.9423" rx="5.86693" fill="#F4F7F5"/>
<rect x="420.672" y="120.653" width="47.2573" height="46.9423" rx="5.86693" stroke="#E5E6EC"/>
<path d="M436.562 137.757L444.305 142.403L452.047 137.757" stroke="#3E496C" stroke-width="2.58082" stroke-linecap="round" stroke-linejoin="round"/>
<path d="M441.204 156.34H431.913C430.203 156.34 428.816 154.953 428.816 153.243V134.661C428.816 132.951 430.203 131.564 431.913 131.564H456.689C458.4 131.564 459.786 132.951 459.786 134.661V145.279" stroke="#3E496C" stroke-width="2.58082" stroke-linecap="round"/>
<path d="M459.783 151.866H450.027M459.783 151.866L454.905 147.048M459.783 151.866L454.905 156.683" stroke="#3E496C" stroke-width="2.58082" stroke-linecap="round" stroke-linejoin="round"/>
<rect x="420.672" y="202.38" width="47.2573" height="46.9423" rx="5.86693" fill="#F4F7F5"/>
<rect x="420.672" y="202.38" width="47.2573" height="46.9423" rx="5.86693" stroke="#E5E6EC"/>
<path d="M435.699 240.906C435.414 240.906 435.141 240.792 434.939 240.591C434.738 240.389 434.624 240.116 434.624 239.831V234.454H431.398C429.619 234.454 428.172 233.007 428.172 231.228V214.022C428.172 212.244 429.619 210.796 431.398 210.796H457.206C458.985 210.796 460.432 212.244 460.432 214.022V231.228C460.432 233.007 458.985 234.454 457.206 234.454H444.142L436.371 240.67C436.181 240.823 435.944 240.906 435.699 240.906ZM431.398 212.947C430.804 212.947 430.323 213.43 430.323 214.022V231.228C430.323 231.82 430.804 232.303 431.398 232.303H435.699C435.984 232.303 436.258 232.417 436.46 232.618C436.661 232.82 436.775 233.093 436.775 233.379V237.594L443.092 232.539C443.283 232.386 443.52 232.303 443.764 232.303H457.206C457.8 232.303 458.281 231.82 458.281 231.228V214.022C458.281 213.43 457.8 212.947 457.206 212.947H431.398Z" fill="#B3B5C5"/>
<path d="M452.906 221.55H435.7C435.415 221.55 435.142 221.436 434.94 221.235C434.738 221.033 434.625 220.759 434.625 220.474C434.625 220.189 434.738 219.916 434.94 219.714C435.142 219.512 435.415 219.399 435.7 219.399H452.906C453.191 219.399 453.465 219.512 453.666 219.714C453.868 219.916 453.981 220.189 453.981 220.474C453.981 220.759 453.868 221.033 453.666 221.235C453.465 221.436 453.191 221.55 452.906 221.55ZM444.303 225.851H435.7C435.415 225.851 435.142 225.738 434.94 225.536C434.738 225.334 434.625 225.061 434.625 224.776C434.625 224.49 434.738 224.217 434.94 224.015C435.142 223.814 435.415 223.7 435.7 223.7H444.303C444.588 223.7 444.862 223.814 445.063 224.015C445.265 224.217 445.378 224.49 445.378 224.776C445.378 225.061 445.265 225.334 445.063 225.536C444.862 225.738 444.588 225.851 444.303 225.851Z" fill="#B3B5C5"/>
<rect x="420.672" y="282.385" width="47.2573" height="46.9423" rx="5.86693" fill="#F4F7F5"/>
<rect x="420.672" y="282.385" width="47.2573" height="46.9423" rx="5.86693" stroke="#E5E6EC"/>
<path d="M454.297 320.911C454.155 320.911 454.014 320.883 453.883 320.829C453.752 320.774 453.632 320.695 453.532 320.594L445.134 312.193L441.596 318.321C441.494 318.497 441.345 318.641 441.165 318.736C440.986 318.832 440.783 318.874 440.58 318.86C440.377 318.845 440.183 318.773 440.019 318.653C439.855 318.533 439.728 318.369 439.653 318.181L429.331 292.285C429.252 292.088 429.233 291.873 429.276 291.666C429.319 291.459 429.421 291.268 429.571 291.119C429.721 290.969 429.911 290.867 430.118 290.824C430.326 290.781 430.541 290.8 430.737 290.879L456.621 301.205C456.81 301.281 456.974 301.407 457.094 301.571C457.214 301.736 457.285 301.93 457.3 302.133C457.315 302.335 457.272 302.538 457.177 302.718C457.082 302.897 456.938 303.046 456.762 303.148L450.635 306.689L459.033 315.091C459.456 315.514 459.456 316.199 459.033 316.622L455.063 320.594C454.86 320.797 454.585 320.911 454.297 320.911ZM444.902 309.347C445.188 309.347 445.463 309.46 445.668 309.665L454.297 318.298L456.737 315.856L448.107 307.223C447.99 307.105 447.901 306.962 447.848 306.805C447.794 306.648 447.778 306.481 447.799 306.316C447.821 306.152 447.88 305.994 447.973 305.856C448.065 305.718 448.187 305.603 448.331 305.52L453.748 302.39L432.274 293.823L440.837 315.305L443.965 309.888C444.06 309.724 444.197 309.587 444.361 309.492C444.526 309.397 444.712 309.347 444.902 309.347Z" fill="#B1B6C3"/>
<rect x="420.727" y="366.635" width="47.2573" height="46.9423" rx="5.86693" fill="#F4F7F5"/>
<rect x="420.727" y="366.635" width="47.2573" height="46.9423" rx="5.86693" stroke="#E5E6EC"/>
<path d="M455.999 400.691H432.711C431.014 400.691 429.409 400.033 428.191 398.838C426.965 397.633 426.289 396.036 426.289 394.34C426.289 392.644 426.965 391.047 428.191 389.842C429.152 388.899 430.355 388.29 431.653 388.075C431.653 388.047 431.652 388.018 431.652 387.989C431.652 383.319 435.451 379.521 440.121 379.521C441.852 379.521 443.516 380.042 444.933 381.028C445.93 381.722 446.758 382.612 447.374 383.642C448.367 383.026 449.513 382.696 450.706 382.696C453.874 382.696 456.507 385.027 456.981 388.063C458.309 388.267 459.539 388.881 460.518 389.842C461.745 391.047 462.421 392.644 462.421 394.34C462.421 396.036 461.745 397.633 460.518 398.838C459.301 400.033 457.696 400.691 455.999 400.691ZM432.711 390.106C430.337 390.106 428.406 392.005 428.406 394.34C428.406 396.675 430.337 398.574 432.711 398.574H455.999C458.372 398.574 460.304 396.675 460.304 394.34C460.304 392.005 458.372 390.106 455.999 390.106H454.94V389.047C454.94 386.713 453.041 384.813 450.706 384.813C449.593 384.813 448.541 385.245 447.743 386.029L446.603 387.148L446.016 385.663C445.05 383.218 442.736 381.638 440.121 381.638C436.619 381.638 433.769 384.487 433.769 387.989C433.769 388.239 433.809 388.507 433.85 388.792L434.04 390.106H432.711Z" fill="#B1B6C3"/>
<rect x="6.87891" y="10.9683" width="298.085" height="456.806" rx="7.74247" fill="white"/>
<path d="M153.493 320.968C156.375 332.066 166.392 339.814 177.858 339.814H181.717C198.375 339.814 211.879 353.318 211.879 369.976V372.621V384.068C211.879 389.465 207.504 393.84 202.107 393.84H139.849C122.745 393.84 108.879 407.706 108.879 424.81V429.857C108.879 437.49 115.067 443.678 122.699 443.678H138.763C152.178 443.678 163.053 454.553 163.053 467.968" stroke="#ACDFCB" stroke-width="11.6137"/>
<path d="M155.445 320.968C151.534 330.509 142.245 336.741 131.933 336.741H118.116C105.718 336.741 95.6665 346.792 95.6665 359.19" stroke="#ACDFCB" stroke-opacity="0.4" stroke-width="11.6137"/>
<path d="M211.824 370.818L211.894 431.968" stroke="#ACDFCB" stroke-opacity="0.4" stroke-width="11.6137"/>
<rect x="78.8789" y="354.01" width="38.3401" height="10.3614" rx="2.32274" fill="#ACDFCB"/>
<rect x="192.539" y="354.01" width="38.3401" height="10.3614" rx="2.32274" fill="#83D0B4"/>
<rect x="27.5273" y="31.6152" width="59.7891" height="24.0877" rx="5.16165" fill="#57BD93"/>
<g clip-path="url(#clip0_2132_5966)">
<circle cx="39.5697" cy="43.659" r="6.88219" fill="#57BD93"/>
<path fill-rule="evenodd" clip-rule="evenodd" d="M44.2884 48.6686C44.9724 48.0259 45.5173 47.2497 45.8894 46.3881C46.2615 45.5264 46.453 44.5976 46.4519 43.659C46.4519 39.858 43.3708 36.7769 39.5697 36.7769C35.7686 36.7769 32.6875 39.858 32.6875 43.659C32.6864 44.5976 32.8779 45.5264 33.25 46.3881C33.6221 47.2497 34.167 48.0259 34.851 48.6686C36.1264 49.8734 37.8152 50.5436 39.5697 50.5412C41.3242 50.5436 43.013 49.8734 44.2884 48.6686ZM35.4369 47.7615C35.9324 47.1415 36.5613 46.6411 37.2768 46.2975C37.9923 45.9539 38.776 45.7759 39.5697 45.7766C40.3634 45.7759 41.1471 45.9539 41.8626 46.2975C42.5781 46.6411 43.207 47.1415 43.7025 47.7615C43.1619 48.3077 42.5181 48.741 41.8087 49.0364C41.0992 49.3318 40.3382 49.4834 39.5697 49.4824C38.8012 49.4834 38.0402 49.3318 37.3307 49.0364C36.6213 48.741 35.9775 48.3077 35.4369 47.7615ZM42.2167 41.5414C42.2167 42.2435 41.9378 42.9168 41.4414 43.4132C40.945 43.9096 40.2717 44.1884 39.5697 44.1884C38.8677 44.1884 38.1944 43.9096 37.698 43.4132C37.2016 42.9168 36.9227 42.2435 36.9227 41.5414C36.9227 40.8394 37.2016 40.1661 37.698 39.6697C38.1944 39.1733 38.8677 38.8945 39.5697 38.8945C40.2717 38.8945 40.945 39.1733 41.4414 39.6697C41.9378 40.1661 42.2167 40.8394 42.2167 41.5414Z" fill="white"/>
</g>
<rect x="51.6133" y="36.7769" width="25.3781" height="3.4411" rx="1.72055" fill="white"/>
<rect x="51.6133" y="42.7988" width="18.926" height="3.4411" rx="1.72055" fill="white"/>
<rect x="94.1992" y="31.6152" width="59.7891" height="24.0877" rx="5.16165" fill="black" fill-opacity="0.12"/>
<g clip-path="url(#clip1_2132_5966)">
<circle cx="106.242" cy="43.659" r="6.88219" fill="black" fill-opacity="0.12"/>
<path fill-rule="evenodd" clip-rule="evenodd" d="M110.96 48.6686C111.644 48.0259 112.189 47.2497 112.561 46.3881C112.933 45.5264 113.125 44.5976 113.124 43.659C113.124 39.858 110.043 36.7769 106.242 36.7769C102.44 36.7769 99.3594 39.858 99.3594 43.659C99.3583 44.5976 99.5497 45.5264 99.9218 46.3881C100.294 47.2497 100.839 48.0259 101.523 48.6686C102.798 49.8734 104.487 50.5436 106.242 50.5412C107.996 50.5436 109.685 49.8734 110.96 48.6686ZM102.109 47.7615C102.604 47.1415 103.233 46.6411 103.949 46.2975C104.664 45.9539 105.448 45.7759 106.242 45.7766C107.035 45.7759 107.819 45.9539 108.534 46.2975C109.25 46.6411 109.879 47.1415 110.374 47.7615C109.834 48.3077 109.19 48.741 108.481 49.0364C107.771 49.3318 107.01 49.4834 106.242 49.4824C105.473 49.4834 104.712 49.3318 104.003 49.0364C103.293 48.741 102.649 48.3077 102.109 47.7615ZM108.889 41.5414C108.889 42.2435 108.61 42.9168 108.113 43.4132C107.617 43.9096 106.944 44.1884 106.242 44.1884C105.54 44.1884 104.866 43.9096 104.37 43.4132C103.873 42.9168 103.595 42.2435 103.595 41.5414C103.595 40.8394 103.873 40.1661 104.37 39.6697C104.866 39.1733 105.54 38.8945 106.242 38.8945C106.944 38.8945 107.617 39.1733 108.113 39.6697C108.61 40.1661 108.889 40.8394 108.889 41.5414Z" fill="white"/>
</g>
<rect x="118.285" y="36.7769" width="25.3781" height="3.4411" rx="1.72055" fill="white"/>
<rect x="118.285" y="42.7988" width="18.926" height="3.4411" rx="1.72055" fill="white"/>
<rect x="160.871" y="31.6152" width="59.7891" height="24.0877" rx="5.16165" fill="black" fill-opacity="0.12"/>
<g clip-path="url(#clip2_2132_5966)">
<circle cx="172.913" cy="43.659" r="6.88219" fill="black" fill-opacity="0.12"/>
<path fill-rule="evenodd" clip-rule="evenodd" d="M177.632 48.6686C178.316 48.0259 178.861 47.2497 179.233 46.3881C179.605 45.5264 179.797 44.5976 179.796 43.659C179.796 39.858 176.715 36.7769 172.913 36.7769C169.112 36.7769 166.031 39.858 166.031 43.659C166.03 44.5976 166.222 45.5264 166.594 46.3881C166.966 47.2497 167.511 48.0259 168.195 48.6686C169.47 49.8734 171.159 50.5436 172.913 50.5412C174.668 50.5436 176.357 49.8734 177.632 48.6686ZM168.781 47.7615C169.276 47.1415 169.905 46.6411 170.621 46.2975C171.336 45.9539 172.12 45.7759 172.913 45.7766C173.707 45.7759 174.491 45.9539 175.206 46.2975C175.922 46.6411 176.551 47.1415 177.046 47.7615C176.506 48.3077 175.862 48.741 175.152 49.0364C174.443 49.3318 173.682 49.4834 172.913 49.4824C172.145 49.4834 171.384 49.3318 170.674 49.0364C169.965 48.741 169.321 48.3077 168.781 47.7615ZM175.56 41.5414C175.56 42.2435 175.282 42.9168 174.785 43.4132C174.289 43.9096 173.615 44.1884 172.913 44.1884C172.211 44.1884 171.538 43.9096 171.042 43.4132C170.545 42.9168 170.266 42.2435 170.266 41.5414C170.266 40.8394 170.545 40.1661 171.042 39.6697C171.538 39.1733 172.211 38.8945 172.913 38.8945C173.615 38.8945 174.289 39.1733 174.785 39.6697C175.282 40.1661 175.56 40.8394 175.56 41.5414Z" fill="white"/>
</g>
<rect x="184.957" y="36.7769" width="25.3781" height="3.4411" rx="1.72055" fill="white"/>
<rect x="184.957" y="42.7988" width="18.926" height="3.4411" rx="1.72055" fill="white"/>
<rect x="227.543" y="31.6152" width="59.7891" height="24.0877" rx="5.16165" fill="black" fill-opacity="0.12"/>
<g clip-path="url(#clip3_2132_5966)">
<circle cx="239.585" cy="43.659" r="6.88219" fill="black" fill-opacity="0.12"/>
<path fill-rule="evenodd" clip-rule="evenodd" d="M244.304 48.6686C244.988 48.0259 245.533 47.2497 245.905 46.3881C246.277 45.5264 246.469 44.5976 246.468 43.659C246.468 39.858 243.386 36.7769 239.585 36.7769C235.784 36.7769 232.703 39.858 232.703 43.659C232.702 44.5976 232.893 45.5264 233.266 46.3881C233.638 47.2497 234.183 48.0259 234.867 48.6686C236.142 49.8734 237.831 50.5436 239.585 50.5412C241.34 50.5436 243.029 49.8734 244.304 48.6686ZM235.452 47.7615C235.948 47.1415 236.577 46.6411 237.292 46.2975C238.008 45.9539 238.792 45.7759 239.585 45.7766C240.379 45.7759 241.163 45.9539 241.878 46.2975C242.594 46.6411 243.223 47.1415 243.718 47.7615C243.177 48.3077 242.534 48.741 241.824 49.0364C241.115 49.3318 240.354 49.4834 239.585 49.4824C238.817 49.4834 238.056 49.3318 237.346 49.0364C236.637 48.741 235.993 48.3077 235.452 47.7615ZM242.232 41.5414C242.232 42.2435 241.953 42.9168 241.457 43.4132C240.961 43.9096 240.287 44.1884 239.585 44.1884C238.883 44.1884 238.21 43.9096 237.714 43.4132C237.217 42.9168 236.938 42.2435 236.938 41.5414C236.938 40.8394 237.217 40.1661 237.714 39.6697C238.21 39.1733 238.883 38.8945 239.585 38.8945C240.287 38.8945 240.961 39.1733 241.457 39.6697C241.953 40.1661 242.232 40.8394 242.232 41.5414Z" fill="white"/>
</g>
<rect x="251.629" y="36.7769" width="25.3781" height="3.4411" rx="1.72055" fill="white"/>
<rect x="251.629" y="42.7988" width="18.926" height="3.4411" rx="1.72055" fill="white"/>
<g filter="url(#filter0_f_2132_5966)">
<ellipse cx="245.833" cy="66.8861" rx="45.3795" ry="39.1425" fill="white"/>
</g>
<path d="M29.4784 82.8449V84.9508H31.956V85.9109H29.4784V88.1098H32.2657V89.0698H28.3016V81.8848H32.2657V82.8449H29.4784ZM35.9141 88.0168L37.5246 83.3817H38.7737L36.6058 89.0698H35.2018L33.0443 83.3817H34.3037L35.9141 88.0168ZM44.8765 86.0864C44.8765 86.2997 44.8628 86.4924 44.8352 86.6645H40.4891C40.5235 87.1187 40.6921 87.4835 40.995 87.7588C41.2978 88.0341 41.6694 88.1717 42.1099 88.1717C42.743 88.1717 43.1904 87.9067 43.4519 87.3768H44.7217C44.5496 87.8999 44.2365 88.33 43.7823 88.6672C43.3349 88.9976 42.7775 89.1627 42.1099 89.1627C41.5662 89.1627 41.0776 89.0423 40.644 88.8014C40.2173 88.5537 39.88 88.2095 39.6323 87.7691C39.3914 87.3217 39.271 86.8056 39.271 86.2206C39.271 85.6356 39.388 85.1229 39.622 84.6824C39.8628 84.2351 40.1966 83.891 40.6233 83.6501C41.0569 83.4092 41.5524 83.2888 42.1099 83.2888C42.6467 83.2888 43.125 83.4058 43.5448 83.6398C43.9646 83.8738 44.2915 84.2041 44.5255 84.6308C44.7595 85.0506 44.8765 85.5358 44.8765 86.0864ZM43.6481 85.7148C43.6412 85.2812 43.4863 84.9336 43.1835 84.6721C42.8807 84.4106 42.5056 84.2798 42.0583 84.2798C41.6522 84.2798 41.3047 84.4106 41.0156 84.6721C40.7266 84.9267 40.5545 85.2743 40.4994 85.7148H43.6481ZM48.9045 83.2888C49.3519 83.2888 49.7511 83.3817 50.102 83.5675C50.4599 83.7533 50.7386 84.0286 50.9382 84.3934C51.1378 84.7581 51.2376 85.1986 51.2376 85.7148V89.0698H50.0711V85.8903C50.0711 85.381 49.9438 84.9921 49.6891 84.7237C49.4345 84.4484 49.0869 84.3108 48.6465 84.3108C48.206 84.3108 47.855 84.4484 47.5935 84.7237C47.3388 84.9921 47.2115 85.381 47.2115 85.8903V89.0698H46.0347V83.3817H47.2115V84.0321C47.4042 83.7981 47.6485 83.6157 47.9445 83.4849C48.2473 83.3542 48.5673 83.2888 48.9045 83.2888ZM54.1118 84.3418V87.4904C54.1118 87.7037 54.1599 87.8586 54.2563 87.9549C54.3595 88.0444 54.5316 88.0891 54.7724 88.0891H55.4951V89.0698H54.566C54.0361 89.0698 53.63 88.9459 53.3478 88.6982C53.0657 88.4504 52.9246 88.0478 52.9246 87.4904V84.3418H52.2536V83.3817H52.9246V81.9674H54.1118V83.3817H55.4951V84.3418H54.1118ZM58.6444 89.1627C58.1971 89.1627 57.7945 89.0836 57.4366 88.9253C57.0856 88.7601 56.8069 88.5399 56.6004 88.2646C56.3939 87.9824 56.2838 87.6693 56.2701 87.3252H57.4882C57.5088 87.5661 57.6224 87.7691 57.8289 87.9343C58.0422 88.0926 58.3072 88.1717 58.6238 88.1717C58.9541 88.1717 59.2087 88.1098 59.3877 87.9859C59.5735 87.8551 59.6664 87.6899 59.6664 87.4904C59.6664 87.277 59.5632 87.1187 59.3567 87.0155C59.1571 86.9123 58.8371 86.7987 58.3966 86.6748C57.97 86.5578 57.6224 86.4443 57.354 86.3342C57.0856 86.224 56.8516 86.0554 56.652 85.8283C56.4593 85.6012 56.363 85.3018 56.363 84.9302C56.363 84.6274 56.4524 84.3521 56.6314 84.1043C56.8103 83.8497 57.0649 83.6501 57.3953 83.5056C57.7325 83.361 58.1179 83.2888 58.5515 83.2888C59.1984 83.2888 59.718 83.454 60.1103 83.7843C60.5095 84.1078 60.7228 84.5517 60.7504 85.116H59.5735C59.5529 84.8614 59.4496 84.6583 59.2638 84.5069C59.078 84.3555 58.8268 84.2798 58.5102 84.2798C58.2005 84.2798 57.9631 84.3383 57.7979 84.4553C57.6327 84.5723 57.5501 84.7272 57.5501 84.9199C57.5501 85.0713 57.6052 85.1986 57.7153 85.3018C57.8254 85.4051 57.9596 85.4876 58.1179 85.5496C58.2762 85.6046 58.5102 85.6769 58.8199 85.7664C59.2328 85.8765 59.5701 85.99 59.8316 86.107C60.1 86.2172 60.3305 86.3823 60.5232 86.6026C60.7159 86.8228 60.8157 87.1153 60.8226 87.48C60.8226 87.8035 60.7332 88.0926 60.5542 88.3472C60.3753 88.6018 60.1206 88.8014 59.7903 88.9459C59.4668 89.0905 59.0849 89.1627 58.6444 89.1627Z" fill="black" fill-opacity="0.69"/>
<path d="M84.1438 81.8951V82.8552H82.234V89.0698H81.0571V82.8552H79.137V81.8951H84.1438ZM86.5125 84.2076C86.6845 83.9185 86.9117 83.6948 87.1938 83.5365C87.4829 83.3714 87.8235 83.2888 88.2158 83.2888V84.5069H87.9165C87.4554 84.5069 87.1044 84.6239 86.8635 84.8579C86.6295 85.0919 86.5125 85.498 86.5125 86.0761V89.0698H85.3356V83.3817H86.5125V84.2076ZM88.9053 86.1999C88.9053 85.6287 89.0223 85.1229 89.2563 84.6824C89.4972 84.242 89.8206 83.9013 90.2267 83.6604C90.6396 83.4127 91.0939 83.2888 91.5894 83.2888C92.0367 83.2888 92.4256 83.3782 92.7559 83.5572C93.0931 83.7292 93.3615 83.946 93.5611 84.2076V83.3817H94.7483V89.0698H93.5611V88.2233C93.3615 88.4917 93.0897 88.7154 92.7456 88.8943C92.4015 89.0733 92.0092 89.1627 91.5687 89.1627C91.0801 89.1627 90.6327 89.0389 90.2267 88.7911C89.8206 88.5365 89.4972 88.1855 89.2563 87.7381C89.0223 87.2839 88.9053 86.7712 88.9053 86.1999ZM93.5611 86.2206C93.5611 85.8283 93.4785 85.4876 93.3134 85.1986C93.1551 84.9095 92.9452 84.6893 92.6836 84.5379C92.4221 84.3865 92.1399 84.3108 91.8371 84.3108C91.5343 84.3108 91.2521 84.3865 90.9906 84.5379C90.7291 84.6824 90.5158 84.8992 90.3506 85.1883C90.1923 85.4704 90.1131 85.8077 90.1131 86.1999C90.1131 86.5922 90.1923 86.9363 90.3506 87.2323C90.5158 87.5282 90.7291 87.7553 90.9906 87.9136C91.259 88.065 91.5412 88.1407 91.8371 88.1407C92.1399 88.1407 92.4221 88.065 92.6836 87.9136C92.9452 87.7622 93.1551 87.542 93.3134 87.2529C93.4785 86.957 93.5611 86.6129 93.5611 86.2206ZM96.8928 82.6281C96.6795 82.6281 96.5005 82.5558 96.356 82.4113C96.2115 82.2668 96.1392 82.0878 96.1392 81.8745C96.1392 81.6611 96.2115 81.4822 96.356 81.3377C96.5005 81.1932 96.6795 81.1209 96.8928 81.1209C97.0993 81.1209 97.2748 81.1932 97.4193 81.3377C97.5638 81.4822 97.6361 81.6611 97.6361 81.8745C97.6361 82.0878 97.5638 82.2668 97.4193 82.4113C97.2748 82.5558 97.0993 82.6281 96.8928 82.6281ZM97.4709 83.3817V89.0698H96.2941V83.3817H97.4709ZM100.389 84.3418V87.4904C100.389 87.7037 100.437 87.8586 100.534 87.9549C100.637 88.0444 100.809 88.0891 101.05 88.0891H101.772V89.0698H100.843C100.313 89.0698 99.9073 88.9459 99.6251 88.6982C99.3429 88.4504 99.2018 88.0478 99.2018 87.4904V84.3418H98.5308V83.3817H99.2018V81.9674H100.389V83.3817H101.772V84.3418H100.389ZM104.922 89.1627C104.474 89.1627 104.072 89.0836 103.714 88.9253C103.363 88.7601 103.084 88.5399 102.878 88.2646C102.671 87.9824 102.561 87.6693 102.547 87.3252H103.765C103.786 87.5661 103.9 87.7691 104.106 87.9343C104.319 88.0926 104.584 88.1717 104.901 88.1717C105.231 88.1717 105.486 88.1098 105.665 87.9859C105.851 87.8551 105.944 87.6899 105.944 87.4904C105.944 87.277 105.84 87.1187 105.634 87.0155C105.434 86.9123 105.114 86.7987 104.674 86.6748C104.247 86.5578 103.9 86.4443 103.631 86.3342C103.363 86.224 103.129 86.0554 102.929 85.8283C102.737 85.6012 102.64 85.3018 102.64 84.9302C102.64 84.6274 102.73 84.3521 102.909 84.1043C103.088 83.8497 103.342 83.6501 103.673 83.5056C104.01 83.361 104.395 83.2888 104.829 83.2888C105.476 83.2888 105.995 83.454 106.388 83.7843C106.787 84.1078 107 84.5517 107.028 85.116H105.851C105.83 84.8614 105.727 84.6583 105.541 84.5069C105.355 84.3555 105.104 84.2798 104.787 84.2798C104.478 84.2798 104.24 84.3383 104.075 84.4553C103.91 84.5723 103.827 84.7272 103.827 84.9199C103.827 85.0713 103.882 85.1986 103.993 85.3018C104.103 85.4051 104.237 85.4876 104.395 85.5496C104.553 85.6046 104.787 85.6769 105.097 85.7664C105.51 85.8765 105.847 85.99 106.109 86.107C106.377 86.2172 106.608 86.3823 106.801 86.6026C106.993 86.8228 107.093 87.1153 107.1 87.48C107.1 87.8035 107.01 88.0926 106.831 88.3472C106.653 88.6018 106.398 88.8014 106.068 88.9459C105.744 89.0905 105.362 89.1627 104.922 89.1627Z" fill="black" fill-opacity="0.69"/>
<rect x="124.938" y="72.9082" width="76.6466" height="25.3233" rx="3.4411" fill="#57BD93"/>
<path d="M140.392 87.6968H137.523L137.048 89.0698H135.53L138.121 81.8538H139.804L142.395 89.0698H140.867L140.392 87.6968ZM140 86.5406L138.957 83.5262L137.915 86.5406H140ZM148.763 83.3507V89.0698H147.307V88.3472C147.121 88.595 146.877 88.7911 146.574 88.9356C146.278 89.0733 145.955 89.1421 145.604 89.1421C145.156 89.1421 144.761 89.0492 144.417 88.8634C144.073 88.6707 143.801 88.3919 143.601 88.0272C143.408 87.6555 143.312 87.2151 143.312 86.7058V83.3507H144.757V86.4993C144.757 86.9535 144.871 87.3045 145.098 87.5523C145.325 87.7932 145.635 87.9136 146.027 87.9136C146.426 87.9136 146.739 87.7932 146.966 87.5523C147.194 87.3045 147.307 86.9535 147.307 86.4993V83.3507H148.763ZM149.817 86.1896C149.817 85.6115 149.931 85.0988 150.158 84.6515C150.392 84.2041 150.708 83.86 151.107 83.6191C151.507 83.3782 151.951 83.2578 152.439 83.2578C152.811 83.2578 153.165 83.3404 153.502 83.5056C153.84 83.6639 154.108 83.8772 154.308 84.1456V81.4306H155.774V89.0698H154.308V88.2233C154.129 88.5055 153.878 88.7326 153.554 88.9047C153.231 89.0767 152.856 89.1627 152.429 89.1627C151.947 89.1627 151.507 89.0389 151.107 88.7911C150.708 88.5433 150.392 88.1958 150.158 87.7484C149.931 87.2942 149.817 86.7746 149.817 86.1896ZM154.318 86.2103C154.318 85.8593 154.249 85.5599 154.112 85.3121C153.974 85.0575 153.788 84.8648 153.554 84.734C153.32 84.5964 153.069 84.5276 152.801 84.5276C152.532 84.5276 152.284 84.593 152.057 84.7237C151.83 84.8545 151.644 85.0472 151.5 85.3018C151.362 85.5496 151.293 85.8455 151.293 86.1896C151.293 86.5337 151.362 86.8366 151.5 87.0981C151.644 87.3527 151.83 87.5489 152.057 87.6865C152.291 87.8241 152.539 87.893 152.801 87.893C153.069 87.893 153.32 87.8276 153.554 87.6968C153.788 87.5592 153.974 87.3665 154.112 87.1187C154.249 86.8641 154.318 86.5613 154.318 86.2103ZM157.918 82.6694C157.663 82.6694 157.45 82.5902 157.278 82.4319C157.113 82.2668 157.03 82.0637 157.03 81.8229C157.03 81.582 157.113 81.3824 157.278 81.2241C157.45 81.0589 157.663 80.9764 157.918 80.9764C158.173 80.9764 158.383 81.0589 158.548 81.2241C158.72 81.3824 158.806 81.582 158.806 81.8229C158.806 82.0637 158.72 82.2668 158.548 82.4319C158.383 82.5902 158.173 82.6694 157.918 82.6694ZM158.63 83.3507V89.0698H157.185V83.3507H158.63ZM165.375 86.0864C165.375 86.2929 165.361 86.4787 165.334 86.6439H161.153C161.187 87.0568 161.332 87.3802 161.586 87.6142C161.841 87.8482 162.154 87.9652 162.526 87.9652C163.062 87.9652 163.444 87.7347 163.671 87.2736H165.23C165.065 87.8241 164.749 88.2784 164.281 88.6362C163.813 88.9872 163.238 89.1627 162.557 89.1627C162.006 89.1627 161.51 89.0423 161.07 88.8014C160.636 88.5537 160.296 88.2061 160.048 87.7588C159.807 87.3114 159.687 86.7953 159.687 86.2103C159.687 85.6184 159.807 85.0988 160.048 84.6515C160.289 84.2041 160.626 83.86 161.06 83.6191C161.493 83.3782 161.992 83.2578 162.557 83.2578C163.1 83.2578 163.585 83.3748 164.012 83.6088C164.446 83.8428 164.78 84.1766 165.014 84.6102C165.254 85.0369 165.375 85.5289 165.375 86.0864ZM163.878 85.6735C163.871 85.3018 163.737 85.0059 163.475 84.7857C163.214 84.5585 162.894 84.445 162.515 84.445C162.157 84.445 161.855 84.5551 161.607 84.7753C161.366 84.9887 161.218 85.2881 161.163 85.6735H163.878ZM169.599 83.2681C170.28 83.2681 170.831 83.4849 171.251 83.9185C171.671 84.3452 171.88 84.9439 171.88 85.7148V89.0698H170.435V85.9109C170.435 85.4567 170.322 85.1091 170.095 84.8682C169.867 84.6205 169.558 84.4966 169.165 84.4966C168.766 84.4966 168.45 84.6205 168.216 84.8682C167.989 85.1091 167.875 85.4567 167.875 85.9109V89.0698H166.43V83.3507H167.875V84.063C168.068 83.8153 168.312 83.6226 168.608 83.4849C168.911 83.3404 169.241 83.2681 169.599 83.2681ZM172.883 86.2103C172.883 85.6184 173.004 85.1022 173.244 84.6618C173.485 84.2144 173.819 83.8703 174.246 83.6294C174.673 83.3817 175.161 83.2578 175.712 83.2578C176.421 83.2578 177.006 83.4367 177.467 83.7946C177.935 84.1456 178.248 84.6411 178.406 85.2812H176.847C176.765 85.0334 176.624 84.8407 176.424 84.7031C176.231 84.5585 175.99 84.4863 175.701 84.4863C175.289 84.4863 174.962 84.6377 174.721 84.9405C174.48 85.2364 174.359 85.6597 174.359 86.2103C174.359 86.754 174.48 87.1772 174.721 87.48C174.962 87.776 175.289 87.9239 175.701 87.9239C176.286 87.9239 176.668 87.6624 176.847 87.1394H178.406C178.248 87.7588 177.935 88.2508 177.467 88.6156C176.999 88.9804 176.414 89.1627 175.712 89.1627C175.161 89.1627 174.673 89.0423 174.246 88.8014C173.819 88.5537 173.485 88.2095 173.244 87.7691C173.004 87.3217 172.883 86.8021 172.883 86.2103ZM184.781 86.0864C184.781 86.2929 184.768 86.4787 184.74 86.6439H180.559C180.594 87.0568 180.738 87.3802 180.993 87.6142C181.247 87.8482 181.561 87.9652 181.932 87.9652C182.469 87.9652 182.851 87.7347 183.078 87.2736H184.637C184.472 87.8241 184.155 88.2784 183.687 88.6362C183.219 88.9872 182.644 89.1627 181.963 89.1627C181.413 89.1627 180.917 89.0423 180.477 88.8014C180.043 88.5537 179.702 88.2061 179.455 87.7588C179.214 87.3114 179.093 86.7953 179.093 86.2103C179.093 85.6184 179.214 85.0988 179.455 84.6515C179.695 84.2041 180.033 83.86 180.466 83.6191C180.9 83.3782 181.399 83.2578 181.963 83.2578C182.507 83.2578 182.992 83.3748 183.419 83.6088C183.852 83.8428 184.186 84.1766 184.42 84.6102C184.661 85.0369 184.781 85.5289 184.781 86.0864ZM183.285 85.6735C183.278 85.3018 183.143 85.0059 182.882 84.7857C182.62 84.5585 182.3 84.445 181.922 84.445C181.564 84.445 181.261 84.5551 181.013 84.7753C180.773 84.9887 180.625 85.2881 180.57 85.6735H183.285ZM188.025 89.1627C187.557 89.1627 187.137 89.0801 186.765 88.915C186.394 88.7429 186.098 88.5124 185.878 88.2233C185.664 87.9343 185.547 87.6142 185.527 87.2632H186.982C187.01 87.4835 187.116 87.6659 187.302 87.8104C187.495 87.9549 187.732 88.0272 188.015 88.0272C188.29 88.0272 188.503 87.9721 188.655 87.862C188.813 87.7519 188.892 87.6108 188.892 87.4387C188.892 87.2529 188.796 87.1153 188.603 87.0258C188.417 86.9295 188.118 86.8262 187.705 86.7161C187.278 86.6129 186.927 86.5062 186.652 86.3961C186.383 86.286 186.149 86.1174 185.95 85.8903C185.757 85.6631 185.661 85.3569 185.661 84.9715C185.661 84.6549 185.75 84.3658 185.929 84.1043C186.115 83.8428 186.377 83.6363 186.714 83.4849C187.058 83.3335 187.461 83.2578 187.922 83.2578C188.603 83.2578 189.147 83.4299 189.553 83.774C189.959 84.1112 190.182 84.5689 190.224 85.147H188.84C188.82 84.9199 188.723 84.7409 188.551 84.6102C188.386 84.4725 188.163 84.4037 187.88 84.4037C187.619 84.4037 187.416 84.4519 187.271 84.5482C187.134 84.6446 187.065 84.7788 187.065 84.9508C187.065 85.1435 187.161 85.2915 187.354 85.3947C187.547 85.4911 187.846 85.5909 188.252 85.6941C188.665 85.7973 189.006 85.904 189.274 86.0141C189.542 86.1242 189.773 86.2963 189.966 86.5303C190.165 86.7574 190.268 87.0602 190.275 87.4387C190.275 87.7691 190.182 88.065 189.997 88.3265C189.818 88.5881 189.556 88.7945 189.212 88.9459C188.875 89.0905 188.479 89.1627 188.025 89.1627Z" fill="white"/>
<path d="M220.74 81.8951V89.0698H219.563V81.8951H220.74ZM221.893 86.1999C221.893 85.6287 222.01 85.1229 222.244 84.6824C222.485 84.242 222.808 83.9013 223.214 83.6604C223.627 83.4127 224.085 83.2888 224.587 83.2888C224.959 83.2888 225.324 83.3714 225.682 83.5365C226.046 83.6948 226.335 83.9082 226.549 84.1766V81.4306H227.736V89.0698H226.549V88.213C226.356 88.4883 226.088 88.7154 225.744 88.8943C225.406 89.0733 225.018 89.1627 224.577 89.1627C224.082 89.1627 223.627 89.0389 223.214 88.7911C222.808 88.5365 222.485 88.1855 222.244 87.7381C222.01 87.2839 221.893 86.7712 221.893 86.1999ZM226.549 86.2206C226.549 85.8283 226.466 85.4876 226.301 85.1986C226.143 84.9095 225.933 84.6893 225.671 84.5379C225.41 84.3865 225.128 84.3108 224.825 84.3108C224.522 84.3108 224.24 84.3865 223.978 84.5379C223.717 84.6824 223.503 84.8992 223.338 85.1883C223.18 85.4704 223.101 85.8077 223.101 86.1999C223.101 86.5922 223.18 86.9363 223.338 87.2323C223.503 87.5282 223.717 87.7553 223.978 87.9136C224.247 88.065 224.529 88.1407 224.825 88.1407C225.128 88.1407 225.41 88.065 225.671 87.9136C225.933 87.7622 226.143 87.542 226.301 87.2529C226.466 86.957 226.549 86.6129 226.549 86.2206ZM234.495 86.0864C234.495 86.2997 234.481 86.4924 234.454 86.6645H230.108C230.142 87.1187 230.311 87.4835 230.613 87.7588C230.916 88.0341 231.288 88.1717 231.728 88.1717C232.362 88.1717 232.809 87.9067 233.07 87.3768H234.34C234.168 87.8999 233.855 88.33 233.401 88.6672C232.953 88.9976 232.396 89.1627 231.728 89.1627C231.185 89.1627 230.696 89.0423 230.262 88.8014C229.836 88.5537 229.499 88.2095 229.251 87.7691C229.01 87.3217 228.889 86.8056 228.889 86.2206C228.889 85.6356 229.006 85.1229 229.24 84.6824C229.481 84.2351 229.815 83.891 230.242 83.6501C230.675 83.4092 231.171 83.2888 231.728 83.2888C232.265 83.2888 232.743 83.4058 233.163 83.6398C233.583 83.8738 233.91 84.2041 234.144 84.6308C234.378 85.0506 234.495 85.5358 234.495 86.0864ZM233.267 85.7148C233.26 85.2812 233.105 84.9336 232.802 84.6721C232.499 84.4106 232.124 84.2798 231.677 84.2798C231.271 84.2798 230.923 84.4106 230.634 84.6721C230.345 84.9267 230.173 85.2743 230.118 85.7148H233.267ZM238.523 83.2888C238.97 83.2888 239.37 83.3817 239.721 83.5675C240.078 83.7533 240.357 84.0286 240.557 84.3934C240.756 84.7581 240.856 85.1986 240.856 85.7148V89.0698H239.69V85.8903C239.69 85.381 239.562 84.9921 239.308 84.7237C239.053 84.4484 238.705 84.3108 238.265 84.3108C237.824 84.3108 237.473 84.4484 237.212 84.7237C236.957 84.9921 236.83 85.381 236.83 85.8903V89.0698H235.653V83.3817H236.83V84.0321C237.023 83.7981 237.267 83.6157 237.563 83.4849C237.866 83.3542 238.186 83.2888 238.523 83.2888ZM243.73 84.3418V87.4904C243.73 87.7037 243.778 87.8586 243.875 87.9549C243.978 88.0444 244.15 88.0891 244.391 88.0891H245.114V89.0698H244.184C243.655 89.0698 243.248 88.9459 242.966 88.6982C242.684 88.4504 242.543 88.0478 242.543 87.4904V84.3418H241.872V83.3817H242.543V81.9674H243.73V83.3817H245.114V84.3418H243.73ZM246.797 82.6281C246.584 82.6281 246.405 82.5558 246.26 82.4113C246.116 82.2668 246.043 82.0878 246.043 81.8745C246.043 81.6611 246.116 81.4822 246.26 81.3377C246.405 81.1932 246.584 81.1209 246.797 81.1209C247.003 81.1209 247.179 81.1932 247.323 81.3377C247.468 81.4822 247.54 81.6611 247.54 81.8745C247.54 82.0878 247.468 82.2668 247.323 82.4113C247.179 82.5558 247.003 82.6281 246.797 82.6281ZM247.375 83.3817V89.0698H246.198V83.3817H247.375ZM250.293 84.3418V87.4904C250.293 87.7037 250.341 87.8586 250.438 87.9549C250.541 88.0444 250.713 88.0891 250.954 88.0891H251.676V89.0698H250.747C250.217 89.0698 249.811 88.9459 249.529 88.6982C249.247 88.4504 249.106 88.0478 249.106 87.4904V84.3418H248.435V83.3817H249.106V81.9674H250.293V83.3817H251.676V84.3418H250.293ZM253.36 82.6281C253.147 82.6281 252.968 82.5558 252.823 82.4113C252.679 82.2668 252.606 82.0878 252.606 81.8745C252.606 81.6611 252.679 81.4822 252.823 81.3377C252.968 81.1932 253.147 81.1209 253.36 81.1209C253.566 81.1209 253.742 81.1932 253.886 81.3377C254.031 81.4822 254.103 81.6611 254.103 81.8745C254.103 82.0878 254.031 82.2668 253.886 82.4113C253.742 82.5558 253.566 82.6281 253.36 82.6281ZM253.938 83.3817V89.0698H252.761V83.3817H253.938ZM260.696 86.0864C260.696 86.2997 260.683 86.4924 260.655 86.6645H256.309C256.343 87.1187 256.512 87.4835 256.815 87.7588C257.118 88.0341 257.489 88.1717 257.93 88.1717C258.563 88.1717 259.01 87.9067 259.272 87.3768H260.542C260.369 87.8999 260.056 88.33 259.602 88.6672C259.155 88.9976 258.597 89.1627 257.93 89.1627C257.386 89.1627 256.897 89.0423 256.464 88.8014C256.037 88.5537 255.7 88.2095 255.452 87.7691C255.211 87.3217 255.091 86.8056 255.091 86.2206C255.091 85.6356 255.208 85.1229 255.442 84.6824C255.683 84.2351 256.016 83.891 256.443 83.6501C256.877 83.4092 257.372 83.2888 257.93 83.2888C258.467 83.2888 258.945 83.4058 259.365 83.6398C259.784 83.8738 260.111 84.2041 260.345 84.6308C260.579 85.0506 260.696 85.5358 260.696 86.0864ZM259.468 85.7148C259.461 85.2812 259.306 84.9336 259.003 84.6721C258.701 84.4106 258.325 84.2798 257.878 84.2798C257.472 84.2798 257.125 84.4106 256.835 84.6721C256.546 84.9267 256.374 85.2743 256.319 85.7148H259.468ZM263.919 89.1627C263.472 89.1627 263.069 89.0836 262.711 88.9253C262.36 88.7601 262.082 88.5399 261.875 88.2646C261.669 87.9824 261.559 87.6693 261.545 87.3252H262.763C262.784 87.5661 262.897 87.7691 263.104 87.9343C263.317 88.0926 263.582 88.1717 263.899 88.1717C264.229 88.1717 264.484 88.1098 264.662 87.9859C264.848 87.8551 264.941 87.6899 264.941 87.4904C264.941 87.277 264.838 87.1187 264.631 87.0155C264.432 86.9123 264.112 86.7987 263.671 86.6748C263.245 86.5578 262.897 86.4443 262.629 86.3342C262.36 86.224 262.126 86.0554 261.927 85.8283C261.734 85.6012 261.638 85.3018 261.638 84.9302C261.638 84.6274 261.727 84.3521 261.906 84.1043C262.085 83.8497 262.34 83.6501 262.67 83.5056C263.007 83.361 263.393 83.2888 263.826 83.2888C264.473 83.2888 264.993 83.454 265.385 83.7843C265.784 84.1078 265.998 84.5517 266.025 85.116H264.848C264.828 84.8614 264.724 84.6583 264.539 84.5069C264.353 84.3555 264.102 84.2798 263.785 84.2798C263.475 84.2798 263.238 84.3383 263.073 84.4553C262.908 84.5723 262.825 84.7272 262.825 84.9199C262.825 85.0713 262.88 85.1986 262.99 85.3018C263.1 85.4051 263.234 85.4876 263.393 85.5496C263.551 85.6046 263.785 85.6769 264.095 85.7664C264.508 85.8765 264.845 85.99 265.106 86.107C265.375 86.2172 265.605 86.3823 265.798 86.6026C265.991 86.8228 266.091 87.1153 266.097 87.48C266.097 87.8035 266.008 88.0926 265.829 88.3472C265.65 88.6018 265.395 88.8014 265.065 88.9459C264.742 89.0905 264.36 89.1627 263.919 89.1627Z" fill="black" fill-opacity="0.69"/>
<g filter="url(#filter1_f_2132_5966)">
<ellipse cx="245.176" cy="85.8117" rx="37.4219" ry="19.7863" fill="white"/>
</g>
<g filter="url(#filter2_dddddd_2132_5966)">
<rect x="27.5273" y="119.363" width="259.373" height="201.304" rx="5.16165" fill="white"/>
<mask id="path-59-inside-1_2132_5966" fill="white">
<path d="M43.8711 140.009H270.553V186.464H43.8711V140.009Z"/>
</mask>
<path d="M270.553 186.464V186.034H43.8711V186.464V186.894H270.553V186.464Z" fill="black" fill-opacity="0.24" mask="url(#path-59-inside-1_2132_5966)"/>
<circle cx="67.0994" cy="163.237" r="12.9041" fill="#57BD93"/>
<path d="M63.1914 167.894V167.111C63.1914 164.951 64.9417 163.2 67.1007 163.2C69.2598 163.2 71.0101 164.951 71.0101 167.111V167.894" stroke="white" stroke-width="1.29041" stroke-linecap="round" stroke-linejoin="round"/>
<path d="M58.4961 167.892V167.11C58.4961 165.814 59.5463 164.763 60.8417 164.763" stroke="white" stroke-width="1.29041" stroke-linecap="round" stroke-linejoin="round"/>
<path d="M75.6972 167.892V167.11C75.6972 165.814 74.647 164.763 73.3516 164.763" stroke="white" stroke-width="1.29041" stroke-linecap="round" stroke-linejoin="round"/>
<path d="M67.0917 163.2C68.3872 163.2 69.4373 162.149 69.4373 160.853C69.4373 159.557 68.3872 158.506 67.0917 158.506C65.7962 158.506 64.7461 159.557 64.7461 160.853C64.7461 162.149 65.7962 163.2 67.0917 163.2Z" stroke="white" stroke-width="1.29041" stroke-linecap="round" stroke-linejoin="round"/>
<path d="M60.8411 164.764C61.7047 164.764 62.4048 164.063 62.4048 163.199C62.4048 162.335 61.7047 161.635 60.8411 161.635C59.9774 161.635 59.2773 162.335 59.2773 163.199C59.2773 164.063 59.9774 164.764 60.8411 164.764Z" stroke="white" stroke-width="1.29041" stroke-linecap="round" stroke-linejoin="round"/>
<path d="M73.3528 164.764C74.2164 164.764 74.9165 164.063 74.9165 163.199C74.9165 162.335 74.2164 161.635 73.3528 161.635C72.4891 161.635 71.7891 162.335 71.7891 163.199C71.7891 164.063 72.4891 164.764 73.3528 164.764Z" stroke="white" stroke-width="1.29041" stroke-linecap="round" stroke-linejoin="round"/>
<path d="M94.7568 166.737L93.167 163.929H92.4857V166.737H91.0404V159.531H93.7451C94.3026 159.531 94.7775 159.631 95.1697 159.831C95.562 160.023 95.8545 160.288 96.0472 160.625C96.2468 160.956 96.3466 161.327 96.3466 161.74C96.3466 162.215 96.209 162.645 95.9337 163.031C95.6584 163.409 95.2489 163.671 94.7052 163.815L96.4292 166.737H94.7568ZM92.4857 162.845H93.6935C94.0858 162.845 94.3783 162.752 94.571 162.566C94.7637 162.374 94.8601 162.109 94.8601 161.771C94.8601 161.441 94.7637 161.186 94.571 161.007C94.3783 160.822 94.0858 160.729 93.6935 160.729H92.4857V162.845ZM102.97 163.753C102.97 163.96 102.957 164.146 102.929 164.311H98.7481C98.7825 164.724 98.927 165.047 99.1816 165.281C99.4363 165.515 99.7494 165.632 100.121 165.632C100.658 165.632 101.04 165.402 101.267 164.941H102.826C102.661 165.491 102.344 165.945 101.876 166.303C101.408 166.654 100.833 166.83 100.152 166.83C99.6015 166.83 99.1059 166.709 98.6655 166.468C98.2319 166.221 97.8912 165.873 97.6435 165.426C97.4026 164.978 97.2822 164.462 97.2822 163.877C97.2822 163.285 97.4026 162.766 97.6435 162.318C97.8843 161.871 98.2216 161.527 98.6552 161.286C99.0887 161.045 99.5877 160.925 100.152 160.925C100.696 160.925 101.181 161.042 101.608 161.276C102.041 161.51 102.375 161.844 102.609 162.277C102.85 162.704 102.97 163.196 102.97 163.753ZM101.473 163.34C101.467 162.969 101.332 162.673 101.071 162.453C100.809 162.226 100.489 162.112 100.111 162.112C99.7529 162.112 99.45 162.222 99.2023 162.442C98.9614 162.656 98.8134 162.955 98.7584 163.34H101.473ZM103.654 163.857C103.654 163.279 103.767 162.766 103.994 162.318C104.228 161.871 104.541 161.527 104.934 161.286C105.333 161.045 105.777 160.925 106.265 160.925C106.692 160.925 107.064 161.011 107.38 161.183C107.704 161.355 107.962 161.572 108.155 161.833V161.018H109.61V166.737H108.155V165.901C107.969 166.169 107.711 166.393 107.38 166.572C107.057 166.744 106.682 166.83 106.255 166.83C105.773 166.83 105.333 166.706 104.934 166.458C104.541 166.21 104.228 165.863 103.994 165.415C103.767 164.961 103.654 164.442 103.654 163.857ZM108.155 163.877C108.155 163.526 108.086 163.227 107.948 162.979C107.81 162.724 107.625 162.532 107.391 162.401C107.157 162.263 106.905 162.195 106.637 162.195C106.369 162.195 106.121 162.26 105.894 162.391C105.667 162.521 105.481 162.714 105.336 162.969C105.199 163.217 105.13 163.513 105.13 163.857C105.13 164.201 105.199 164.504 105.336 164.765C105.481 165.02 105.667 165.216 105.894 165.353C106.128 165.491 106.375 165.56 106.637 165.56C106.905 165.56 107.157 165.495 107.391 165.364C107.625 165.226 107.81 165.033 107.948 164.786C108.086 164.531 108.155 164.228 108.155 163.877ZM112.467 159.098V166.737H111.022V159.098H112.467ZM118.293 162.442V163.66H113.915V162.442H118.293ZM121.596 162.205V164.972C121.596 165.164 121.641 165.305 121.73 165.395C121.827 165.477 121.985 165.519 122.205 165.519H122.876V166.737H121.968C120.75 166.737 120.141 166.145 120.141 164.961V162.205H119.459V161.018H120.141V159.603H121.596V161.018H122.876V162.205H121.596ZM124.649 160.336C124.394 160.336 124.181 160.257 124.009 160.099C123.843 159.934 123.761 159.731 123.761 159.49C123.761 159.249 123.843 159.049 124.009 158.891C124.181 158.726 124.394 158.643 124.649 158.643C124.903 158.643 125.113 158.726 125.278 158.891C125.45 159.049 125.536 159.249 125.536 159.49C125.536 159.731 125.45 159.934 125.278 160.099C125.113 160.257 124.903 160.336 124.649 160.336ZM125.361 161.018V166.737H123.916V161.018H125.361ZM133.891 160.935C134.593 160.935 135.158 161.152 135.584 161.585C136.018 162.012 136.235 162.611 136.235 163.382V166.737H134.789V163.578C134.789 163.131 134.676 162.79 134.449 162.556C134.222 162.315 133.912 162.195 133.52 162.195C133.127 162.195 132.814 162.315 132.58 162.556C132.353 162.79 132.24 163.131 132.24 163.578V166.737H130.794V163.578C130.794 163.131 130.681 162.79 130.454 162.556C130.227 162.315 129.917 162.195 129.525 162.195C129.125 162.195 128.809 162.315 128.575 162.556C128.348 162.79 128.234 163.131 128.234 163.578V166.737H126.789V161.018H128.234V161.709C128.42 161.468 128.657 161.279 128.946 161.142C129.242 161.004 129.566 160.935 129.917 160.935C130.364 160.935 130.763 161.031 131.114 161.224C131.465 161.41 131.737 161.678 131.93 162.029C132.116 161.699 132.384 161.434 132.735 161.235C133.093 161.035 133.478 160.935 133.891 160.935ZM142.923 163.753C142.923 163.96 142.909 164.146 142.881 164.311H138.7C138.735 164.724 138.879 165.047 139.134 165.281C139.389 165.515 139.702 165.632 140.073 165.632C140.61 165.632 140.992 165.402 141.219 164.941H142.778C142.613 165.491 142.296 165.945 141.828 166.303C141.36 166.654 140.786 166.83 140.104 166.83C139.554 166.83 139.058 166.709 138.618 166.468C138.184 166.221 137.844 165.873 137.596 165.426C137.355 164.978 137.235 164.462 137.235 163.877C137.235 163.285 137.355 162.766 137.596 162.318C137.837 161.871 138.174 161.527 138.607 161.286C139.041 161.045 139.54 160.925 140.104 160.925C140.648 160.925 141.133 161.042 141.56 161.276C141.994 161.51 142.327 161.844 142.561 162.277C142.802 162.704 142.923 163.196 142.923 163.753ZM141.426 163.34C141.419 162.969 141.285 162.673 141.023 162.453C140.762 162.226 140.442 162.112 140.063 162.112C139.705 162.112 139.402 162.222 139.155 162.442C138.914 162.656 138.766 162.955 138.711 163.34H141.426ZM146.086 163.124C146.086 162.415 146.245 161.782 146.561 161.224C146.885 160.66 147.322 160.223 147.872 159.913C148.43 159.597 149.053 159.438 149.741 159.438C150.546 159.438 151.251 159.645 151.857 160.058C152.463 160.471 152.886 161.042 153.127 161.771H151.465C151.3 161.427 151.066 161.169 150.763 160.997C150.467 160.825 150.123 160.739 149.731 160.739C149.311 160.739 148.936 160.839 148.605 161.038C148.282 161.231 148.027 161.506 147.841 161.864C147.662 162.222 147.573 162.642 147.573 163.124C147.573 163.599 147.662 164.018 147.841 164.383C148.027 164.741 148.282 165.02 148.605 165.219C148.936 165.412 149.311 165.508 149.731 165.508C150.123 165.508 150.467 165.422 150.763 165.25C151.066 165.071 151.3 164.81 151.465 164.466H153.127C152.886 165.202 152.463 165.777 151.857 166.19C151.258 166.596 150.553 166.799 149.741 166.799C149.053 166.799 148.43 166.644 147.872 166.334C147.322 166.018 146.885 165.581 146.561 165.023C146.245 164.466 146.086 163.833 146.086 163.124ZM153.99 163.857C153.99 163.279 154.103 162.766 154.33 162.318C154.564 161.871 154.877 161.527 155.27 161.286C155.669 161.045 156.113 160.925 156.601 160.925C157.028 160.925 157.4 161.011 157.716 161.183C158.04 161.355 158.298 161.572 158.491 161.833V161.018H159.946V166.737H158.491V165.901C158.305 166.169 158.047 166.393 157.716 166.572C157.393 166.744 157.018 166.83 156.591 166.83C156.109 166.83 155.669 166.706 155.27 166.458C154.877 166.21 154.564 165.863 154.33 165.415C154.103 164.961 153.99 164.442 153.99 163.857ZM158.491 163.877C158.491 163.526 158.422 163.227 158.284 162.979C158.147 162.724 157.961 162.532 157.727 162.401C157.493 162.263 157.242 162.195 156.973 162.195C156.705 162.195 156.457 162.26 156.23 162.391C156.003 162.521 155.817 162.714 155.672 162.969C155.535 163.217 155.466 163.513 155.466 163.857C155.466 164.201 155.535 164.504 155.672 164.765C155.817 165.02 156.003 165.216 156.23 165.353C156.464 165.491 156.712 165.56 156.973 165.56C157.242 165.56 157.493 165.495 157.727 165.364C157.961 165.226 158.147 165.033 158.284 164.786C158.422 164.531 158.491 164.228 158.491 163.877ZM162.803 161.906C162.989 161.603 163.23 161.365 163.526 161.193C163.828 161.021 164.173 160.935 164.558 160.935V162.453H164.176C163.722 162.453 163.378 162.559 163.144 162.773C162.917 162.986 162.803 163.358 162.803 163.888V166.737H161.358V161.018H162.803V161.906ZM167.214 162.205V164.972C167.214 165.164 167.259 165.305 167.348 165.395C167.445 165.477 167.603 165.519 167.823 165.519H168.494V166.737H167.586C166.368 166.737 165.759 166.145 165.759 164.961V162.205H165.077V161.018H165.759V159.603H167.214V161.018H168.494V162.205H167.214ZM176.412 165.364H173.542L173.067 166.737H171.55L174.141 159.521H175.824L178.415 166.737H176.887L176.412 165.364ZM176.02 164.208L174.977 161.193L173.934 164.208H176.02ZM180.828 161.854C181.014 161.579 181.269 161.355 181.592 161.183C181.923 161.011 182.298 160.925 182.718 160.925C183.206 160.925 183.647 161.045 184.039 161.286C184.438 161.527 184.751 161.871 184.978 162.318C185.212 162.759 185.329 163.272 185.329 163.857C185.329 164.442 185.212 164.961 184.978 165.415C184.751 165.863 184.438 166.21 184.039 166.458C183.647 166.706 183.206 166.83 182.718 166.83C182.291 166.83 181.916 166.747 181.592 166.582C181.276 166.41 181.021 166.19 180.828 165.921V166.737H179.383V159.098H180.828V161.854ZM183.853 163.857C183.853 163.513 183.781 163.217 183.636 162.969C183.499 162.714 183.313 162.521 183.079 162.391C182.852 162.26 182.604 162.195 182.336 162.195C182.074 162.195 181.826 162.263 181.592 162.401C181.365 162.532 181.179 162.724 181.035 162.979C180.897 163.234 180.828 163.533 180.828 163.877C180.828 164.221 180.897 164.521 181.035 164.775C181.179 165.03 181.365 165.226 181.592 165.364C181.826 165.495 182.074 165.56 182.336 165.56C182.604 165.56 182.852 165.491 183.079 165.353C183.313 165.216 183.499 165.02 183.636 164.765C183.781 164.51 183.853 164.208 183.853 163.857ZM186.008 163.857C186.008 163.279 186.122 162.766 186.349 162.318C186.583 161.871 186.896 161.527 187.288 161.286C187.687 161.045 188.131 160.925 188.62 160.925C189.047 160.925 189.418 161.011 189.735 161.183C190.058 161.355 190.316 161.572 190.509 161.833V161.018H191.965V166.737H190.509V165.901C190.323 166.169 190.065 166.393 189.735 166.572C189.411 166.744 189.036 166.83 188.609 166.83C188.128 166.83 187.687 166.706 187.288 166.458C186.896 166.21 186.583 165.863 186.349 165.415C186.122 164.961 186.008 164.442 186.008 163.857ZM190.509 163.877C190.509 163.526 190.44 163.227 190.303 162.979C190.165 162.724 189.979 162.532 189.745 162.401C189.511 162.263 189.26 162.195 188.991 162.195C188.723 162.195 188.475 162.26 188.248 162.391C188.021 162.521 187.835 162.714 187.691 162.969C187.553 163.217 187.484 163.513 187.484 163.857C187.484 164.201 187.553 164.504 187.691 164.765C187.835 165.02 188.021 165.216 188.248 165.353C188.482 165.491 188.73 165.56 188.991 165.56C189.26 165.56 189.511 165.495 189.745 165.364C189.979 165.226 190.165 165.033 190.303 164.786C190.44 164.531 190.509 164.228 190.509 163.877ZM196.545 160.935C197.227 160.935 197.777 161.152 198.197 161.585C198.617 162.012 198.827 162.611 198.827 163.382V166.737H197.382V163.578C197.382 163.124 197.268 162.776 197.041 162.535C196.814 162.287 196.504 162.164 196.112 162.164C195.713 162.164 195.396 162.287 195.162 162.535C194.935 162.776 194.821 163.124 194.821 163.578V166.737H193.376V161.018H194.821V161.73C195.014 161.482 195.258 161.29 195.554 161.152C195.857 161.007 196.187 160.935 196.545 160.935ZM199.83 163.857C199.83 163.279 199.943 162.766 200.17 162.318C200.404 161.871 200.721 161.527 201.12 161.286C201.519 161.045 201.963 160.925 202.452 160.925C202.823 160.925 203.178 161.007 203.515 161.173C203.852 161.331 204.121 161.544 204.32 161.813V159.098H205.786V166.737H204.32V165.89C204.141 166.172 203.89 166.4 203.567 166.572C203.243 166.744 202.868 166.83 202.441 166.83C201.96 166.83 201.519 166.706 201.12 166.458C200.721 166.21 200.404 165.863 200.17 165.415C199.943 164.961 199.83 164.442 199.83 163.857ZM204.33 163.877C204.33 163.526 204.262 163.227 204.124 162.979C203.986 162.724 203.801 162.532 203.567 162.401C203.333 162.263 203.081 162.195 202.813 162.195C202.545 162.195 202.297 162.26 202.07 162.391C201.843 162.521 201.657 162.714 201.512 162.969C201.375 163.217 201.306 163.513 201.306 163.857C201.306 164.201 201.375 164.504 201.512 164.765C201.657 165.02 201.843 165.216 202.07 165.353C202.304 165.491 202.551 165.56 202.813 165.56C203.081 165.56 203.333 165.495 203.567 165.364C203.801 165.226 203.986 165.033 204.124 164.786C204.262 164.531 204.33 164.228 204.33 163.877ZM209.737 166.83C209.187 166.83 208.691 166.709 208.251 166.468C207.81 166.221 207.463 165.873 207.208 165.426C206.96 164.978 206.836 164.462 206.836 163.877C206.836 163.292 206.964 162.776 207.218 162.329C207.48 161.881 207.834 161.537 208.282 161.296C208.729 161.049 209.228 160.925 209.778 160.925C210.329 160.925 210.828 161.049 211.275 161.296C211.723 161.537 212.074 161.881 212.328 162.329C212.59 162.776 212.721 163.292 212.721 163.877C212.721 164.462 212.586 164.978 212.318 165.426C212.056 165.873 211.699 166.221 211.244 166.468C210.797 166.709 210.295 166.83 209.737 166.83ZM209.737 165.57C209.999 165.57 210.243 165.508 210.47 165.384C210.704 165.254 210.89 165.061 211.028 164.806C211.165 164.552 211.234 164.242 211.234 163.877C211.234 163.334 211.09 162.917 210.8 162.628C210.518 162.332 210.171 162.184 209.758 162.184C209.345 162.184 208.997 162.332 208.715 162.628C208.44 162.917 208.302 163.334 208.302 163.877C208.302 164.421 208.436 164.841 208.705 165.137C208.98 165.426 209.324 165.57 209.737 165.57ZM216.95 160.935C217.631 160.935 218.182 161.152 218.602 161.585C219.022 162.012 219.231 162.611 219.231 163.382V166.737H217.786V163.578C217.786 163.124 217.673 162.776 217.446 162.535C217.218 162.287 216.909 162.164 216.516 162.164C216.117 162.164 215.801 162.287 215.567 162.535C215.34 162.776 215.226 163.124 215.226 163.578V166.737H213.781V161.018H215.226V161.73C215.419 161.482 215.663 161.29 215.959 161.152C216.262 161.007 216.592 160.935 216.95 160.935ZM225.922 163.753C225.922 163.96 225.909 164.146 225.881 164.311H221.7C221.734 164.724 221.879 165.047 222.134 165.281C222.388 165.515 222.701 165.632 223.073 165.632C223.61 165.632 223.992 165.402 224.219 164.941H225.778C225.613 165.491 225.296 165.945 224.828 166.303C224.36 166.654 223.785 166.83 223.104 166.83C222.553 166.83 222.058 166.709 221.617 166.468C221.184 166.221 220.843 165.873 220.595 165.426C220.355 164.978 220.234 164.462 220.234 163.877C220.234 163.285 220.355 162.766 220.595 162.318C220.836 161.871 221.174 161.527 221.607 161.286C222.041 161.045 222.54 160.925 223.104 160.925C223.648 160.925 224.133 161.042 224.56 161.276C224.993 161.51 225.327 161.844 225.561 162.277C225.802 162.704 225.922 163.196 225.922 163.753ZM224.425 163.34C224.419 162.969 224.284 162.673 224.023 162.453C223.761 162.226 223.441 162.112 223.063 162.112C222.705 162.112 222.402 162.222 222.154 162.442C221.913 162.656 221.765 162.955 221.71 163.34H224.425ZM228.422 161.906C228.608 161.603 228.849 161.365 229.145 161.193C229.448 161.021 229.792 160.935 230.177 160.935V162.453H229.795C229.341 162.453 228.997 162.559 228.763 162.773C228.536 162.986 228.422 163.358 228.422 163.888V166.737H226.977V161.018H228.422V161.906Z" fill="black"/>
<path d="M251.95 165.014C252.446 164.601 252.841 164.257 253.135 163.984C253.429 163.705 253.674 163.416 253.87 163.117C254.067 162.817 254.165 162.523 254.165 162.234C254.165 161.971 254.103 161.764 253.979 161.615C253.855 161.465 253.664 161.39 253.406 161.39C253.148 161.39 252.949 161.478 252.81 161.653C252.67 161.824 252.598 162.058 252.593 162.358H251.54C251.561 161.738 251.744 161.269 252.09 160.949C252.441 160.629 252.884 160.469 253.421 160.469C254.01 160.469 254.461 160.626 254.776 160.941C255.091 161.251 255.249 161.661 255.249 162.172C255.249 162.575 255.14 162.959 254.923 163.326C254.707 163.692 254.459 164.012 254.18 164.286C253.901 164.554 253.537 164.879 253.088 165.261H255.372V166.159H251.548V165.354L251.95 165.014ZM257.821 166.306C257.47 166.306 257.155 166.245 256.876 166.121C256.597 165.992 256.375 165.819 256.21 165.602C256.05 165.385 255.963 165.145 255.947 164.882H257.039C257.059 165.047 257.139 165.184 257.279 165.292C257.423 165.401 257.601 165.455 257.813 165.455C258.019 165.455 258.179 165.414 258.293 165.331C258.412 165.248 258.471 165.143 258.471 165.014C258.471 164.874 258.399 164.771 258.254 164.704C258.115 164.632 257.89 164.554 257.581 164.472C257.261 164.394 256.997 164.314 256.791 164.232C256.59 164.149 256.414 164.022 256.264 163.852C256.12 163.682 256.048 163.452 256.048 163.163C256.048 162.926 256.115 162.709 256.249 162.513C256.388 162.317 256.585 162.162 256.837 162.048C257.096 161.935 257.397 161.878 257.743 161.878C258.254 161.878 258.662 162.007 258.967 162.265C259.271 162.518 259.439 162.861 259.47 163.295H258.432C258.417 163.124 258.345 162.99 258.216 162.892C258.092 162.789 257.924 162.737 257.712 162.737C257.516 162.737 257.364 162.773 257.256 162.846C257.152 162.918 257.101 163.019 257.101 163.148C257.101 163.292 257.173 163.403 257.317 163.48C257.462 163.553 257.687 163.628 257.991 163.705C258.301 163.782 258.556 163.862 258.758 163.945C258.959 164.028 259.132 164.157 259.276 164.332C259.426 164.503 259.503 164.73 259.509 165.014C259.509 165.261 259.439 165.483 259.3 165.679C259.165 165.876 258.969 166.03 258.711 166.144C258.458 166.252 258.161 166.306 257.821 166.306Z" fill="black" fill-opacity="0.4"/>
<mask id="path-70-inside-2_2132_5966" fill="white">
<path d="M43.8711 196.788H270.553V243.242H43.8711V196.788Z"/>
</mask>
<path d="M270.553 243.242V242.812H43.8711V243.242V243.673H270.553V243.242Z" fill="black" fill-opacity="0.24" mask="url(#path-70-inside-2_2132_5966)"/>
<circle cx="67.0994" cy="220.015" r="12.9041" fill="#57BD93"/>
<path d="M63.1914 224.671V223.888C63.1914 221.728 64.9417 219.977 67.1008 219.977C69.2598 219.977 71.0101 221.728 71.0101 223.888V224.671" stroke="white" stroke-width="1.29041" stroke-linecap="round" stroke-linejoin="round"/>
<path d="M58.4961 224.67V223.888C58.4961 222.592 59.5463 221.541 60.8417 221.541" stroke="white" stroke-width="1.29041" stroke-linecap="round" stroke-linejoin="round"/>
<path d="M75.7011 224.67V223.888C75.7011 222.592 74.651 221.541 73.3555 221.541" stroke="white" stroke-width="1.29041" stroke-linecap="round" stroke-linejoin="round"/>
<path d="M67.0995 219.977C68.395 219.977 69.4451 218.927 69.4451 217.63C69.4451 216.334 68.395 215.284 67.0995 215.284C65.804 215.284 64.7539 216.334 64.7539 217.63C64.7539 218.927 65.804 219.977 67.0995 219.977Z" stroke="white" stroke-width="1.29041" stroke-linecap="round" stroke-linejoin="round"/>
<path d="M60.8411 221.542C61.7047 221.542 62.4048 220.841 62.4048 219.977C62.4048 219.113 61.7047 218.413 60.8411 218.413C59.9775 218.413 59.2773 219.113 59.2773 219.977C59.2773 220.841 59.9775 221.542 60.8411 221.542Z" stroke="white" stroke-width="1.29041" stroke-linecap="round" stroke-linejoin="round"/>
<path d="M73.3528 221.542C74.2165 221.542 74.9166 220.841 74.9166 219.977C74.9166 219.113 74.2165 218.413 73.3528 218.413C72.4892 218.413 71.7891 219.113 71.7891 219.977C71.7891 220.841 72.4892 221.542 73.3528 221.542Z" stroke="white" stroke-width="1.29041" stroke-linecap="round" stroke-linejoin="round"/>
<path d="M97.0176 216.309V223.515H95.5724V220.449H92.4857V223.515H91.0404V216.309H92.4857V219.272H95.5724V216.309H97.0176ZM99.1731 217.115C98.9184 217.115 98.7051 217.036 98.533 216.877C98.3679 216.712 98.2853 216.509 98.2853 216.268C98.2853 216.027 98.3679 215.828 98.533 215.669C98.7051 215.504 98.9184 215.422 99.1731 215.422C99.4277 215.422 99.6376 215.504 99.8028 215.669C99.9749 215.828 100.061 216.027 100.061 216.268C100.061 216.509 99.9749 216.712 99.8028 216.877C99.6376 217.036 99.4277 217.115 99.1731 217.115ZM99.8854 217.796V223.515H98.4401V217.796H99.8854ZM103.553 217.703C103.98 217.703 104.355 217.789 104.679 217.961C105.002 218.126 105.257 218.343 105.443 218.612V217.796H106.898V223.556C106.898 224.086 106.792 224.558 106.578 224.971C106.365 225.391 106.045 225.721 105.618 225.962C105.191 226.21 104.675 226.333 104.07 226.333C103.258 226.333 102.59 226.144 102.067 225.766C101.551 225.387 101.258 224.871 101.189 224.217H102.624C102.7 224.479 102.862 224.685 103.11 224.837C103.364 224.995 103.67 225.074 104.028 225.074C104.448 225.074 104.789 224.947 105.05 224.692C105.312 224.444 105.443 224.066 105.443 223.556V222.669C105.257 222.937 104.999 223.161 104.668 223.34C104.345 223.519 103.973 223.608 103.553 223.608C103.072 223.608 102.631 223.484 102.232 223.236C101.833 222.989 101.516 222.641 101.282 222.194C101.055 221.74 100.942 221.22 100.942 220.635C100.942 220.057 101.055 219.544 101.282 219.097C101.516 218.649 101.829 218.305 102.222 218.064C102.621 217.824 103.065 217.703 103.553 217.703ZM105.443 220.656C105.443 220.305 105.374 220.005 105.236 219.757C105.099 219.503 104.913 219.31 104.679 219.179C104.445 219.042 104.194 218.973 103.925 218.973C103.657 218.973 103.409 219.038 103.182 219.169C102.955 219.3 102.769 219.492 102.624 219.747C102.487 219.995 102.418 220.291 102.418 220.635C102.418 220.979 102.487 221.282 102.624 221.543C102.769 221.798 102.955 221.994 103.182 222.132C103.416 222.269 103.664 222.338 103.925 222.338C104.194 222.338 104.445 222.273 104.679 222.142C104.913 222.004 105.099 221.812 105.236 221.564C105.374 221.309 105.443 221.007 105.443 220.656ZM111.531 217.713C111.964 217.713 112.35 217.81 112.687 218.002C113.024 218.188 113.286 218.467 113.471 218.839C113.664 219.203 113.76 219.644 113.76 220.16V223.515H112.315V220.356C112.315 219.902 112.202 219.554 111.975 219.314C111.747 219.066 111.438 218.942 111.045 218.942C110.646 218.942 110.33 219.066 110.096 219.314C109.869 219.554 109.755 219.902 109.755 220.356V223.515H108.31V215.876H109.755V218.508C109.941 218.261 110.189 218.068 110.498 217.93C110.808 217.786 111.152 217.713 111.531 217.713ZM122.849 218.539C122.849 218.925 122.756 219.286 122.571 219.623C122.392 219.96 122.106 220.232 121.714 220.439C121.328 220.645 120.84 220.748 120.248 220.748H119.04V223.515H117.595V216.309H120.248C120.805 216.309 121.28 216.406 121.672 216.599C122.065 216.791 122.357 217.056 122.55 217.393C122.749 217.731 122.849 218.113 122.849 218.539ZM120.186 219.582C120.585 219.582 120.881 219.492 121.074 219.314C121.266 219.128 121.363 218.87 121.363 218.539C121.363 217.837 120.97 217.486 120.186 217.486H119.04V219.582H120.186ZM125.321 218.684C125.506 218.381 125.747 218.144 126.043 217.972C126.346 217.799 126.69 217.713 127.076 217.713V219.231H126.694C126.239 219.231 125.895 219.338 125.661 219.551C125.434 219.764 125.321 220.136 125.321 220.666V223.515H123.875V217.796H125.321V218.684ZM130.589 223.608C130.038 223.608 129.542 223.488 129.102 223.247C128.662 222.999 128.314 222.651 128.059 222.204C127.812 221.757 127.688 221.241 127.688 220.656C127.688 220.071 127.815 219.554 128.07 219.107C128.331 218.66 128.686 218.316 129.133 218.075C129.58 217.827 130.079 217.703 130.63 217.703C131.18 217.703 131.679 217.827 132.127 218.075C132.574 218.316 132.925 218.66 133.18 219.107C133.441 219.554 133.572 220.071 133.572 220.656C133.572 221.241 133.438 221.757 133.169 222.204C132.908 222.651 132.55 222.999 132.096 223.247C131.648 223.488 131.146 223.608 130.589 223.608ZM130.589 222.349C130.85 222.349 131.094 222.287 131.322 222.163C131.556 222.032 131.741 221.839 131.879 221.585C132.017 221.33 132.085 221.02 132.085 220.656C132.085 220.112 131.941 219.696 131.652 219.406C131.37 219.111 131.022 218.963 130.609 218.963C130.196 218.963 129.849 219.111 129.567 219.406C129.291 219.696 129.154 220.112 129.154 220.656C129.154 221.199 129.288 221.619 129.556 221.915C129.832 222.204 130.176 222.349 130.589 222.349ZM136.077 218.622C136.263 218.36 136.518 218.144 136.841 217.972C137.172 217.793 137.547 217.703 137.967 217.703C138.455 217.703 138.896 217.824 139.288 218.064C139.687 218.305 140 218.649 140.227 219.097C140.461 219.537 140.578 220.05 140.578 220.635C140.578 221.22 140.461 221.74 140.227 222.194C140 222.641 139.687 222.989 139.288 223.236C138.896 223.484 138.455 223.608 137.967 223.608C137.547 223.608 137.175 223.522 136.852 223.35C136.535 223.178 136.277 222.961 136.077 222.7V226.24H134.632V217.796H136.077V218.622ZM139.102 220.635C139.102 220.291 139.03 219.995 138.885 219.747C138.748 219.492 138.562 219.3 138.328 219.169C138.101 219.038 137.853 218.973 137.585 218.973C137.323 218.973 137.075 219.042 136.841 219.179C136.614 219.31 136.428 219.503 136.284 219.757C136.146 220.012 136.077 220.311 136.077 220.656C136.077 221 136.146 221.299 136.284 221.554C136.428 221.808 136.614 222.004 136.841 222.142C137.075 222.273 137.323 222.338 137.585 222.338C137.853 222.338 138.101 222.269 138.328 222.132C138.562 221.994 138.748 221.798 138.885 221.543C139.03 221.289 139.102 220.986 139.102 220.635ZM146.945 220.532C146.945 220.738 146.931 220.924 146.904 221.089H142.723C142.757 221.502 142.902 221.826 143.156 222.06C143.411 222.294 143.724 222.411 144.096 222.411C144.633 222.411 145.015 222.18 145.242 221.719H146.801C146.635 222.269 146.319 222.724 145.851 223.082C145.383 223.433 144.808 223.608 144.127 223.608C143.576 223.608 143.081 223.488 142.64 223.247C142.207 222.999 141.866 222.651 141.618 222.204C141.377 221.757 141.257 221.241 141.257 220.656C141.257 220.064 141.377 219.544 141.618 219.097C141.859 218.649 142.196 218.305 142.63 218.064C143.064 217.824 143.562 217.703 144.127 217.703C144.671 217.703 145.156 217.82 145.582 218.054C146.016 218.288 146.35 218.622 146.584 219.055C146.825 219.482 146.945 219.974 146.945 220.532ZM145.448 220.119C145.441 219.747 145.307 219.451 145.046 219.231C144.784 219.004 144.464 218.89 144.086 218.89C143.728 218.89 143.425 219 143.177 219.221C142.936 219.434 142.788 219.733 142.733 220.119H145.448ZM151.169 217.713C151.851 217.713 152.401 217.93 152.821 218.364C153.241 218.791 153.451 219.389 153.451 220.16V223.515H152.005V220.356C152.005 219.902 151.892 219.554 151.665 219.314C151.438 219.066 151.128 218.942 150.736 218.942C150.337 218.942 150.02 219.066 149.786 219.314C149.559 219.554 149.445 219.902 149.445 220.356V223.515H148V217.796H149.445V218.508C149.638 218.261 149.882 218.068 150.178 217.93C150.481 217.786 150.811 217.713 151.169 217.713ZM157.014 223.608C156.546 223.608 156.126 223.525 155.754 223.36C155.383 223.188 155.087 222.958 154.866 222.669C154.653 222.38 154.536 222.06 154.515 221.709H155.971C155.998 221.929 156.105 222.111 156.291 222.256C156.484 222.4 156.721 222.472 157.003 222.472C157.279 222.472 157.492 222.417 157.643 222.307C157.802 222.197 157.881 222.056 157.881 221.884C157.881 221.698 157.784 221.561 157.592 221.471C157.406 221.375 157.107 221.272 156.694 221.161C156.267 221.058 155.916 220.952 155.641 220.841C155.372 220.731 155.138 220.563 154.939 220.336C154.746 220.108 154.65 219.802 154.65 219.417C154.65 219.1 154.739 218.811 154.918 218.55C155.104 218.288 155.365 218.082 155.703 217.93C156.047 217.779 156.449 217.703 156.91 217.703C157.592 217.703 158.135 217.875 158.541 218.219C158.948 218.557 159.171 219.014 159.212 219.592H157.829C157.809 219.365 157.712 219.186 157.54 219.055C157.375 218.918 157.151 218.849 156.869 218.849C156.608 218.849 156.405 218.897 156.26 218.994C156.122 219.09 156.054 219.224 156.054 219.396C156.054 219.589 156.15 219.737 156.343 219.84C156.535 219.936 156.835 220.036 157.241 220.139C157.654 220.243 157.994 220.349 158.263 220.459C158.531 220.57 158.762 220.742 158.954 220.976C159.154 221.203 159.257 221.506 159.264 221.884C159.264 222.214 159.171 222.51 158.985 222.772C158.806 223.033 158.545 223.24 158.201 223.391C157.864 223.536 157.468 223.608 157.014 223.608ZM161.183 217.115C160.929 217.115 160.715 217.036 160.543 216.877C160.378 216.712 160.296 216.509 160.296 216.268C160.296 216.027 160.378 215.828 160.543 215.669C160.715 215.504 160.929 215.422 161.183 215.422C161.438 215.422 161.648 215.504 161.813 215.669C161.985 215.828 162.071 216.027 162.071 216.268C162.071 216.509 161.985 216.712 161.813 216.877C161.648 217.036 161.438 217.115 161.183 217.115ZM161.896 217.796V223.515H160.45V217.796H161.896ZM165.006 218.983V221.75C165.006 221.943 165.051 222.084 165.141 222.173C165.237 222.256 165.395 222.297 165.615 222.297H166.286V223.515H165.378C164.16 223.515 163.551 222.923 163.551 221.74V218.983H162.869V217.796H163.551V216.382H165.006V217.796H166.286V218.983H165.006ZM172.797 217.796L169.256 226.22H167.718L168.957 223.371L166.665 217.796H168.286L169.762 221.791L171.259 217.796H172.797ZM180.124 219.819C180.53 219.895 180.864 220.098 181.126 220.428C181.387 220.759 181.518 221.137 181.518 221.564C181.518 221.949 181.422 222.29 181.229 222.586C181.043 222.875 180.771 223.102 180.413 223.267C180.055 223.433 179.632 223.515 179.144 223.515H176.036V216.309H179.009C179.498 216.309 179.918 216.389 180.269 216.547C180.627 216.705 180.895 216.925 181.074 217.208C181.26 217.49 181.353 217.81 181.353 218.168C181.353 218.587 181.239 218.938 181.012 219.221C180.792 219.503 180.496 219.702 180.124 219.819ZM177.481 219.283H178.803C179.147 219.283 179.412 219.207 179.598 219.055C179.784 218.897 179.876 218.674 179.876 218.384C179.876 218.095 179.784 217.872 179.598 217.713C179.412 217.555 179.147 217.476 178.803 217.476H177.481V219.283ZM178.937 222.338C179.288 222.338 179.56 222.256 179.753 222.091C179.952 221.925 180.052 221.691 180.052 221.389C180.052 221.079 179.949 220.838 179.742 220.666C179.536 220.487 179.257 220.398 178.906 220.398H177.481V222.338H178.937ZM188.069 217.796V223.515H186.613V222.793C186.427 223.04 186.183 223.236 185.88 223.381C185.584 223.519 185.261 223.587 184.91 223.587C184.463 223.587 184.067 223.494 183.723 223.309C183.379 223.116 183.107 222.837 182.907 222.472C182.714 222.101 182.618 221.66 182.618 221.151V217.796H184.063V220.945C184.063 221.399 184.177 221.75 184.404 221.998C184.631 222.238 184.941 222.359 185.333 222.359C185.732 222.359 186.045 222.238 186.273 221.998C186.5 221.75 186.613 221.399 186.613 220.945V217.796H188.069ZM194.966 217.796L191.425 226.22H189.887L191.126 223.371L188.834 217.796H190.455L191.931 221.791L193.428 217.796H194.966ZM201.062 220.532C201.062 220.738 201.048 220.924 201.02 221.089H196.839C196.874 221.502 197.018 221.826 197.273 222.06C197.528 222.294 197.841 222.411 198.212 222.411C198.749 222.411 199.131 222.18 199.358 221.719H200.917C200.752 222.269 200.435 222.724 199.967 223.082C199.499 223.433 198.925 223.608 198.243 223.608C197.693 223.608 197.197 223.488 196.757 223.247C196.323 222.999 195.983 222.651 195.735 222.204C195.494 221.757 195.374 221.241 195.374 220.656C195.374 220.064 195.494 219.544 195.735 219.097C195.976 218.649 196.313 218.305 196.747 218.064C197.18 217.824 197.679 217.703 198.243 217.703C198.787 217.703 199.272 217.82 199.699 218.054C200.133 218.288 200.466 218.622 200.7 219.055C200.941 219.482 201.062 219.974 201.062 220.532ZM199.565 220.119C199.558 219.747 199.424 219.451 199.162 219.231C198.901 219.004 198.581 218.89 198.202 218.89C197.844 218.89 197.541 219 197.294 219.221C197.053 219.434 196.905 219.733 196.85 220.119H199.565ZM203.562 218.684C203.748 218.381 203.989 218.144 204.285 217.972C204.587 217.799 204.931 217.713 205.317 217.713V219.231H204.935C204.481 219.231 204.137 219.338 203.903 219.551C203.675 219.764 203.562 220.136 203.562 220.666V223.515H202.117V217.796H203.562V218.684Z" fill="black"/>
<path d="M251.478 218.37V217.371H253.344V223.015H252.229V218.37H251.478ZM254.415 220.119C254.415 219.226 254.575 218.527 254.895 218.021C255.22 217.515 255.757 217.262 256.505 217.262C257.254 217.262 257.788 217.515 258.108 218.021C258.433 218.527 258.596 219.226 258.596 220.119C258.596 221.018 258.433 221.722 258.108 222.233C257.788 222.744 257.254 223 256.505 223C255.757 223 255.22 222.744 254.895 222.233C254.575 221.722 254.415 221.018 254.415 220.119ZM257.527 220.119C257.527 219.737 257.501 219.417 257.45 219.159C257.403 218.896 257.305 218.682 257.156 218.517C257.011 218.352 256.794 218.269 256.505 218.269C256.216 218.269 255.997 218.352 255.847 218.517C255.703 218.682 255.604 218.896 255.553 219.159C255.506 219.417 255.483 219.737 255.483 220.119C255.483 220.512 255.506 220.842 255.553 221.11C255.599 221.374 255.697 221.588 255.847 221.753C255.997 221.913 256.216 221.993 256.505 221.993C256.794 221.993 257.014 221.913 257.163 221.753C257.313 221.588 257.411 221.374 257.457 221.11C257.504 220.842 257.527 220.512 257.527 220.119ZM264.871 218.664C265.397 218.664 265.821 218.826 266.141 219.152C266.466 219.472 266.628 219.921 266.628 220.499V223.015H265.544V220.646C265.544 220.31 265.459 220.055 265.289 219.879C265.119 219.699 264.886 219.608 264.592 219.608C264.298 219.608 264.063 219.699 263.887 219.879C263.717 220.055 263.632 220.31 263.632 220.646V223.015H262.548V220.646C262.548 220.31 262.463 220.055 262.293 219.879C262.122 219.699 261.89 219.608 261.596 219.608C261.296 219.608 261.059 219.699 260.883 219.879C260.713 220.055 260.628 220.31 260.628 220.646V223.015H259.544V218.726H260.628V219.245C260.767 219.064 260.945 218.922 261.162 218.819C261.384 218.715 261.627 218.664 261.89 218.664C262.225 218.664 262.525 218.736 262.788 218.881C263.051 219.02 263.255 219.221 263.4 219.485C263.539 219.237 263.74 219.038 264.004 218.888C264.272 218.739 264.561 218.664 264.871 218.664Z" fill="black" fill-opacity="0.4"/>
<mask id="path-81-inside-3_2132_5966" fill="white">
<path d="M43.8711 253.565H270.553V300.02H43.8711V253.565Z"/>
</mask>
<path d="M270.553 300.02V299.59H43.8711V300.02V300.45H270.553V300.02Z" fill="black" fill-opacity="0.24" mask="url(#path-81-inside-3_2132_5966)"/>
<circle cx="67.0994" cy="276.793" r="12.9041" fill="#57BD93"/>
<path d="M63.1914 281.444V280.662C63.1914 278.503 64.9426 276.753 67.1027 276.753C69.2629 276.753 71.014 278.503 71.014 280.662V281.444" stroke="white" stroke-width="1.29041" stroke-linecap="round" stroke-linejoin="round"/>
<path d="M58.4961 281.443V280.661C58.4961 279.366 59.5468 278.315 60.8429 278.315" stroke="white" stroke-width="1.29041" stroke-linecap="round" stroke-linejoin="round"/>
<path d="M75.7062 281.443V280.661C75.7062 279.366 74.6555 278.315 73.3594 278.315" stroke="white" stroke-width="1.29041" stroke-linecap="round" stroke-linejoin="round"/>
<path d="M67.1007 276.752C68.3968 276.752 69.4475 275.702 69.4475 274.407C69.4475 273.111 68.3968 272.061 67.1007 272.061C65.8046 272.061 64.7539 273.111 64.7539 274.407C64.7539 275.702 65.8046 276.752 67.1007 276.752Z" stroke="white" stroke-width="1.29041" stroke-linecap="round" stroke-linejoin="round"/>
<path d="M60.8419 278.316C61.7059 278.316 62.4064 277.616 62.4064 276.752C62.4064 275.889 61.7059 275.188 60.8419 275.188C59.9778 275.188 59.2773 275.889 59.2773 276.752C59.2773 277.616 59.9778 278.316 60.8419 278.316Z" stroke="white" stroke-width="1.29041" stroke-linecap="round" stroke-linejoin="round"/>
<path d="M73.3575 278.316C74.2216 278.316 74.922 277.616 74.922 276.752C74.922 275.889 74.2216 275.188 73.3575 275.188C72.4934 275.188 71.793 275.889 71.793 276.752C71.793 277.616 72.4934 278.316 73.3575 278.316Z" stroke="white" stroke-width="1.29041" stroke-linecap="round" stroke-linejoin="round"/>
<path d="M97.0176 273.087V280.293H95.5724V277.227H92.4857V280.293H91.0404V273.087H92.4857V276.05H95.5724V273.087H97.0176ZM100.98 280.386C100.429 280.386 99.9336 280.265 99.4931 280.025C99.0527 279.777 98.7051 279.429 98.4505 278.982C98.2027 278.535 98.0788 278.018 98.0788 277.433C98.0788 276.848 98.2061 276.332 98.4608 275.885C98.7223 275.438 99.0767 275.093 99.5241 274.853C99.9714 274.605 100.47 274.481 101.021 274.481C101.572 274.481 102.07 274.605 102.518 274.853C102.965 275.093 103.316 275.438 103.571 275.885C103.832 276.332 103.963 276.848 103.963 277.433C103.963 278.018 103.829 278.535 103.56 278.982C103.299 279.429 102.941 279.777 102.487 280.025C102.04 280.265 101.537 280.386 100.98 280.386ZM100.98 279.126C101.241 279.126 101.486 279.064 101.713 278.941C101.947 278.81 102.132 278.617 102.27 278.363C102.408 278.108 102.477 277.798 102.477 277.433C102.477 276.89 102.332 276.473 102.043 276.184C101.761 275.888 101.413 275.74 101 275.74C100.587 275.74 100.24 275.888 99.9577 276.184C99.6824 276.473 99.5447 276.89 99.5447 277.433C99.5447 277.977 99.6789 278.397 99.9473 278.693C100.223 278.982 100.567 279.126 100.98 279.126ZM106.469 272.654V280.293H105.023V272.654H106.469ZM108.629 273.893C108.375 273.893 108.161 273.813 107.989 273.655C107.824 273.49 107.742 273.287 107.742 273.046C107.742 272.805 107.824 272.606 107.989 272.447C108.161 272.282 108.375 272.2 108.629 272.2C108.884 272.2 109.094 272.282 109.259 272.447C109.431 272.606 109.517 272.805 109.517 273.046C109.517 273.287 109.431 273.49 109.259 273.655C109.094 273.813 108.884 273.893 108.629 273.893ZM109.342 274.574V280.293H107.896V274.574H109.342ZM110.398 277.413C110.398 276.835 110.512 276.322 110.739 275.875C110.973 275.427 111.289 275.083 111.688 274.842C112.088 274.601 112.531 274.481 113.02 274.481C113.392 274.481 113.746 274.564 114.083 274.729C114.421 274.887 114.689 275.1 114.889 275.369V272.654H116.355V280.293H114.889V279.446C114.71 279.729 114.458 279.956 114.135 280.128C113.812 280.3 113.436 280.386 113.01 280.386C112.528 280.386 112.088 280.262 111.688 280.014C111.289 279.766 110.973 279.419 110.739 278.972C110.512 278.517 110.398 277.998 110.398 277.413ZM114.899 277.433C114.899 277.082 114.83 276.783 114.692 276.535C114.555 276.281 114.369 276.088 114.135 275.957C113.901 275.82 113.65 275.751 113.381 275.751C113.113 275.751 112.865 275.816 112.638 275.947C112.411 276.078 112.225 276.27 112.081 276.525C111.943 276.773 111.874 277.069 111.874 277.413C111.874 277.757 111.943 278.06 112.081 278.321C112.225 278.576 112.411 278.772 112.638 278.91C112.872 279.047 113.12 279.116 113.381 279.116C113.65 279.116 113.901 279.051 114.135 278.92C114.369 278.782 114.555 278.59 114.692 278.342C114.83 278.087 114.899 277.784 114.899 277.433ZM117.394 277.413C117.394 276.835 117.508 276.322 117.735 275.875C117.969 275.427 118.282 275.083 118.675 274.842C119.074 274.601 119.518 274.481 120.006 274.481C120.433 274.481 120.805 274.567 121.121 274.739C121.445 274.911 121.703 275.128 121.895 275.389V274.574H123.351V280.293H121.895V279.457C121.71 279.725 121.451 279.949 121.121 280.128C120.798 280.3 120.423 280.386 119.996 280.386C119.514 280.386 119.074 280.262 118.675 280.014C118.282 279.766 117.969 279.419 117.735 278.972C117.508 278.517 117.394 277.998 117.394 277.413ZM121.895 277.433C121.895 277.082 121.827 276.783 121.689 276.535C121.551 276.281 121.365 276.088 121.131 275.957C120.897 275.82 120.646 275.751 120.378 275.751C120.109 275.751 119.862 275.816 119.635 275.947C119.407 276.078 119.222 276.27 119.077 276.525C118.939 276.773 118.871 277.069 118.871 277.413C118.871 277.757 118.939 278.06 119.077 278.321C119.222 278.576 119.407 278.772 119.635 278.91C119.869 279.047 120.116 279.116 120.378 279.116C120.646 279.116 120.897 279.051 121.131 278.92C121.365 278.782 121.551 278.59 121.689 278.342C121.827 278.087 121.895 277.784 121.895 277.433ZM130.234 274.574L126.693 282.998H125.155L126.394 280.148L124.102 274.574H125.723L127.199 278.569L128.696 274.574H130.234ZM135.961 280.365C135.458 280.365 135.004 280.279 134.598 280.107C134.199 279.935 133.882 279.687 133.648 279.364C133.414 279.04 133.294 278.658 133.287 278.218H134.835C134.856 278.514 134.959 278.748 135.145 278.92C135.338 279.092 135.599 279.178 135.93 279.178C136.267 279.178 136.532 279.099 136.725 278.941C136.917 278.775 137.014 278.562 137.014 278.301C137.014 278.087 136.948 277.912 136.818 277.774C136.687 277.636 136.522 277.53 136.322 277.454C136.129 277.371 135.861 277.282 135.517 277.186C135.049 277.048 134.667 276.914 134.371 276.783C134.082 276.645 133.831 276.442 133.617 276.174C133.411 275.899 133.308 275.534 133.308 275.08C133.308 274.653 133.414 274.281 133.628 273.965C133.841 273.648 134.14 273.407 134.526 273.242C134.911 273.07 135.352 272.984 135.847 272.984C136.59 272.984 137.193 273.166 137.654 273.531C138.122 273.889 138.38 274.391 138.428 275.038H136.838C136.824 274.791 136.718 274.588 136.518 274.429C136.325 274.264 136.067 274.182 135.744 274.182C135.462 274.182 135.235 274.254 135.063 274.398C134.897 274.543 134.815 274.753 134.815 275.028C134.815 275.221 134.877 275.383 135.001 275.513C135.131 275.637 135.29 275.74 135.476 275.823C135.668 275.899 135.937 275.988 136.281 276.091C136.749 276.229 137.131 276.367 137.427 276.504C137.723 276.642 137.977 276.848 138.191 277.124C138.404 277.399 138.511 277.76 138.511 278.208C138.511 278.593 138.411 278.951 138.211 279.281C138.012 279.612 137.719 279.877 137.334 280.076C136.948 280.269 136.491 280.365 135.961 280.365ZM142.984 274.491C143.418 274.491 143.803 274.588 144.141 274.78C144.478 274.966 144.739 275.245 144.925 275.617C145.118 275.981 145.214 276.422 145.214 276.938V280.293H143.769V277.134C143.769 276.68 143.655 276.332 143.428 276.091C143.201 275.844 142.892 275.72 142.499 275.72C142.1 275.72 141.783 275.844 141.549 276.091C141.322 276.332 141.209 276.68 141.209 277.134V280.293H139.764V272.654H141.209V275.286C141.395 275.038 141.642 274.846 141.952 274.708C142.262 274.564 142.606 274.491 142.984 274.491ZM149.128 280.386C148.578 280.386 148.082 280.265 147.642 280.025C147.201 279.777 146.854 279.429 146.599 278.982C146.351 278.535 146.227 278.018 146.227 277.433C146.227 276.848 146.355 276.332 146.609 275.885C146.871 275.438 147.225 275.093 147.673 274.853C148.12 274.605 148.619 274.481 149.169 274.481C149.72 274.481 150.219 274.605 150.666 274.853C151.114 275.093 151.465 275.438 151.719 275.885C151.981 276.332 152.112 276.848 152.112 277.433C152.112 278.018 151.977 278.535 151.709 278.982C151.447 279.429 151.09 279.777 150.635 280.025C150.188 280.265 149.686 280.386 149.128 280.386ZM149.128 279.126C149.39 279.126 149.634 279.064 149.861 278.941C150.095 278.81 150.281 278.617 150.419 278.363C150.556 278.108 150.625 277.798 150.625 277.433C150.625 276.89 150.48 276.473 150.191 276.184C149.909 275.888 149.562 275.74 149.149 275.74C148.736 275.74 148.388 275.888 148.106 276.184C147.831 276.473 147.693 276.89 147.693 277.433C147.693 277.977 147.827 278.397 148.096 278.693C148.371 278.982 148.715 279.126 149.128 279.126ZM154.617 275.4C154.803 275.138 155.057 274.921 155.381 274.749C155.711 274.57 156.086 274.481 156.506 274.481C156.995 274.481 157.435 274.601 157.828 274.842C158.227 275.083 158.54 275.427 158.767 275.875C159.001 276.315 159.118 276.828 159.118 277.413C159.118 277.998 159.001 278.517 158.767 278.972C158.54 279.419 158.227 279.766 157.828 280.014C157.435 280.262 156.995 280.386 156.506 280.386C156.086 280.386 155.715 280.3 155.391 280.128C155.075 279.956 154.817 279.739 154.617 279.477V283.018H153.172V274.574H154.617V275.4ZM157.642 277.413C157.642 277.069 157.569 276.773 157.425 276.525C157.287 276.27 157.101 276.078 156.867 275.947C156.64 275.816 156.393 275.751 156.124 275.751C155.863 275.751 155.615 275.82 155.381 275.957C155.154 276.088 154.968 276.281 154.823 276.535C154.686 276.79 154.617 277.089 154.617 277.433C154.617 277.778 154.686 278.077 154.823 278.332C154.968 278.586 155.154 278.782 155.381 278.92C155.615 279.051 155.863 279.116 156.124 279.116C156.393 279.116 156.64 279.047 156.867 278.91C157.101 278.772 157.287 278.576 157.425 278.321C157.569 278.067 157.642 277.764 157.642 277.413ZM161.613 275.4C161.799 275.138 162.054 274.921 162.377 274.749C162.708 274.57 163.083 274.481 163.503 274.481C163.991 274.481 164.432 274.601 164.824 274.842C165.223 275.083 165.536 275.427 165.763 275.875C165.997 276.315 166.114 276.828 166.114 277.413C166.114 277.998 165.997 278.517 165.763 278.972C165.536 279.419 165.223 279.766 164.824 280.014C164.432 280.262 163.991 280.386 163.503 280.386C163.083 280.386 162.711 280.3 162.388 280.128C162.071 279.956 161.813 279.739 161.613 279.477V283.018H160.168V274.574H161.613V275.4ZM164.638 277.413C164.638 277.069 164.566 276.773 164.421 276.525C164.284 276.27 164.098 276.078 163.864 275.947C163.637 275.816 163.389 275.751 163.121 275.751C162.859 275.751 162.611 275.82 162.377 275.957C162.15 276.088 161.964 276.281 161.82 276.535C161.682 276.79 161.613 277.089 161.613 277.433C161.613 277.778 161.682 278.077 161.82 278.332C161.964 278.586 162.15 278.782 162.377 278.92C162.611 279.051 162.859 279.116 163.121 279.116C163.389 279.116 163.637 279.047 163.864 278.91C164.098 278.772 164.284 278.576 164.421 278.321C164.566 278.067 164.638 277.764 164.638 277.413ZM172.481 277.31C172.481 277.516 172.467 277.702 172.44 277.867H168.259C168.293 278.28 168.438 278.603 168.692 278.837C168.947 279.071 169.26 279.188 169.632 279.188C170.169 279.188 170.551 278.958 170.778 278.497H172.337C172.171 279.047 171.855 279.502 171.387 279.859C170.919 280.21 170.344 280.386 169.663 280.386C169.112 280.386 168.617 280.265 168.176 280.025C167.743 279.777 167.402 279.429 167.154 278.982C166.913 278.535 166.793 278.018 166.793 277.433C166.793 276.842 166.913 276.322 167.154 275.875C167.395 275.427 167.732 275.083 168.166 274.842C168.6 274.601 169.099 274.481 169.663 274.481C170.207 274.481 170.692 274.598 171.118 274.832C171.552 275.066 171.886 275.4 172.12 275.833C172.361 276.26 172.481 276.752 172.481 277.31ZM170.984 276.897C170.977 276.525 170.843 276.229 170.582 276.009C170.32 275.782 170 275.668 169.622 275.668C169.264 275.668 168.961 275.778 168.713 275.998C168.472 276.212 168.324 276.511 168.269 276.897H170.984ZM174.981 275.462C175.167 275.159 175.408 274.921 175.704 274.749C176.007 274.577 176.351 274.491 176.736 274.491V276.009H176.354C175.9 276.009 175.556 276.115 175.322 276.329C175.095 276.542 174.981 276.914 174.981 277.444V280.293H173.536V274.574H174.981V275.462Z" fill="black"/>
<path d="M254.536 275.558C254.485 275.341 254.394 275.178 254.265 275.07C254.141 274.962 253.961 274.907 253.723 274.907C253.367 274.907 253.104 275.052 252.934 275.341C252.768 275.625 252.683 276.089 252.678 276.735C252.802 276.528 252.983 276.368 253.22 276.255C253.457 276.136 253.716 276.077 253.994 276.077C254.33 276.077 254.627 276.149 254.885 276.293C255.143 276.438 255.344 276.65 255.489 276.928C255.633 277.202 255.705 277.532 255.705 277.919C255.705 278.286 255.63 278.614 255.481 278.903C255.336 279.186 255.122 279.408 254.838 279.568C254.554 279.728 254.216 279.808 253.824 279.808C253.287 279.808 252.864 279.69 252.554 279.452C252.25 279.215 252.035 278.885 251.912 278.461C251.793 278.033 251.733 277.506 251.733 276.882C251.733 275.937 251.896 275.225 252.221 274.745C252.546 274.26 253.06 274.017 253.762 274.017C254.304 274.017 254.725 274.164 255.024 274.458C255.323 274.753 255.496 275.119 255.543 275.558H254.536ZM253.746 276.967C253.473 276.967 253.243 277.047 253.057 277.207C252.872 277.367 252.779 277.599 252.779 277.904C252.779 278.208 252.864 278.448 253.034 278.624C253.21 278.799 253.455 278.887 253.77 278.887C254.048 278.887 254.268 278.802 254.428 278.632C254.593 278.461 254.676 278.232 254.676 277.943C254.676 277.643 254.596 277.406 254.436 277.23C254.281 277.055 254.051 276.967 253.746 276.967ZM259.102 275.442C259.427 275.442 259.716 275.514 259.969 275.658C260.222 275.798 260.418 276.007 260.557 276.286C260.702 276.559 260.774 276.89 260.774 277.277V279.793H259.69V277.424C259.69 277.083 259.605 276.822 259.434 276.642C259.264 276.456 259.032 276.363 258.738 276.363C258.438 276.363 258.201 276.456 258.025 276.642C257.855 276.822 257.77 277.083 257.77 277.424V279.793H256.686V274.064H257.77V276.038C257.909 275.852 258.095 275.708 258.327 275.604C258.56 275.496 258.818 275.442 259.102 275.442Z" fill="black" fill-opacity="0.4"/>
</g>
<rect x="181.879" y="424.968" width="65.4239" height="17.4206" rx="2.32274" fill="#ACDFCB"/>
<defs>
<filter id="filter0_f_2132_5966" x="172.709" y="-0.000192642" width="146.246" height="133.773" filterUnits="userSpaceOnUse" color-interpolation-filters="sRGB">
<feFlood flood-opacity="0" result="BackgroundImageFix"/>
<feBlend mode="normal" in="SourceGraphic" in2="BackgroundImageFix" result="shape"/>
<feGaussianBlur stdDeviation="13.8719" result="effect1_foregroundBlur_2132_5966"/>
</filter>
<filter id="filter1_f_2132_5966" x="180.01" y="38.2815" width="130.331" height="95.0604" filterUnits="userSpaceOnUse" color-interpolation-filters="sRGB">
<feFlood flood-opacity="0" result="BackgroundImageFix"/>
<feBlend mode="normal" in="SourceGraphic" in2="BackgroundImageFix" result="shape"/>
<feGaussianBlur stdDeviation="13.8719" result="effect1_foregroundBlur_2132_5966"/>
</filter>
<filter id="filter2_dddddd_2132_5966" x="-0.00143433" y="105.598" width="314.429" height="256.362" filterUnits="userSpaceOnUse" color-interpolation-filters="sRGB">
<feFlood flood-opacity="0" result="BackgroundImageFix"/>
<feColorMatrix in="SourceAlpha" type="matrix" values="0 0 0 0 0 0 0 0 0 0 0 0 0 0 0 0 0 0 127 0" result="hardAlpha"/>
<feOffset dy="13.7644"/>
<feGaussianBlur stdDeviation="13.7644"/>
<feColorMatrix type="matrix" values="0 0 0 0 0 0 0 0 0 0 0 0 0 0 0 0 0 0 0.07 0"/>
<feBlend mode="normal" in2="BackgroundImageFix" result="effect1_dropShadow_2132_5966"/>
<feColorMatrix in="SourceAlpha" type="matrix" values="0 0 0 0 0 0 0 0 0 0 0 0 0 0 0 0 0 0 127 0" result="hardAlpha"/>
<feOffset dy="6.88219"/>
<feGaussianBlur stdDeviation="6.88219"/>
<feColorMatrix type="matrix" values="0 0 0 0 0 0 0 0 0 0 0 0 0 0 0 0 0 0 0.07 0"/>
<feBlend mode="normal" in2="effect1_dropShadow_2132_5966" result="effect2_dropShadow_2132_5966"/>
<feColorMatrix in="SourceAlpha" type="matrix" values="0 0 0 0 0 0 0 0 0 0 0 0 0 0 0 0 0 0 127 0" result="hardAlpha"/>
<feOffset dy="3.4411"/>
<feGaussianBlur stdDeviation="3.4411"/>
<feColorMatrix type="matrix" values="0 0 0 0 0 0 0 0 0 0 0 0 0 0 0 0 0 0 0.07 0"/>
<feBlend mode="normal" in2="effect2_dropShadow_2132_5966" result="effect3_dropShadow_2132_5966"/>
<feColorMatrix in="SourceAlpha" type="matrix" values="0 0 0 0 0 0 0 0 0 0 0 0 0 0 0 0 0 0 127 0" result="hardAlpha"/>
<feOffset dy="1.72055"/>
<feGaussianBlur stdDeviation="1.72055"/>
<feColorMatrix type="matrix" values="0 0 0 0 0 0 0 0 0 0 0 0 0 0 0 0 0 0 0.07 0"/>
<feBlend mode="normal" in2="effect3_dropShadow_2132_5966" result="effect4_dropShadow_2132_5966"/>
<feColorMatrix in="SourceAlpha" type="matrix" values="0 0 0 0 0 0 0 0 0 0 0 0 0 0 0 0 0 0 127 0" result="hardAlpha"/>
<feOffset dy="0.860274"/>
<feGaussianBlur stdDeviation="0.860274"/>
<feColorMatrix type="matrix" values="0 0 0 0 0 0 0 0 0 0 0 0 0 0 0 0 0 0 0.07 0"/>
<feBlend mode="normal" in2="effect4_dropShadow_2132_5966" result="effect5_dropShadow_2132_5966"/>
<feColorMatrix in="SourceAlpha" type="matrix" values="0 0 0 0 0 0 0 0 0 0 0 0 0 0 0 0 0 0 127 0" result="hardAlpha"/>
<feOffset dy="0.430137"/>
<feGaussianBlur stdDeviation="0.430137"/>
<feColorMatrix type="matrix" values="0 0 0 0 0 0 0 0 0 0 0 0 0 0 0 0 0 0 0.07 0"/>
<feBlend mode="normal" in2="effect5_dropShadow_2132_5966" result="effect6_dropShadow_2132_5966"/>
<feBlend mode="normal" in="SourceGraphic" in2="effect6_dropShadow_2132_5966" result="shape"/>
</filter>
<linearGradient id="paint0_linear_2132_5966" x1="378.305" y1="147.321" x2="393.359" y2="147.321" gradientUnits="userSpaceOnUse">
<stop stop-color="#57BD93"/>
<stop offset="1" stop-color="#57BD93"/>
</linearGradient>
<linearGradient id="paint1_linear_2132_5966" x1="389.918" y1="306.903" x2="404.973" y2="306.903" gradientUnits="userSpaceOnUse">
<stop stop-color="#57BD93"/>
<stop offset="1" stop-color="#57BD93"/>
</linearGradient>
<clipPath id="clip0_2132_5966">
<rect width="13.7644" height="13.7644" fill="white" transform="translate(32.6875 36.7769)"/>
</clipPath>
<clipPath id="clip1_2132_5966">
<rect width="13.7644" height="13.7644" fill="white" transform="translate(99.3594 36.7769)"/>
</clipPath>
<clipPath id="clip2_2132_5966">
<rect width="13.7644" height="13.7644" fill="white" transform="translate(166.031 36.7769)"/>
</clipPath>
<clipPath id="clip3_2132_5966">
<rect width="13.7644" height="13.7644" fill="white" transform="translate(232.703 36.7769)"/>
</clipPath>
</defs>
</svg>
