<svg xmlns="http://www.w3.org/2000/svg" width="56" height="56" fill="none"><rect width="56" height="56" fill="#F7F8F7" rx="12"/><path stroke="#2B3B31" stroke-width="1.75" d="M18.625 25.5c0-4.714 0-7.07 1.465-8.535 1.464-1.464 3.821-1.464 8.535-1.464H30.5c4.714 0 7.071 0 8.535 1.464C40.5 18.429 40.5 20.786 40.5 25.5v5c0 4.715 0 7.072-1.465 8.536-1.464 1.465-3.821 1.465-8.535 1.465h-1.875c-4.714 0-7.071 0-8.535-1.465-1.465-1.464-1.465-3.822-1.465-8.536v-5Z"/><path stroke="#2B3B31" stroke-linecap="round" stroke-width="1.75" d="M29.563 31.125h.01m.002-2.76v-3.49M35.813 28a6.25 6.25 0 1 1-12.5 0 6.25 6.25 0 0 1 12.5 0Z"/><path stroke="#2B3B31" stroke-linecap="round" stroke-linejoin="round" stroke-width="1.75" d="M18.625 20.5H15.5m3.125 7.5H15.5m3.125 7.5H15.5"/></svg>