<svg xmlns="http://www.w3.org/2000/svg" width="56" height="56" fill="none"><rect width="56" height="56" fill="#F7F8F7" rx="12"/><path stroke="#000" stroke-linecap="round" stroke-width="1.75" d="M37.328 17.993c-3.352-2.056-6.278-1.228-8.035.092-.72.541-1.081.812-1.293.812-.212 0-.572-.27-1.293-.812-1.758-1.32-4.683-2.149-8.035-.092-4.4 2.698-5.395 11.6 4.752 19.111 1.933 1.43 2.9 2.146 4.576 2.146 1.677 0 2.643-.715 4.576-2.146 10.147-7.51 9.151-16.413 4.752-19.111ZM28 24.25v7.5M24.25 28h7.5"/></svg>