<svg xmlns="http://www.w3.org/2000/svg" width="56" height="56" fill="none"><rect width="56" height="56" fill="#F7F8F7" rx="12"/><path stroke="#000" stroke-linejoin="round" stroke-width="1.75" d="M40.5 27.458c0 6.604-5.597 11.959-12.5 11.959a13 13 0 0 1-2.418-.224c-.574-.108-.861-.162-1.061-.131-.2.03-.485.181-1.052.483a8.124 8.124 0 0 1-5.28.821 6.615 6.615 0 0 0 1.358-2.935c.125-.662-.184-1.306-.648-1.777-2.107-2.14-3.399-5.023-3.399-8.196C15.5 20.855 21.097 15.5 28 15.5s12.5 5.355 12.5 11.958Z"/><path stroke="#000" stroke-linecap="round" stroke-width="1.75" d="M25.5 25.308C25.5 24.033 26.62 23 28 23s2.5 1.033 2.5 2.308c0 .46-.145.887-.396 1.247C29.357 27.627 28 28.649 28 29.923v.577"/><path stroke="#000" stroke-linecap="round" stroke-linejoin="round" stroke-width="1.75" d="M28 33.625h.01"/></svg>