<svg xmlns="http://www.w3.org/2000/svg" width="56" height="56" fill="none"><rect width="56" height="56" fill="#F7F8F7" rx="12"/><path stroke="#2B3B31" stroke-linecap="round" stroke-width="1.75" d="M16.75 28c0 2.072 4.477 3.75 10 3.75.423 0 .84-.01 1.25-.029"/><path stroke="#2B3B31" stroke-linecap="round" stroke-width="1.75" d="M36.75 19.25v8.125m-20-8.125v17.5c0 2.072 4.477 3.75 10 3.75.423 0 .84-.01 1.25-.029"/><path stroke="#2B3B31" stroke-width="1.75" d="M26.75 23c5.523 0 10-1.678 10-3.75 0-2.07-4.477-3.75-10-3.75s-10 1.68-10 3.75c0 2.072 4.477 3.75 10 3.75Z"/><path stroke="#2B3B31" stroke-linecap="round" stroke-width="1.75" d="M21.75 23v2.5m0 6.25v2.5"/><path stroke="#2B3B31" stroke-linecap="round" stroke-linejoin="round" stroke-width="1.75" d="m37.983 30.5.625 2.606-1.037-.648a4.368 4.368 0 0 0-2.652-.893c-2.44 0-4.419 2-4.419 4.467 0 2.468 1.978 4.469 4.42 4.469 2.137 0 3.92-1.535 4.33-3.575"/></svg>