<svg xmlns="http://www.w3.org/2000/svg" width="56" height="56" fill="none"><rect width="56" height="56" fill="#F7F8F7" rx="12"/><path stroke="#2B3B31" stroke-width="1.5" d="M39.25 21.125a4.375 4.375 0 1 1-8.75 0 4.375 4.375 0 0 1 8.75 0Zm-22.5 0c0-2.062 0-3.093.64-3.734.641-.64 1.673-.64 3.735-.64s3.094 0 3.734.64c.641.64.641 1.672.641 3.735 0 2.062 0 3.093-.64 3.734-.641.64-1.673.64-3.735.64s-3.094 0-3.734-.64c-.641-.64-.641-1.672-.641-3.735Zm0 13.751c0-2.063 0-3.094.64-3.735.641-.64 1.673-.64 3.735-.64s3.094 0 3.734.64c.641.64.641 1.672.641 3.735 0 2.062 0 3.093-.64 3.734-.641.64-1.673.64-3.735.64s-3.094 0-3.734-.64c-.641-.64-.641-1.672-.641-3.734Zm13.75 0c0-2.063 0-3.094.64-3.735.641-.64 1.673-.64 3.735-.64s3.094 0 3.734.64c.641.64.641 1.672.641 3.735 0 2.062 0 3.093-.64 3.734-.641.64-1.673.64-3.735.64s-3.094 0-3.734-.64c-.641-.64-.641-1.672-.641-3.734Z"/><path stroke="#2B3B31" stroke-linecap="round" stroke-linejoin="round" stroke-width="1.5" d="M34.875 25.5v5M30.5 34.877h-5m0-13.75h5"/></svg>