<svg xmlns="http://www.w3.org/2000/svg" width="56" height="56" fill="none"><rect width="56" height="56" fill="#F7F8F7" rx="12"/><path stroke="#000" stroke-linecap="round" stroke-linejoin="round" stroke-width="1.75" d="M16.75 26.75c0-4.687 0-7.03 1.194-8.674a6.25 6.25 0 0 1 1.382-1.382C20.97 15.5 23.313 15.5 28 15.5c4.687 0 7.03 0 8.674 1.194.53.385.997.852 1.382 1.382 1.194 1.643 1.194 3.987 1.194 8.674v2.5c0 4.687 0 7.03-1.194 8.674a6.25 6.25 0 0 1-1.382 1.382C35.03 40.5 32.687 40.5 28 40.5c-4.687 0-7.03 0-8.674-1.194a6.25 6.25 0 0 1-1.382-1.382c-1.194-1.643-1.194-3.987-1.194-8.674v-2.5Zm17.5-5h-10m10 6.25H30.5"/></svg>