<svg xmlns="http://www.w3.org/2000/svg" width="56" height="56" fill="none"><rect width="56" height="56" fill="#F7F8F7" rx="12"/><path stroke="#000" stroke-linecap="round" stroke-linejoin="round" stroke-width="1.75" d="M15.5 28c0-3.511 0-5.267.843-6.528a5.002 5.002 0 0 1 1.38-1.38c1.26-.842 3.016-.842 6.527-.842h7.5c3.511 0 5.267 0 6.528.843a5.004 5.004 0 0 1 1.38 1.38c.842 1.26.842 3.016.842 6.527s0 5.267-.843 6.528a5.007 5.007 0 0 1-1.38 1.38c-1.26.842-3.016.842-6.527.842h-7.5c-3.511 0-5.267 0-6.528-.843a5.004 5.004 0 0 1-1.38-1.38C15.5 33.268 15.5 31.512 15.5 28Z"/><path stroke="#000" stroke-linecap="round" stroke-linejoin="round" stroke-width="1.75" d="m30.5 26.177.732-.712c.834-.81 1.25-1.215 1.768-1.215s.934.405 1.768 1.215l.732.712m-5 3.646.732.712c.834.81 1.25 1.215 1.768 1.215s.934-.405 1.768-1.215l.732-.712M20.5 28h5"/></svg>