<svg xmlns="http://www.w3.org/2000/svg" width="56" height="56" fill="none"><rect width="56" height="56" fill="#F7F8F7" rx="12"/><path stroke="#000" stroke-linecap="round" stroke-width="1.75" d="M17.5 28c0 1.933 4.179 3.5 9.333 3.5.396 0 .785-.01 1.167-.027"/><path stroke="#000" stroke-linecap="round" stroke-width="1.75" d="M36.167 19.834v7.583M17.5 19.834v16.333c0 1.933 4.179 3.5 9.333 3.5.396 0 .785-.009 1.167-.027"/><path stroke="#000" stroke-width="1.75" d="M26.833 23.334c5.155 0 9.334-1.567 9.334-3.5s-4.179-3.5-9.334-3.5c-5.154 0-9.333 1.567-9.333 3.5s4.179 3.5 9.333 3.5Z"/><path stroke="#000" stroke-linecap="round" stroke-width="1.75" d="M22.164 23.334v2.333m0 5.833v2.333"/><path stroke="#000" stroke-linecap="round" stroke-linejoin="round" stroke-width="1.75" d="m37.32 30.334.583 2.432-.968-.605a4.077 4.077 0 0 0-2.474-.834c-2.279 0-4.125 1.867-4.125 4.17s1.846 4.17 4.125 4.17c1.995 0 3.66-1.432 4.042-3.336"/></svg>