<svg xmlns="http://www.w3.org/2000/svg" width="56" height="56" fill="none"><rect width="56" height="56" fill="#F7F8F7" rx="12"/><path stroke="#2B3B31" stroke-linecap="round" stroke-linejoin="round" stroke-width="1.75" d="M26.884 19.97c.328.564.491.846.491 1.155 0 .31-.163.592-.49 1.155l-1.563 2.69c-.327.564-.49.846-.76 1-.269.155-.596.155-1.25.155h-3.124c-.654 0-.981 0-1.25-.154-.27-.155-.433-.437-.76-1l-1.562-2.69c-.328-.564-.491-.846-.491-1.155 0-.31.163-.592.49-1.155l1.563-2.69c.327-.564.49-.846.76-1 .269-.155.596-.155 1.25-.155h3.124c.654 0 .981 0 1.25.154.27.155.433.437.76 1l1.562 2.69Zm12.5 7.5c.328.564.491.846.491 1.155 0 .31-.163.592-.49 1.155l-1.563 2.69c-.327.564-.49.846-.76 1-.269.156-.596.156-1.25.156h-3.124c-.654 0-.981 0-1.25-.155-.27-.155-.433-.437-.76-1l-1.562-2.69c-.328-.564-.491-.846-.491-1.155 0-.31.163-.592.49-1.155l1.563-2.69c.326-.564.49-.846.76-1 .269-.155.596-.155 1.25-.155h3.124c.654 0 .981 0 1.25.154.27.155.434.437.76 1l1.562 2.69Zm-12.5 6.25c.328.564.491.846.491 1.156 0 .309-.163.59-.49 1.154l-1.563 2.69c-.327.564-.49.846-.76 1-.269.156-.596.156-1.25.156h-3.124c-.654 0-.981 0-1.25-.155-.27-.155-.433-.437-.76-1l-1.562-2.69c-.328-.564-.491-.846-.491-1.155 0-.31.163-.592.49-1.155l1.563-2.69c.327-.564.49-.846.76-1 .269-.155.596-.155 1.25-.155h3.124c.654 0 .981 0 1.25.154.27.155.433.437.76 1l1.562 2.69Z"/></svg>