<svg xmlns="http://www.w3.org/2000/svg" width="56" height="56" fill="none"><rect width="56" height="56" fill="#F7F8F7" rx="12"/><path stroke="#000" stroke-linejoin="round" stroke-width="1.75" d="m15.5 19.875 8.641 4.906c3.157 1.792 4.56 1.792 7.718 0l8.641-4.906"/><path stroke="#000" stroke-linecap="round" stroke-linejoin="round" stroke-width="1.75" d="M27.375 37.995c-.583-.008-2.416.015-3.002 0-3.935-.1-5.903-.149-7.317-1.57-1.414-1.423-1.455-3.342-1.536-7.182a86.587 86.587 0 0 1 0-3.696c.081-3.839.122-5.759 1.536-7.18 1.414-1.423 3.382-1.472 7.317-1.571a143.52 143.52 0 0 1 7.253 0c3.936.099 5.904.148 7.318 1.57 1.414 1.422 1.455 3.342 1.536 7.181.018.825.024.396.018 1.218"/><path stroke="#000" stroke-linecap="round" stroke-width="1.75" d="M31.769 30.983c1.34-.8 2.51-.477 3.214.036.288.21.432.316.517.316.085 0 .229-.105.517-.316.703-.513 1.873-.835 3.214-.036 1.76 1.05 2.158 4.512-1.9 7.433-.774.556-1.16.834-1.831.834-.67 0-1.057-.278-1.83-.834-4.06-2.921-3.661-6.383-1.901-7.433Z"/></svg>