<svg xmlns="http://www.w3.org/2000/svg" width="56" height="56" fill="none"><rect width="56" height="56" fill="#F7F8F7" rx="12"/><path stroke="#000" stroke-linejoin="round" stroke-width="1.75" d="M37.636 22.563c.196-.197.535-.216.734 0 1.166 1.272 1.81 2.214 2.023 3.257.123.6.14 1.21.052 1.804-.239 1.606-1.54 2.906-4.14 5.507l-3.174 3.173c-2.6 2.602-3.901 3.902-5.507 4.14a5.207 5.207 0 0 1-1.804-.05c-1.043-.213-1.985-.858-3.256-2.024-.217-.2-.197-.538 0-.735 1.095-1.095 1.043-2.923-.117-4.082-1.16-1.16-2.987-1.212-4.082-.116-.197.196-.536.216-.735-.001-1.166-1.272-1.81-2.213-2.023-3.256-.122-.6-.14-1.21-.052-1.804.239-1.606 1.54-2.906 4.14-5.507l3.174-3.173c2.6-2.602 3.901-3.902 5.507-4.14a5.21 5.21 0 0 1 1.804.05c1.043.213 1.985.859 3.256 2.024.218.2.197.538.001.734-1.095 1.096-1.043 2.923.116 4.083 1.16 1.16 2.988 1.211 4.083.116Z"/><path stroke="#000" stroke-linecap="round" stroke-linejoin="round" stroke-width="1.75" d="m36.75 31.75-12.5-12.5"/></svg>