<svg xmlns="http://www.w3.org/2000/svg" width="56" height="56" fill="none"><rect width="56" height="56" fill="#F7F8F7" rx="12"/><path stroke="#2B3B31" stroke-width="1.75" d="M28.625 18.625c0-1.473 0-2.21.458-2.667.457-.457 1.194-.457 2.667-.457 1.473 0 2.21 0 2.667.457.458.458.458 1.194.458 2.667 0 1.474 0 2.21-.458 2.668-.457.457-1.194.457-2.667.457-1.473 0-2.21 0-2.667-.457-.458-.458-.458-1.194-.458-2.668Zm0 18.751c0-1.474 0-2.21.458-2.668.457-.457 1.194-.457 2.667-.457 1.473 0 2.21 0 2.667.457.458.458.458 1.194.458 2.668 0 1.473 0 2.21-.458 2.667-.457.458-1.194.458-2.667.458-1.473 0-2.21 0-2.667-.458-.458-.458-.458-1.194-.458-2.667ZM15.5 28c0-1.767 0-2.651.64-3.2.641-.55 1.673-.55 3.735-.55s3.094 0 3.734.55c.641.549.641 1.433.641 3.2 0 1.768 0 2.652-.64 3.201-.641.55-1.673.55-3.735.55s-3.094 0-3.734-.55c-.641-.549-.641-1.433-.641-3.2Z"/><path stroke="#2B3B31" stroke-linecap="round" stroke-linejoin="round" stroke-width="1.75" d="M40.5 18.626h-5.625m-15 5.625V23c0-1.756 0-2.634.421-3.264a2.5 2.5 0 0 1 .69-.69c.63-.422 1.508-.422 3.264-.422h4.375m11.874 18.751h-5.624m-15-5.625V33c0 1.756 0 2.634.421 3.264.183.273.417.507.69.69.63.421 1.508.421 3.264.421h4.375"/></svg>