<svg xmlns="http://www.w3.org/2000/svg" width="56" height="56" fill="none"><rect width="56" height="56" fill="#F7F8F7" rx="12"/><path stroke="#2B3B31" stroke-linecap="round" stroke-linejoin="round" stroke-width="1.75" d="M21.75 22.995h-1.03c-1.871 0-2.807 0-3.389-.548-.581-.549-.581-1.432-.581-3.198s0-2.65.581-3.198c.582-.549 1.518-.549 3.39-.549h14.558c1.872 0 2.808 0 3.39.549.581.548.581 1.432.581 3.198s0 2.65-.581 3.198c-.582.549-1.518.549-3.39.549h-1.654"/><path stroke="#2B3B31" stroke-linecap="round" stroke-linejoin="round" stroke-width="1.75" d="M35.538 40.49c-.062-2.143.113-2.425.278-2.901.164-.477 1.183-2.169 1.59-3.397 1.316-3.973.31-4.644-1.267-5.851-1.805-1.383-4.862-2.087-6.77-1.934v-5.113c0-1.078-1.031-2.017-2.189-2.017-1.157 0-2.182.939-2.182 2.017v9.69l-2.464-2.097c-.665-.672-1.73-.61-2.5-.102a1.59 1.59 0 0 0-.557.64c-.35.735-.249 1.568.303 2.25l1.401 1.806m0 0c.334.404.672.877 1.097 1.414m-1.097-1.414 1.097 1.414m2.634 5.602v-1.183c.09-1.453-1.23-2.62-2.634-4.419m0 0c-.1-.13.096.122 0 0Zm0 0 1.384 1.693"/></svg>