<svg xmlns="http://www.w3.org/2000/svg" width="56" height="56" fill="none"><rect width="56" height="56" fill="#F7F8F7" rx="12"/><path stroke="#000" stroke-linecap="round" stroke-width="1.75" d="M31.75 34.25c-1 .778-2.312 1.25-3.75 1.25-1.438 0-2.75-.472-3.75-1.25"/><path stroke="#000" stroke-linejoin="round" stroke-width="1.75" d="M15.94 29.517c-.442-2.872-.663-4.308-.12-5.58.543-1.273 1.747-2.144 4.156-3.886l1.8-1.301c2.997-2.167 4.495-3.25 6.224-3.25s3.227 1.083 6.224 3.25l1.8 1.301c2.408 1.742 3.613 2.613 4.156 3.886.543 1.272.322 2.708-.12 5.58l-.376 2.448c-.625 4.071-.938 6.107-2.398 7.32-1.46 1.215-3.594 1.215-7.863 1.215h-2.846c-4.27 0-6.403 0-7.863-1.214-1.46-1.215-1.773-3.25-2.398-7.32l-.377-2.45Z"/></svg>