<svg xmlns="http://www.w3.org/2000/svg" width="56" height="56" fill="none"><rect width="56" height="56" fill="#F7F8F7" rx="12"/><path stroke="#2B3B31" stroke-linecap="round" stroke-linejoin="round" stroke-width="1.5" d="M33 15.5v5m-10-5v5m6.25-2.5h-2.5c-4.714 0-7.071 0-8.535 1.465C16.75 20.929 16.75 23.286 16.75 28v2.5c0 4.715 0 7.072 1.465 8.536 1.464 1.465 3.821 1.465 8.535 1.465h2.5c4.714 0 7.071 0 8.535-1.465 1.465-1.464 1.465-3.822 1.465-8.536V28c0-4.714 0-7.07-1.465-8.535C36.322 18 33.965 18 29.25 18Zm-12.5 7.5h22.5"/><path stroke="#2B3B31" stroke-linecap="round" stroke-linejoin="round" stroke-width="2" d="M27.994 30.5h.012m-.012 5h.012m4.983-5H33m-10 0h.011m-.011 5h.011"/></svg>