<svg xmlns="http://www.w3.org/2000/svg" width="56" height="56" fill="none"><rect width="56" height="56" fill="#F7F8F7" rx="12"/><path stroke="#2B3B31" stroke-linejoin="round" stroke-width="1.75" d="M30.5 17.375h-5c-4.714 0-7.071 0-8.535 1.465-1.465 1.464-1.465 3.821-1.465 8.535v1.25c0 4.715 0 7.072 1.465 8.536 1.464 1.465 3.82 1.465 8.535 1.465h5c4.714 0 7.071 0 8.535-1.465 1.465-1.464 1.465-3.822 1.465-8.536v-1.25c0-4.714 0-7.07-1.465-8.535-1.464-1.465-3.821-1.465-8.535-1.465Z"/><path stroke="#2B3B31" stroke-linecap="round" stroke-width="1.75" d="M19.25 33c1.295-3.226 6.12-3.438 7.5 0"/><path stroke="#2B3B31" stroke-width="1.75" d="M25.188 25.188a2.188 2.188 0 1 1-4.376 0 2.188 2.188 0 0 1 4.375 0Z"/><path stroke="#2B3B31" stroke-linecap="round" stroke-linejoin="round" stroke-width="1.75" d="M30.5 23.625h6.25M30.5 28h6.25m-6.25 4.376h3.125"/></svg>