<svg xmlns="http://www.w3.org/2000/svg" width="56" height="56" fill="none"><rect width="56" height="56" fill="#F7F8F7" rx="12"/><path stroke="#2B3B31" stroke-linecap="round" stroke-width="1.75" d="M27.375 20.5c-5.598 0-8.397 0-10.136 1.465C15.5 23.428 15.5 25.786 15.5 30.5s0 7.071 1.739 8.535c1.74 1.465 4.538 1.465 10.136 1.465 5.598 0 8.397 0 10.136-1.465 1.739-1.464 1.739-3.821 1.739-8.535 0-1.462 0-2.698-.052-3.75"/><path stroke="#2B3B31" stroke-linejoin="round" stroke-width="1.75" d="m36.125 15.5.322.871c.423 1.143.634 1.714 1.051 2.13.417.418.988.629 2.13 1.052l.872.322-.871.322c-1.143.423-1.714.634-2.13 1.051-.418.417-.629.988-1.052 2.13l-.322.872-.322-.871c-.423-1.143-.634-1.714-1.051-2.13-.417-.418-.988-.629-2.13-1.052l-.872-.322.871-.322c1.143-.423 1.714-.634 2.13-1.051.418-.417.629-.988 1.052-2.13l.322-.872Z"/><path stroke="#2B3B31" stroke-linecap="round" stroke-linejoin="round" stroke-width="1.75" d="M28 25.5v10M24.25 28v5m-3.75-3.75v2.5M31.75 28v5m3.75-3.75v2.5"/></svg>