<svg xmlns="http://www.w3.org/2000/svg" width="56" height="56" fill="none"><rect width="56" height="56" fill="#F7F8F7" rx="12"/><path stroke="#2B3B31" stroke-linecap="round" stroke-linejoin="round" stroke-width="1.75" d="M38 30.507v-4.18c0-1.023 0-1.534-.19-1.994-.19-.46-.552-.82-1.275-1.544l-5.92-5.923c-.624-.624-.935-.936-1.322-1.12a2.466 2.466 0 0 0-.246-.103c-.404-.143-.845-.143-1.727-.143-4.056 0-6.085 0-7.458 1.109a4.99 4.99 0 0 0-.754.754C18 18.737 18 20.766 18 24.824v5.683c0 4.716 0 7.074 1.465 8.54 1.178 1.179 2.936 1.409 6.035 1.454m3.75-24.375v.625c0 3.537 0 5.306 1.098 6.404 1.099 1.1 2.867 1.1 6.402 1.1h.625"/><path stroke="#2B3B31" stroke-linecap="round" stroke-linejoin="round" stroke-width="1.75" d="M26.75 33 28 35.5c.303-2.12 2.171-3.75 4.375-3.75 1.487 0 2.8.742 3.59 1.876M38 39.25l-1.25-2.5c-.303 2.12-2.171 3.75-4.375 3.75a4.37 4.37 0 0 1-3.59-1.875"/></svg>