<svg xmlns="http://www.w3.org/2000/svg" width="56" height="56" fill="none"><rect width="56" height="56" fill="#F7F8F7" rx="12"/><path stroke="#000" stroke-linecap="round" stroke-width="1.75" d="m24.448 20.14-.503-1.132c-.33-.74-.494-1.11-.74-1.394a2.51 2.51 0 0 0-1.16-.754c-.36-.11-.764-.11-1.575-.11-1.185 0-1.778 0-2.275.228a2.655 2.655 0 0 0-1.327 1.46c-.179.517-.127 1.049-.025 2.112 1.092 11.313 7.294 17.515 18.607 18.607 1.063.102 1.595.154 2.112-.025a2.651 2.651 0 0 0 1.46-1.327c.228-.497.228-1.09.228-2.275 0-.81 0-1.216-.11-1.575a2.509 2.509 0 0 0-.754-1.16c-.283-.246-.653-.41-1.394-.74l-1.132-.503c-.802-.356-1.203-.534-1.61-.573a2.508 2.508 0 0 0-1.149.16c-.381.148-.718.429-1.392.99-.671.56-1.007.84-1.417.99a2.701 2.701 0 0 1-1.227.125c-.431-.064-.762-.24-1.423-.594-2.058-1.1-3.193-2.234-4.292-4.292-.354-.66-.53-.992-.594-1.423a2.7 2.7 0 0 1 .126-1.227c.15-.41.429-.746.988-1.417.562-.674.843-1.011.991-1.392a2.5 2.5 0 0 0 .16-1.148c-.039-.408-.217-.809-.573-1.61Z"/></svg>