<svg xmlns="http://www.w3.org/2000/svg" width="56" height="56" fill="none"><rect width="56" height="56" fill="#F7F8F7" rx="12"/><path stroke="#000" stroke-width="1.75" d="M35.5 35.5c2.761 0 5-4.477 5-10s-2.239-10-5-10-5 4.477-5 10 2.239 10 5 10Z"/><path stroke="#000" stroke-width="1.75" d="M35.5 15.5c-3.879 0-11.919 2.972-16.536 4.817-2.115.845-3.464 2.906-3.464 5.183 0 2.277 1.35 4.338 3.464 5.183C23.58 32.528 31.62 35.5 35.5 35.5"/><path stroke="#000" stroke-linecap="round" stroke-linejoin="round" stroke-width="1.75" d="m26.75 40.5-2.43-1.337c-2.644-1.456-4.137-4.396-3.763-7.413"/></svg>