<svg xmlns="http://www.w3.org/2000/svg" width="56" height="56" fill="none"><rect width="56" height="56" fill="#F7F8F7" rx="12"/><path stroke="#2B3B31" stroke-width="1.75" d="M16.125 28c0-5.598 0-8.397 1.739-10.136 1.74-1.739 4.538-1.739 10.136-1.739 5.598 0 8.397 0 10.136 1.739 1.739 1.74 1.739 4.538 1.739 10.136 0 5.598 0 8.397-1.739 10.136-1.74 1.739-4.538 1.739-10.136 1.739-5.598 0-8.397 0-10.136-1.739-1.739-1.74-1.739-4.538-1.739-10.136Z"/><path stroke="#2B3B31" stroke-linecap="round" stroke-linejoin="round" stroke-width="1.75" d="M16.125 28h23.75M29.25 21.75h5m-10.937 1.563a1.563 1.563 0 1 0 0-3.126 1.563 1.563 0 0 0 0 3.125Zm0 12.5a1.563 1.563 0 1 0 0-3.126 1.563 1.563 0 0 0 0 3.126Zm5.937-1.563h5"/></svg>