<svg xmlns="http://www.w3.org/2000/svg" width="56" height="56" fill="none"><rect width="56" height="56" fill="#F7F8F7" rx="12"/><path stroke="#000" stroke-width="1.75" d="M35.5 21.882c0 1.815-1.764 3.487-4.413 6.106a4.406 4.406 0 0 1-6.175-.002c-2.648-2.616-4.412-4.29-4.412-6.104 0-1.815.443-2.179 4.51-6.199.392-.39 1.065-.116 1.065.434v4.14c0 1.05.861 1.904 1.924 1.903a1.914 1.914 0 0 0 1.926-1.902v-4.14c0-.55.674-.824 1.066-.434 4.066 4.02 4.51 4.384 4.509 6.198Z"/><path stroke="#000" stroke-linecap="round" stroke-width="1.75" d="M31.75 28v8.956c0 1.957-1.679 3.544-3.75 3.544-2.071 0-3.75-1.587-3.75-3.544V28"/><path stroke="#000" stroke-linecap="round" stroke-linejoin="round" stroke-width="1.75" d="m28.007 36.75-.007.008"/></svg>