<svg xmlns="http://www.w3.org/2000/svg" width="56" height="56" fill="none"><rect width="56" height="56" fill="#F7F8F7" rx="12"/><path stroke="#2B3B31" stroke-linecap="round" stroke-linejoin="round" stroke-width="1.75" d="M38 30.506v-4.18c0-1.023 0-1.534-.19-1.993-.19-.46-.552-.821-1.275-1.544l-5.92-5.924c-.624-.623-.935-.935-1.322-1.12a2.49 2.49 0 0 0-.246-.102c-.404-.143-.845-.143-1.727-.143-4.056 0-6.085 0-7.458 1.108a4.99 4.99 0 0 0-.754.755C18 18.736 18 20.765 18 24.823v5.683c0 4.717 0 7.075 1.465 8.54 1.178 1.18 2.936 1.41 6.035 1.454m3.75-24.375v.625c0 3.538 0 5.306 1.098 6.405 1.099 1.099 2.867 1.099 6.402 1.099h.625"/><path stroke="#2B3B31" stroke-linecap="round" stroke-linejoin="round" stroke-width="1.75" d="M26.75 33 28 35.5c.303-2.12 2.171-3.75 4.375-3.75 1.487 0 2.8.742 3.59 1.875M38 39.25l-1.25-2.5c-.303 2.12-2.171 3.75-4.375 3.75a4.37 4.37 0 0 1-3.59-1.875"/></svg>