<svg xmlns="http://www.w3.org/2000/svg" width="56" height="56" fill="none"><rect width="56" height="56" fill="#F7F8F7" rx="12"/><path stroke="#000" stroke-linecap="round" stroke-width="1.75" d="M23 33h9.079c5.61 0 6.463-3.524 7.497-8.664.299-1.482.448-2.223.09-2.717-.36-.494-1.048-.494-2.423-.494H20.5"/><path stroke="#000" stroke-linecap="round" stroke-width="1.75" d="m23 33-3.277-15.606a2.5 2.5 0 0 0-2.425-1.894h-1.173"/><path stroke="#000" stroke-linecap="round" stroke-linejoin="round" stroke-width="1.75" d="M24.1 33h-.514c-1.704 0-3.086 1.44-3.086 3.214 0 .296.23.536.514.536h13.861"/><path stroke="#000" stroke-width="1.75" d="M26.125 40.5a1.875 1.875 0 1 0 0-3.75 1.875 1.875 0 0 0 0 3.75Zm8.75 0a1.875 1.875 0 1 0 0-3.75 1.875 1.875 0 0 0 0 3.75Z"/></svg>