<svg xmlns="http://www.w3.org/2000/svg" width="56" height="56" fill="none"><rect width="56" height="56" fill="#F7F8F7" rx="12"/><path stroke="#000" stroke-width="1.75" d="M38.02 15.5c-1.392 0-2.52 3.358-2.52 7.5h2.52c1.214 0 1.822 0 2.198-.42.376-.419.31-.97.18-2.075-.346-2.916-1.28-5.005-2.378-5.005Z"/><path stroke="#000" stroke-linecap="round" stroke-linejoin="round" stroke-width="1.75" d="M35.5 23.068v13.24c0 1.889 0 2.834-.578 3.206-.943.607-2.402-.667-3.136-1.13-.606-.382-.909-.573-1.245-.584-.364-.012-.672.171-1.327.584l-2.389 1.507c-.644.406-.966.609-1.325.609-.358 0-.68-.203-1.325-.61l-2.389-1.506c-.606-.382-.909-.573-1.245-.584-.364-.012-.672.171-1.327.584-.734.463-2.193 1.737-3.137 1.13-.577-.372-.577-1.317-.577-3.207v-13.24c0-3.567 0-5.35 1.098-6.459C17.697 15.5 19.465 15.5 23 15.5h15m-17.5 5h10m-7.5 5h-2.5"/><path stroke="#000" stroke-linecap="round" stroke-width="1.75" d="M28.625 26.594c-1.035 0-1.875.734-1.875 1.64 0 .906.84 1.641 1.875 1.641 1.035 0 1.875.735 1.875 1.64 0 .907-.84 1.641-1.875 1.641m0-6.562c.816 0 1.51.456 1.768 1.093m-1.768-1.093V25.5m0 7.656c-.816 0-1.51-.456-1.768-1.093m1.768 1.093v1.094"/></svg>