<svg xmlns="http://www.w3.org/2000/svg" width="56" height="56" fill="none"><rect width="56" height="56" fill="#F7F8F7" rx="12"/><path stroke="#2B3B31" stroke-linecap="round" stroke-linejoin="round" stroke-width="1.5" d="M25.5 37.376c-4.714 0-7.071 0-8.535-1.465-1.465-1.464-1.465-3.822-1.465-8.536v-1.25c0-4.714 0-7.07 1.465-8.535 1.464-1.465 3.821-1.465 8.535-1.465h4.375c4.11 0 6.164 0 7.547 1.135.253.208.485.44.693.693 1.135 1.384 1.135 3.438 1.135 7.547M15.5 23.625h23.75"/><path stroke="#2B3B31" stroke-linecap="round" stroke-linejoin="round" stroke-width="2" d="M19.875 19.875h.012m4.976 0h.012"/><path stroke="#2B3B31" stroke-linejoin="round" stroke-width="1.5" d="M31.34 39.876h-2.09v-2.09a2.5 2.5 0 0 1 .732-1.768l6.845-6.843a1.875 1.875 0 0 1 2.652 0l.473.473c.732.732.732 1.92 0 2.652l-6.845 6.843a2.5 2.5 0 0 1-1.767.733Z"/></svg>