<svg xmlns="http://www.w3.org/2000/svg" width="56" height="56" fill="none"><rect width="56" height="56" fill="#F7F8F7" rx="12"/><path stroke="#2B3B31" stroke-linecap="round" stroke-linejoin="round" stroke-width="1.75" d="m26.06 16.73-6.875 2.894c-1.484.625-2.225.937-2.643 1.566-.417.628-.417 1.433-.417 3.042v15.643h3.75v-12.5c0-1.178 0-1.768.366-2.134.366-.366.956-.366 2.134-.366h11.25c1.178 0 1.768 0 2.134.366.366.366.366.956.366 2.134v12.5h3.75V24.232c0-1.61 0-2.414-.417-3.043-.418-.628-1.16-.94-2.643-1.565L29.94 16.73c-.957-.402-1.435-.604-1.94-.604-.505 0-.983.201-1.94.604Zm.69 4.395h2.5"/><path stroke="#2B3B31" stroke-linecap="round" stroke-linejoin="round" stroke-width="1.75" d="M29.25 32.375h-2.5c-1.178 0-1.768 0-2.134.366-.366.366-.366.956-.366 2.134v2.5c0 1.178 0 1.768.366 2.134.366.366.956.366 2.134.366h2.5c1.178 0 1.768 0 2.134-.366.366-.366.366-.956.366-2.134v-2.5c0-1.178 0-1.768-.366-2.134-.366-.366-.956-.366-2.134-.366Z"/></svg>