<svg xmlns="http://www.w3.org/2000/svg" width="56" height="56" fill="none"><rect width="56" height="56" fill="#F7F8F7" rx="12"/><path stroke="#000" stroke-linecap="round" stroke-linejoin="round" stroke-width="1.75" d="M25.5 29.667c0-.388 0-.582.043-.74a1.25 1.25 0 0 1 .884-.884c.158-.043.352-.043.74-.043h1.666c.388 0 .582 0 .74.043.432.115.769.452.884.884.043.158.043.352.043.74v.833a2.5 2.5 0 0 1-5 0v-.833Z"/><path stroke="#000" stroke-width="1.75" d="M30.375 29.875h1.478c1.605 0 2.408 0 3.091-.145 1.978-.419 3.592-1.704 4.298-3.423.244-.594.344-1.313.543-2.75.075-.54.112-.81.076-1.03-.104-.643-.62-1.169-1.313-1.343-.239-.059-.54-.059-1.142-.059H18.595c-.603 0-.904 0-1.143.06-.694.173-1.209.7-1.313 1.342-.036.22.001.49.076 1.03.2 1.437.299 2.156.543 2.75.706 1.719 2.32 3.004 4.297 3.423.684.145 1.486.145 3.092.145h1.478"/><path stroke="#000" stroke-linecap="round" stroke-linejoin="round" stroke-width="1.75" d="M17.375 27.375v2.5c0 4.714 0 7.071 1.383 8.535 1.383 1.465 3.61 1.465 8.062 1.465h2.36c4.453 0 6.679 0 8.062-1.465 1.383-1.464 1.383-3.821 1.383-8.535v-2.5"/><path stroke="#000" stroke-width="1.75" d="m32.375 21.125-.097-.442c-.48-2.2-.721-3.3-1.294-3.929-.573-.629-1.334-.629-2.856-.629h-.256c-1.522 0-2.283 0-2.856.63-.572.628-.813 1.728-1.294 3.928l-.097.442"/></svg>