<svg xmlns="http://www.w3.org/2000/svg" width="56" height="56" fill="none"><rect width="56" height="56" fill="#F7F8F7" rx="12"/><path stroke="#000" stroke-linecap="round" stroke-linejoin="round" stroke-width="1.75" d="M28 31.75v1.875M16.75 31.75c.187 3.666.382 5.59 1.748 6.806 1.48 1.319 3.79 1.319 8.41 1.319h2.184c4.62 0 6.93 0 8.41-1.32 1.366-1.215 1.561-3.14 1.748-6.805"/><path stroke="#000" stroke-width="1.75" d="M16.559 26.054C18.683 30.093 23.474 31.75 28 31.75c4.526 0 9.317-1.657 11.441-5.696 1.014-1.928.246-5.554-2.251-5.554H18.81c-2.497 0-3.265 3.626-2.251 5.554ZM33 20.5l-.11-.386c-.55-1.925-.825-2.888-1.48-3.439-.655-.55-1.524-.55-3.264-.55h-.292c-1.74 0-2.61 0-3.264.55-.655.551-.93 1.514-1.48 3.439L23 20.5"/></svg>