<svg xmlns="http://www.w3.org/2000/svg" width="56" height="56" fill="none"><rect width="56" height="56" fill="#F7F8F7" rx="12"/><path stroke="#2B3B31" stroke-linecap="round" stroke-width="1.5" d="M21.75 34.25v-5m6.25 5v-12.5m6.25 12.5v-7.5"/><path stroke="#2B3B31" stroke-linejoin="round" stroke-width="1.5" d="M16.125 28c0-5.597 0-8.396 1.739-10.136 1.74-1.739 4.538-1.739 10.136-1.739 5.598 0 8.397 0 10.136 1.74 1.739 1.739 1.739 4.538 1.739 10.136 0 5.597 0 8.396-1.739 10.135-1.74 1.74-4.538 1.74-10.136 1.74-5.598 0-8.397 0-10.136-1.74-1.739-1.739-1.739-4.538-1.739-10.136Z"/></svg>