<svg xmlns="http://www.w3.org/2000/svg" width="56" height="56" fill="none"><rect width="56" height="56" fill="#F7F8F7" rx="12"/><path stroke="#2B3B31" stroke-linecap="round" stroke-linejoin="round" stroke-width="1.75" d="M36.125 21.75c0-2.946 0-4.42-.915-5.335-.916-.915-2.389-.915-5.335-.915h-3.75c-2.946 0-4.42 0-5.335.915-.915.916-.915 2.389-.915 5.335m16.25 12.5c0 2.946 0 4.42-.915 5.335-.916.915-2.389.915-5.335.915h-3.75c-2.946 0-4.42 0-5.335-.915-.915-.916-.915-2.389-.915-5.335"/><path stroke="#2B3B31" stroke-linecap="round" stroke-linejoin="round" stroke-width="1.75" d="M30.5 15.5h-5l.625 1.25h3.75l.625-1.25Zm1.875 16.875S36.75 29.153 36.75 28s-4.375-4.375-4.375-4.375m-8.75 8.75S19.25 29.153 19.25 28s4.375-4.375 4.375-4.375"/></svg>