<svg xmlns="http://www.w3.org/2000/svg" width="56" height="56" fill="none"><rect width="56" height="56" fill="#F7F8F7" rx="12"/><path stroke="#2B3B31" stroke-width="1.75" d="M16.125 28c0-5.598 0-8.397 1.739-10.136 1.74-1.739 4.538-1.739 10.136-1.739 5.598 0 8.397 0 10.136 1.739 1.739 1.74 1.739 4.538 1.739 10.136 0 5.598 0 8.397-1.739 10.136-1.74 1.739-4.538 1.739-10.136 1.739-5.598 0-8.397 0-10.136-1.739-1.739-1.74-1.739-4.538-1.739-10.136Z"/><path stroke="#2B3B31" stroke-linecap="round" stroke-linejoin="round" stroke-width="1.75" d="m20.5 29.875 1.875-5.625 2.344 5.625m-4.219 0-.625 1.875m.625-1.875h4.219m0 0 .781 1.875M28.625 28v-2.875c0-.233 0-.349.03-.443a.625.625 0 0 1 .402-.401c.094-.031.21-.031.443-.031h1.625a1.875 1.875 0 0 1 0 3.75h-2.5Zm0 0v3.75m7.5-7.5v7.5"/></svg>